<?xml version="1.0" encoding="utf-8" standalone="no"?>
<!DOCTYPE svg PUBLIC "-//W3C//DTD SVG 1.1//EN"
  "http://www.w3.org/Graphics/SVG/1.1/DTD/svg11.dtd">
<svg xmlns:xlink="http://www.w3.org/1999/xlink" width="769.490937pt" height="350.641344pt" viewBox="0 0 769.490937 350.641344" xmlns="http://www.w3.org/2000/svg" version="1.1">
 <metadata>
  <rdf:RDF xmlns:dc="http://purl.org/dc/elements/1.1/" xmlns:cc="http://creativecommons.org/ns#" xmlns:rdf="http://www.w3.org/1999/02/22-rdf-syntax-ns#">
   <cc:Work>
    <dc:type rdf:resource="http://purl.org/dc/dcmitype/StillImage"/>
    <dc:date>2026-07-03T21:51:13.653948</dc:date>
    <dc:format>image/svg+xml</dc:format>
    <dc:creator>
     <cc:Agent>
      <dc:title>Matplotlib v3.11.0, https://matplotlib.org/</dc:title>
     </cc:Agent>
    </dc:creator>
   </cc:Work>
  </rdf:RDF>
 </metadata>
 <defs>
  <style type="text/css">*{stroke-linejoin: round; stroke-linecap: butt}</style>
 </defs>
 <g id="figure_1">
  <g id="patch_1">
   <path d="M 0 350.641344 
L 769.490937 350.641344 
L 769.490937 0 
L 0 0 
z
" style="fill: #ffffff"/>
  </g>
  <g id="axes_1">
   <g id="patch_2">
    <path d="M 60.013281 306.907905 
L 762.290937 306.907905 
L 762.290937 22.5225 
L 60.013281 22.5225 
z
" style="fill: #ffffff"/>
   </g>
   <g id="matplotlib.axis_1">
    <g id="xtick_1">
     <g id="line2d_1">
      <defs>
       <path id="m9281725fa9" d="M 0 0 
L 0 3.5 
" style="stroke: #000000; stroke-width: 0.8"/>
      </defs>
      <g>
       <use xlink:href="#m9281725fa9" x="120.426138" y="306.907905" style="stroke: #000000; stroke-width: 0.8"/>
      </g>
     </g>
     <g id="text_1">
      <!-- fib -->
      <g transform="translate(109.196626 324.916096) rotate(-25) scale(0.09 -0.09)">
       <defs>
        <path id="DejaVuSans-13af" d="M 3431 3500 
L 3431 0 
L 2853 0 
L 2853 3053 
L 1275 3053 
L 1275 0 
L 697 0 
L 697 3053 
L 147 3053 
L 147 3500 
L 697 3500 
L 697 3744 
Q 697 4316 967 4589 
Q 1238 4863 1797 4863 
L 2375 4863 
L 2375 4384 
L 1825 4384 
Q 1516 4384 1395 4259 
Q 1275 4134 1275 3809 
L 1275 3500 
L 3431 3500 
z
M 2853 4856 
L 3431 4856 
L 3431 4128 
L 2853 4128 
L 2853 4856 
z
" transform="scale(0.015625)"/>
        <path id="DejaVuSans-45" d="M 3116 1747 
Q 3116 2381 2855 2742 
Q 2594 3103 2138 3103 
Q 1681 3103 1420 2742 
Q 1159 2381 1159 1747 
Q 1159 1113 1420 752 
Q 1681 391 2138 391 
Q 2594 391 2855 752 
Q 3116 1113 3116 1747 
z
M 1159 2969 
Q 1341 3281 1617 3432 
Q 1894 3584 2278 3584 
Q 2916 3584 3314 3078 
Q 3713 2572 3713 1747 
Q 3713 922 3314 415 
Q 2916 -91 2278 -91 
Q 1894 -91 1617 61 
Q 1341 213 1159 525 
L 1159 0 
L 581 0 
L 581 4863 
L 1159 4863 
L 1159 2969 
z
" transform="scale(0.015625)"/>
       </defs>
       <use xlink:href="#DejaVuSans-13af"/>
       <use xlink:href="#DejaVuSans-45" transform="translate(62.984375 0)"/>
      </g>
     </g>
    </g>
    <g id="xtick_2">
     <g id="line2d_2">
      <g>
       <use xlink:href="#m9281725fa9" x="193.107631" y="306.907905" style="stroke: #000000; stroke-width: 0.8"/>
      </g>
     </g>
     <g id="text_2">
      <!-- matmul -->
      <g transform="translate(160.671791 334.804769) rotate(-25) scale(0.09 -0.09)">
       <defs>
        <path id="DejaVuSans-50" d="M 3328 2828 
Q 3544 3216 3844 3400 
Q 4144 3584 4550 3584 
Q 5097 3584 5394 3201 
Q 5691 2819 5691 2113 
L 5691 0 
L 5113 0 
L 5113 2094 
Q 5113 2597 4934 2840 
Q 4756 3084 4391 3084 
Q 3944 3084 3684 2787 
Q 3425 2491 3425 1978 
L 3425 0 
L 2847 0 
L 2847 2094 
Q 2847 2600 2669 2842 
Q 2491 3084 2119 3084 
Q 1678 3084 1418 2786 
Q 1159 2488 1159 1978 
L 1159 0 
L 581 0 
L 581 3500 
L 1159 3500 
L 1159 2956 
Q 1356 3278 1631 3431 
Q 1906 3584 2284 3584 
Q 2666 3584 2933 3390 
Q 3200 3197 3328 2828 
z
" transform="scale(0.015625)"/>
        <path id="DejaVuSans-44" d="M 2194 1759 
Q 1497 1759 1228 1600 
Q 959 1441 959 1056 
Q 959 750 1161 570 
Q 1363 391 1709 391 
Q 2188 391 2477 730 
Q 2766 1069 2766 1631 
L 2766 1759 
L 2194 1759 
z
M 3341 1997 
L 3341 0 
L 2766 0 
L 2766 531 
Q 2569 213 2275 61 
Q 1981 -91 1556 -91 
Q 1019 -91 701 211 
Q 384 513 384 1019 
Q 384 1609 779 1909 
Q 1175 2209 1959 2209 
L 2766 2209 
L 2766 2266 
Q 2766 2663 2505 2880 
Q 2244 3097 1772 3097 
Q 1472 3097 1187 3025 
Q 903 2953 641 2809 
L 641 3341 
Q 956 3463 1253 3523 
Q 1550 3584 1831 3584 
Q 2591 3584 2966 3190 
Q 3341 2797 3341 1997 
z
" transform="scale(0.015625)"/>
        <path id="DejaVuSans-57" d="M 1172 4494 
L 1172 3500 
L 2356 3500 
L 2356 3053 
L 1172 3053 
L 1172 1153 
Q 1172 725 1289 603 
Q 1406 481 1766 481 
L 2356 481 
L 2356 0 
L 1766 0 
Q 1100 0 847 248 
Q 594 497 594 1153 
L 594 3053 
L 172 3053 
L 172 3500 
L 594 3500 
L 594 4494 
L 1172 4494 
z
" transform="scale(0.015625)"/>
        <path id="DejaVuSans-58" d="M 544 1381 
L 544 3500 
L 1119 3500 
L 1119 1403 
Q 1119 906 1312 657 
Q 1506 409 1894 409 
Q 2359 409 2629 706 
Q 2900 1003 2900 1516 
L 2900 3500 
L 3475 3500 
L 3475 0 
L 2900 0 
L 2900 538 
Q 2691 219 2414 64 
Q 2138 -91 1772 -91 
Q 1169 -91 856 284 
Q 544 659 544 1381 
z
M 1991 3584 
L 1991 3584 
z
" transform="scale(0.015625)"/>
        <path id="DejaVuSans-4f" d="M 603 4863 
L 1178 4863 
L 1178 0 
L 603 0 
L 603 4863 
z
" transform="scale(0.015625)"/>
       </defs>
       <use xlink:href="#DejaVuSans-50"/>
       <use xlink:href="#DejaVuSans-44" transform="translate(97.40625 0)"/>
       <use xlink:href="#DejaVuSans-57" transform="translate(158.6875 0)"/>
       <use xlink:href="#DejaVuSans-50" transform="translate(197.890625 0)"/>
       <use xlink:href="#DejaVuSans-58" transform="translate(295.296875 0)"/>
       <use xlink:href="#DejaVuSans-4f" transform="translate(358.671875 0)"/>
      </g>
     </g>
    </g>
    <g id="xtick_3">
     <g id="line2d_3">
      <g>
       <use xlink:href="#m9281725fa9" x="265.789124" y="306.907905" style="stroke: #000000; stroke-width: 0.8"/>
      </g>
     </g>
     <g id="text_3">
      <!-- float -->
      <g transform="translate(246.550683 328.650721) rotate(-25) scale(0.09 -0.09)">
       <defs>
        <path id="DejaVuSans-13b0" d="M 1831 4863 
L 3431 4863 
L 3431 0 
L 2853 0 
L 2853 4384 
L 1825 4384 
Q 1516 4384 1395 4259 
Q 1275 4134 1275 3809 
L 1275 3500 
L 2222 3500 
L 2222 3053 
L 1275 3053 
L 1275 0 
L 697 0 
L 697 3053 
L 147 3053 
L 147 3500 
L 697 3500 
L 697 3744 
Q 697 4328 969 4595 
Q 1241 4863 1831 4863 
z
" transform="scale(0.015625)"/>
        <path id="DejaVuSans-52" d="M 1959 3097 
Q 1497 3097 1228 2736 
Q 959 2375 959 1747 
Q 959 1119 1226 758 
Q 1494 397 1959 397 
Q 2419 397 2687 759 
Q 2956 1122 2956 1747 
Q 2956 2369 2687 2733 
Q 2419 3097 1959 3097 
z
M 1959 3584 
Q 2709 3584 3137 3096 
Q 3566 2609 3566 1747 
Q 3566 888 3137 398 
Q 2709 -91 1959 -91 
Q 1206 -91 779 398 
Q 353 888 353 1747 
Q 353 2609 779 3096 
Q 1206 3584 1959 3584 
z
" transform="scale(0.015625)"/>
       </defs>
       <use xlink:href="#DejaVuSans-13b0"/>
       <use xlink:href="#DejaVuSans-52" transform="translate(62.984375 0)"/>
       <use xlink:href="#DejaVuSans-44" transform="translate(124.171875 0)"/>
       <use xlink:href="#DejaVuSans-57" transform="translate(185.453125 0)"/>
      </g>
     </g>
    </g>
    <g id="xtick_4">
     <g id="line2d_4">
      <g>
       <use xlink:href="#m9281725fa9" x="338.470617" y="306.907905" style="stroke: #000000; stroke-width: 0.8"/>
      </g>
     </g>
     <g id="text_4">
      <!-- struct -->
      <g transform="translate(313.904785 331.134286) rotate(-25) scale(0.09 -0.09)">
       <defs>
        <path id="DejaVuSans-56" d="M 2834 3397 
L 2834 2853 
Q 2591 2978 2328 3040 
Q 2066 3103 1784 3103 
Q 1356 3103 1142 2972 
Q 928 2841 928 2578 
Q 928 2378 1081 2264 
Q 1234 2150 1697 2047 
L 1894 2003 
Q 2506 1872 2764 1633 
Q 3022 1394 3022 966 
Q 3022 478 2636 193 
Q 2250 -91 1575 -91 
Q 1294 -91 989 -36 
Q 684 19 347 128 
L 347 722 
Q 666 556 975 473 
Q 1284 391 1588 391 
Q 1994 391 2212 530 
Q 2431 669 2431 922 
Q 2431 1156 2273 1281 
Q 2116 1406 1581 1522 
L 1381 1569 
Q 847 1681 609 1914 
Q 372 2147 372 2553 
Q 372 3047 722 3315 
Q 1072 3584 1716 3584 
Q 2034 3584 2315 3537 
Q 2597 3491 2834 3397 
z
" transform="scale(0.015625)"/>
        <path id="DejaVuSans-55" d="M 2631 2963 
Q 2534 3019 2420 3045 
Q 2306 3072 2169 3072 
Q 1681 3072 1420 2755 
Q 1159 2438 1159 1844 
L 1159 0 
L 581 0 
L 581 3500 
L 1159 3500 
L 1159 2956 
Q 1341 3275 1631 3429 
Q 1922 3584 2338 3584 
Q 2397 3584 2469 3576 
Q 2541 3569 2628 3553 
L 2631 2963 
z
" transform="scale(0.015625)"/>
        <path id="DejaVuSans-46" d="M 3122 3366 
L 3122 2828 
Q 2878 2963 2633 3030 
Q 2388 3097 2138 3097 
Q 1578 3097 1268 2742 
Q 959 2388 959 1747 
Q 959 1106 1268 751 
Q 1578 397 2138 397 
Q 2388 397 2633 464 
Q 2878 531 3122 666 
L 3122 134 
Q 2881 22 2623 -34 
Q 2366 -91 2075 -91 
Q 1284 -91 818 406 
Q 353 903 353 1747 
Q 353 2603 823 3093 
Q 1294 3584 2113 3584 
Q 2378 3584 2631 3529 
Q 2884 3475 3122 3366 
z
" transform="scale(0.015625)"/>
       </defs>
       <use xlink:href="#DejaVuSans-56"/>
       <use xlink:href="#DejaVuSans-57" transform="translate(52.09375 0)"/>
       <use xlink:href="#DejaVuSans-55" transform="translate(91.296875 0)"/>
       <use xlink:href="#DejaVuSans-58" transform="translate(132.40625 0)"/>
       <use xlink:href="#DejaVuSans-46" transform="translate(195.78125 0)"/>
       <use xlink:href="#DejaVuSans-57" transform="translate(250.765625 0)"/>
      </g>
     </g>
    </g>
    <g id="xtick_5">
     <g id="line2d_5">
      <g>
       <use xlink:href="#m9281725fa9" x="411.152109" y="306.907905" style="stroke: #000000; stroke-width: 0.8"/>
      </g>
     </g>
     <g id="text_5">
      <!-- prime -->
      <g transform="translate(386.476672 331.186034) rotate(-25) scale(0.09 -0.09)">
       <defs>
        <path id="DejaVuSans-53" d="M 1159 525 
L 1159 -1331 
L 581 -1331 
L 581 3500 
L 1159 3500 
L 1159 2969 
Q 1341 3281 1617 3432 
Q 1894 3584 2278 3584 
Q 2916 3584 3314 3078 
Q 3713 2572 3713 1747 
Q 3713 922 3314 415 
Q 2916 -91 2278 -91 
Q 1894 -91 1617 61 
Q 1341 213 1159 525 
z
M 3116 1747 
Q 3116 2381 2855 2742 
Q 2594 3103 2138 3103 
Q 1681 3103 1420 2742 
Q 1159 2381 1159 1747 
Q 1159 1113 1420 752 
Q 1681 391 2138 391 
Q 2594 391 2855 752 
Q 3116 1113 3116 1747 
z
" transform="scale(0.015625)"/>
        <path id="DejaVuSans-4c" d="M 603 3500 
L 1178 3500 
L 1178 0 
L 603 0 
L 603 3500 
z
M 603 4863 
L 1178 4863 
L 1178 4134 
L 603 4134 
L 603 4863 
z
" transform="scale(0.015625)"/>
        <path id="DejaVuSans-48" d="M 3597 1894 
L 3597 1613 
L 953 1613 
Q 991 1019 1311 708 
Q 1631 397 2203 397 
Q 2534 397 2845 478 
Q 3156 559 3463 722 
L 3463 178 
Q 3153 47 2828 -22 
Q 2503 -91 2169 -91 
Q 1331 -91 842 396 
Q 353 884 353 1716 
Q 353 2575 817 3079 
Q 1281 3584 2069 3584 
Q 2775 3584 3186 3129 
Q 3597 2675 3597 1894 
z
M 3022 2063 
Q 3016 2534 2758 2815 
Q 2500 3097 2075 3097 
Q 1594 3097 1305 2825 
Q 1016 2553 972 2059 
L 3022 2063 
z
" transform="scale(0.015625)"/>
       </defs>
       <use xlink:href="#DejaVuSans-53"/>
       <use xlink:href="#DejaVuSans-55" transform="translate(63.484375 0)"/>
       <use xlink:href="#DejaVuSans-4c" transform="translate(104.59375 0)"/>
       <use xlink:href="#DejaVuSans-50" transform="translate(132.375 0)"/>
       <use xlink:href="#DejaVuSans-48" transform="translate(229.78125 0)"/>
      </g>
     </g>
    </g>
    <g id="xtick_6">
     <g id="line2d_6">
      <g>
       <use xlink:href="#m9281725fa9" x="483.833602" y="306.907905" style="stroke: #000000; stroke-width: 0.8"/>
      </g>
     </g>
     <g id="text_6">
      <!-- mixed -->
      <g transform="translate(457.934649 331.756569) rotate(-25) scale(0.09 -0.09)">
       <defs>
        <path id="DejaVuSans-5b" d="M 3513 3500 
L 2247 1797 
L 3578 0 
L 2900 0 
L 1881 1375 
L 863 0 
L 184 0 
L 1544 1831 
L 300 3500 
L 978 3500 
L 1906 2253 
L 2834 3500 
L 3513 3500 
z
" transform="scale(0.015625)"/>
        <path id="DejaVuSans-47" d="M 2906 2969 
L 2906 4863 
L 3481 4863 
L 3481 0 
L 2906 0 
L 2906 525 
Q 2725 213 2448 61 
Q 2172 -91 1784 -91 
Q 1150 -91 751 415 
Q 353 922 353 1747 
Q 353 2572 751 3078 
Q 1150 3584 1784 3584 
Q 2172 3584 2448 3432 
Q 2725 3281 2906 2969 
z
M 947 1747 
Q 947 1113 1208 752 
Q 1469 391 1925 391 
Q 2381 391 2643 752 
Q 2906 1113 2906 1747 
Q 2906 2381 2643 2742 
Q 2381 3103 1925 3103 
Q 1469 3103 1208 2742 
Q 947 2381 947 1747 
z
" transform="scale(0.015625)"/>
       </defs>
       <use xlink:href="#DejaVuSans-50"/>
       <use xlink:href="#DejaVuSans-4c" transform="translate(97.40625 0)"/>
       <use xlink:href="#DejaVuSans-5b" transform="translate(125.1875 0)"/>
       <use xlink:href="#DejaVuSans-48" transform="translate(181.296875 0)"/>
       <use xlink:href="#DejaVuSans-47" transform="translate(242.828125 0)"/>
      </g>
     </g>
    </g>
    <g id="xtick_7">
     <g id="line2d_7">
      <g>
       <use xlink:href="#m9281725fa9" x="556.515095" y="306.907905" style="stroke: #000000; stroke-width: 0.8"/>
      </g>
     </g>
     <g id="text_7">
      <!-- constfold -->
      <g transform="translate(518.202557 337.545118) rotate(-25) scale(0.09 -0.09)">
       <defs>
        <path id="DejaVuSans-51" d="M 3513 2113 
L 3513 0 
L 2938 0 
L 2938 2094 
Q 2938 2591 2744 2837 
Q 2550 3084 2163 3084 
Q 1697 3084 1428 2787 
Q 1159 2491 1159 1978 
L 1159 0 
L 581 0 
L 581 3500 
L 1159 3500 
L 1159 2956 
Q 1366 3272 1645 3428 
Q 1925 3584 2291 3584 
Q 2894 3584 3203 3211 
Q 3513 2838 3513 2113 
z
" transform="scale(0.015625)"/>
        <path id="DejaVuSans-49" d="M 2375 4863 
L 2375 4384 
L 1825 4384 
Q 1516 4384 1395 4259 
Q 1275 4134 1275 3809 
L 1275 3500 
L 2222 3500 
L 2222 3053 
L 1275 3053 
L 1275 0 
L 697 0 
L 697 3053 
L 147 3053 
L 147 3500 
L 697 3500 
L 697 3744 
Q 697 4328 969 4595 
Q 1241 4863 1831 4863 
L 2375 4863 
z
" transform="scale(0.015625)"/>
       </defs>
       <use xlink:href="#DejaVuSans-46"/>
       <use xlink:href="#DejaVuSans-52" transform="translate(54.984375 0)"/>
       <use xlink:href="#DejaVuSans-51" transform="translate(116.171875 0)"/>
       <use xlink:href="#DejaVuSans-56" transform="translate(179.546875 0)"/>
       <use xlink:href="#DejaVuSans-57" transform="translate(231.640625 0)"/>
       <use xlink:href="#DejaVuSans-49" transform="translate(270.84375 0)"/>
       <use xlink:href="#DejaVuSans-52" transform="translate(306.046875 0)"/>
       <use xlink:href="#DejaVuSans-4f" transform="translate(367.234375 0)"/>
       <use xlink:href="#DejaVuSans-47" transform="translate(395.015625 0)"/>
      </g>
     </g>
    </g>
    <g id="xtick_8">
     <g id="line2d_8">
      <g>
       <use xlink:href="#m9281725fa9" x="629.196588" y="306.907905" style="stroke: #000000; stroke-width: 0.8"/>
      </g>
     </g>
     <g id="text_8">
      <!-- conststore -->
      <g transform="translate(585.560483 340.026901) rotate(-25) scale(0.09 -0.09)">
       <use xlink:href="#DejaVuSans-46"/>
       <use xlink:href="#DejaVuSans-52" transform="translate(54.984375 0)"/>
       <use xlink:href="#DejaVuSans-51" transform="translate(116.171875 0)"/>
       <use xlink:href="#DejaVuSans-56" transform="translate(179.546875 0)"/>
       <use xlink:href="#DejaVuSans-57" transform="translate(231.640625 0)"/>
       <use xlink:href="#DejaVuSans-56" transform="translate(270.84375 0)"/>
       <use xlink:href="#DejaVuSans-57" transform="translate(322.9375 0)"/>
       <use xlink:href="#DejaVuSans-52" transform="translate(362.140625 0)"/>
       <use xlink:href="#DejaVuSans-55" transform="translate(423.328125 0)"/>
       <use xlink:href="#DejaVuSans-48" transform="translate(462.234375 0)"/>
      </g>
     </g>
    </g>
    <g id="xtick_9">
     <g id="line2d_9">
      <g>
       <use xlink:href="#m9281725fa9" x="701.878081" y="306.907905" style="stroke: #000000; stroke-width: 0.8"/>
      </g>
     </g>
     <g id="text_9">
      <!-- stackframe -->
      <g transform="translate(655.123286 341.481807) rotate(-25) scale(0.09 -0.09)">
       <defs>
        <path id="DejaVuSans-4e" d="M 581 4863 
L 1159 4863 
L 1159 1991 
L 2875 3500 
L 3609 3500 
L 1753 1863 
L 3688 0 
L 2938 0 
L 1159 1709 
L 1159 0 
L 581 0 
L 581 4863 
z
" transform="scale(0.015625)"/>
       </defs>
       <use xlink:href="#DejaVuSans-56"/>
       <use xlink:href="#DejaVuSans-57" transform="translate(52.09375 0)"/>
       <use xlink:href="#DejaVuSans-44" transform="translate(91.296875 0)"/>
       <use xlink:href="#DejaVuSans-46" transform="translate(152.578125 0)"/>
       <use xlink:href="#DejaVuSans-4e" transform="translate(207.5625 0)"/>
       <use xlink:href="#DejaVuSans-49" transform="translate(265.46875 0)"/>
       <use xlink:href="#DejaVuSans-55" transform="translate(300.671875 0)"/>
       <use xlink:href="#DejaVuSans-44" transform="translate(341.78125 0)"/>
       <use xlink:href="#DejaVuSans-50" transform="translate(403.0625 0)"/>
       <use xlink:href="#DejaVuSans-48" transform="translate(500.46875 0)"/>
      </g>
     </g>
    </g>
   </g>
   <g id="matplotlib.axis_2">
    <g id="ytick_1">
     <g id="line2d_10">
      <path d="M 60.013281 306.907905 
L 762.290937 306.907905 
" clip-path="url(#pbd27e324d5)" style="fill: none; stroke-dasharray: 0.8,1.32; stroke-dashoffset: 0; stroke: #b0b0b0; stroke-opacity: 0.4; stroke-width: 0.8"/>
     </g>
     <g id="line2d_11">
      <defs>
       <path id="mc2831ba4e0" d="M 0 0 
L -3.5 0 
" style="stroke: #000000; stroke-width: 0.8"/>
      </defs>
      <g>
       <use xlink:href="#mc2831ba4e0" x="60.013281" y="306.907905" style="stroke: #000000; stroke-width: 0.8"/>
      </g>
     </g>
     <g id="text_10">
      <!-- 0 -->
      <g transform="translate(46.650781 310.706733) scale(0.1 -0.1)">
       <defs>
        <path id="DejaVuSans-13" d="M 2034 4250 
Q 1547 4250 1301 3770 
Q 1056 3291 1056 2328 
Q 1056 1369 1301 889 
Q 1547 409 2034 409 
Q 2525 409 2770 889 
Q 3016 1369 3016 2328 
Q 3016 3291 2770 3770 
Q 2525 4250 2034 4250 
z
M 2034 4750 
Q 2819 4750 3233 4129 
Q 3647 3509 3647 2328 
Q 3647 1150 3233 529 
Q 2819 -91 2034 -91 
Q 1250 -91 836 529 
Q 422 1150 422 2328 
Q 422 3509 836 4129 
Q 1250 4750 2034 4750 
z
" transform="scale(0.015625)"/>
       </defs>
       <use xlink:href="#DejaVuSans-13"/>
      </g>
     </g>
    </g>
    <g id="ytick_2">
     <g id="line2d_12">
      <path d="M 60.013281 273.651122 
L 762.290937 273.651122 
" clip-path="url(#pbd27e324d5)" style="fill: none; stroke-dasharray: 0.8,1.32; stroke-dashoffset: 0; stroke: #b0b0b0; stroke-opacity: 0.4; stroke-width: 0.8"/>
     </g>
     <g id="line2d_13">
      <g>
       <use xlink:href="#mc2831ba4e0" x="60.013281" y="273.651122" style="stroke: #000000; stroke-width: 0.8"/>
      </g>
     </g>
     <g id="text_11">
      <!-- 2000 -->
      <g transform="translate(27.563281 277.44995) scale(0.1 -0.1)">
       <defs>
        <path id="DejaVuSans-15" d="M 1228 531 
L 3431 531 
L 3431 0 
L 469 0 
L 469 531 
Q 828 903 1448 1529 
Q 2069 2156 2228 2338 
Q 2531 2678 2651 2914 
Q 2772 3150 2772 3378 
Q 2772 3750 2511 3984 
Q 2250 4219 1831 4219 
Q 1534 4219 1204 4116 
Q 875 4013 500 3803 
L 500 4441 
Q 881 4594 1212 4672 
Q 1544 4750 1819 4750 
Q 2544 4750 2975 4387 
Q 3406 4025 3406 3419 
Q 3406 3131 3298 2873 
Q 3191 2616 2906 2266 
Q 2828 2175 2409 1742 
Q 1991 1309 1228 531 
z
" transform="scale(0.015625)"/>
       </defs>
       <use xlink:href="#DejaVuSans-15"/>
       <use xlink:href="#DejaVuSans-13" transform="translate(63.625 0)"/>
       <use xlink:href="#DejaVuSans-13" transform="translate(127.25 0)"/>
       <use xlink:href="#DejaVuSans-13" transform="translate(190.875 0)"/>
      </g>
     </g>
    </g>
    <g id="ytick_3">
     <g id="line2d_14">
      <path d="M 60.013281 240.394338 
L 762.290937 240.394338 
" clip-path="url(#pbd27e324d5)" style="fill: none; stroke-dasharray: 0.8,1.32; stroke-dashoffset: 0; stroke: #b0b0b0; stroke-opacity: 0.4; stroke-width: 0.8"/>
     </g>
     <g id="line2d_15">
      <g>
       <use xlink:href="#mc2831ba4e0" x="60.013281" y="240.394338" style="stroke: #000000; stroke-width: 0.8"/>
      </g>
     </g>
     <g id="text_12">
      <!-- 4000 -->
      <g transform="translate(27.563281 244.193166) scale(0.1 -0.1)">
       <defs>
        <path id="DejaVuSans-17" d="M 2419 4116 
L 825 1625 
L 2419 1625 
L 2419 4116 
z
M 2253 4666 
L 3047 4666 
L 3047 1625 
L 3713 1625 
L 3713 1100 
L 3047 1100 
L 3047 0 
L 2419 0 
L 2419 1100 
L 313 1100 
L 313 1709 
L 2253 4666 
z
" transform="scale(0.015625)"/>
       </defs>
       <use xlink:href="#DejaVuSans-17"/>
       <use xlink:href="#DejaVuSans-13" transform="translate(63.625 0)"/>
       <use xlink:href="#DejaVuSans-13" transform="translate(127.25 0)"/>
       <use xlink:href="#DejaVuSans-13" transform="translate(190.875 0)"/>
      </g>
     </g>
    </g>
    <g id="ytick_4">
     <g id="line2d_16">
      <path d="M 60.013281 207.137555 
L 762.290937 207.137555 
" clip-path="url(#pbd27e324d5)" style="fill: none; stroke-dasharray: 0.8,1.32; stroke-dashoffset: 0; stroke: #b0b0b0; stroke-opacity: 0.4; stroke-width: 0.8"/>
     </g>
     <g id="line2d_17">
      <g>
       <use xlink:href="#mc2831ba4e0" x="60.013281" y="207.137555" style="stroke: #000000; stroke-width: 0.8"/>
      </g>
     </g>
     <g id="text_13">
      <!-- 6000 -->
      <g transform="translate(27.563281 210.936383) scale(0.1 -0.1)">
       <defs>
        <path id="DejaVuSans-19" d="M 2113 2584 
Q 1688 2584 1439 2293 
Q 1191 2003 1191 1497 
Q 1191 994 1439 701 
Q 1688 409 2113 409 
Q 2538 409 2786 701 
Q 3034 994 3034 1497 
Q 3034 2003 2786 2293 
Q 2538 2584 2113 2584 
z
M 3366 4563 
L 3366 3988 
Q 3128 4100 2886 4159 
Q 2644 4219 2406 4219 
Q 1781 4219 1451 3797 
Q 1122 3375 1075 2522 
Q 1259 2794 1537 2939 
Q 1816 3084 2150 3084 
Q 2853 3084 3261 2657 
Q 3669 2231 3669 1497 
Q 3669 778 3244 343 
Q 2819 -91 2113 -91 
Q 1303 -91 875 529 
Q 447 1150 447 2328 
Q 447 3434 972 4092 
Q 1497 4750 2381 4750 
Q 2619 4750 2861 4703 
Q 3103 4656 3366 4563 
z
" transform="scale(0.015625)"/>
       </defs>
       <use xlink:href="#DejaVuSans-19"/>
       <use xlink:href="#DejaVuSans-13" transform="translate(63.625 0)"/>
       <use xlink:href="#DejaVuSans-13" transform="translate(127.25 0)"/>
       <use xlink:href="#DejaVuSans-13" transform="translate(190.875 0)"/>
      </g>
     </g>
    </g>
    <g id="ytick_5">
     <g id="line2d_18">
      <path d="M 60.013281 173.880772 
L 762.290937 173.880772 
" clip-path="url(#pbd27e324d5)" style="fill: none; stroke-dasharray: 0.8,1.32; stroke-dashoffset: 0; stroke: #b0b0b0; stroke-opacity: 0.4; stroke-width: 0.8"/>
     </g>
     <g id="line2d_19">
      <g>
       <use xlink:href="#mc2831ba4e0" x="60.013281" y="173.880772" style="stroke: #000000; stroke-width: 0.8"/>
      </g>
     </g>
     <g id="text_14">
      <!-- 8000 -->
      <g transform="translate(27.563281 177.6796) scale(0.1 -0.1)">
       <defs>
        <path id="DejaVuSans-1b" d="M 2034 2216 
Q 1584 2216 1326 1975 
Q 1069 1734 1069 1313 
Q 1069 891 1326 650 
Q 1584 409 2034 409 
Q 2484 409 2743 651 
Q 3003 894 3003 1313 
Q 3003 1734 2745 1975 
Q 2488 2216 2034 2216 
z
M 1403 2484 
Q 997 2584 770 2862 
Q 544 3141 544 3541 
Q 544 4100 942 4425 
Q 1341 4750 2034 4750 
Q 2731 4750 3128 4425 
Q 3525 4100 3525 3541 
Q 3525 3141 3298 2862 
Q 3072 2584 2669 2484 
Q 3125 2378 3379 2068 
Q 3634 1759 3634 1313 
Q 3634 634 3220 271 
Q 2806 -91 2034 -91 
Q 1263 -91 848 271 
Q 434 634 434 1313 
Q 434 1759 690 2068 
Q 947 2378 1403 2484 
z
M 1172 3481 
Q 1172 3119 1398 2916 
Q 1625 2713 2034 2713 
Q 2441 2713 2670 2916 
Q 2900 3119 2900 3481 
Q 2900 3844 2670 4047 
Q 2441 4250 2034 4250 
Q 1625 4250 1398 4047 
Q 1172 3844 1172 3481 
z
" transform="scale(0.015625)"/>
       </defs>
       <use xlink:href="#DejaVuSans-1b"/>
       <use xlink:href="#DejaVuSans-13" transform="translate(63.625 0)"/>
       <use xlink:href="#DejaVuSans-13" transform="translate(127.25 0)"/>
       <use xlink:href="#DejaVuSans-13" transform="translate(190.875 0)"/>
      </g>
     </g>
    </g>
    <g id="ytick_6">
     <g id="line2d_20">
      <path d="M 60.013281 140.623989 
L 762.290937 140.623989 
" clip-path="url(#pbd27e324d5)" style="fill: none; stroke-dasharray: 0.8,1.32; stroke-dashoffset: 0; stroke: #b0b0b0; stroke-opacity: 0.4; stroke-width: 0.8"/>
     </g>
     <g id="line2d_21">
      <g>
       <use xlink:href="#mc2831ba4e0" x="60.013281" y="140.623989" style="stroke: #000000; stroke-width: 0.8"/>
      </g>
     </g>
     <g id="text_15">
      <!-- 10000 -->
      <g transform="translate(21.200781 144.422817) scale(0.1 -0.1)">
       <defs>
        <path id="DejaVuSans-14" d="M 794 531 
L 1825 531 
L 1825 4091 
L 703 3866 
L 703 4441 
L 1819 4666 
L 2450 4666 
L 2450 531 
L 3481 531 
L 3481 0 
L 794 0 
L 794 531 
z
" transform="scale(0.015625)"/>
       </defs>
       <use xlink:href="#DejaVuSans-14"/>
       <use xlink:href="#DejaVuSans-13" transform="translate(63.625 0)"/>
       <use xlink:href="#DejaVuSans-13" transform="translate(127.25 0)"/>
       <use xlink:href="#DejaVuSans-13" transform="translate(190.875 0)"/>
       <use xlink:href="#DejaVuSans-13" transform="translate(254.5 0)"/>
      </g>
     </g>
    </g>
    <g id="ytick_7">
     <g id="line2d_22">
      <path d="M 60.013281 107.367205 
L 762.290937 107.367205 
" clip-path="url(#pbd27e324d5)" style="fill: none; stroke-dasharray: 0.8,1.32; stroke-dashoffset: 0; stroke: #b0b0b0; stroke-opacity: 0.4; stroke-width: 0.8"/>
     </g>
     <g id="line2d_23">
      <g>
       <use xlink:href="#mc2831ba4e0" x="60.013281" y="107.367205" style="stroke: #000000; stroke-width: 0.8"/>
      </g>
     </g>
     <g id="text_16">
      <!-- 12000 -->
      <g transform="translate(21.200781 111.166034) scale(0.1 -0.1)">
       <use xlink:href="#DejaVuSans-14"/>
       <use xlink:href="#DejaVuSans-15" transform="translate(63.625 0)"/>
       <use xlink:href="#DejaVuSans-13" transform="translate(127.25 0)"/>
       <use xlink:href="#DejaVuSans-13" transform="translate(190.875 0)"/>
       <use xlink:href="#DejaVuSans-13" transform="translate(254.5 0)"/>
      </g>
     </g>
    </g>
    <g id="ytick_8">
     <g id="line2d_24">
      <path d="M 60.013281 74.110422 
L 762.290937 74.110422 
" clip-path="url(#pbd27e324d5)" style="fill: none; stroke-dasharray: 0.8,1.32; stroke-dashoffset: 0; stroke: #b0b0b0; stroke-opacity: 0.4; stroke-width: 0.8"/>
     </g>
     <g id="line2d_25">
      <g>
       <use xlink:href="#mc2831ba4e0" x="60.013281" y="74.110422" style="stroke: #000000; stroke-width: 0.8"/>
      </g>
     </g>
     <g id="text_17">
      <!-- 14000 -->
      <g transform="translate(21.200781 77.90925) scale(0.1 -0.1)">
       <use xlink:href="#DejaVuSans-14"/>
       <use xlink:href="#DejaVuSans-17" transform="translate(63.625 0)"/>
       <use xlink:href="#DejaVuSans-13" transform="translate(127.25 0)"/>
       <use xlink:href="#DejaVuSans-13" transform="translate(190.875 0)"/>
       <use xlink:href="#DejaVuSans-13" transform="translate(254.5 0)"/>
      </g>
     </g>
    </g>
    <g id="ytick_9">
     <g id="line2d_26">
      <path d="M 60.013281 40.853639 
L 762.290937 40.853639 
" clip-path="url(#pbd27e324d5)" style="fill: none; stroke-dasharray: 0.8,1.32; stroke-dashoffset: 0; stroke: #b0b0b0; stroke-opacity: 0.4; stroke-width: 0.8"/>
     </g>
     <g id="line2d_27">
      <g>
       <use xlink:href="#mc2831ba4e0" x="60.013281" y="40.853639" style="stroke: #000000; stroke-width: 0.8"/>
      </g>
     </g>
     <g id="text_18">
      <!-- 16000 -->
      <g transform="translate(21.200781 44.652467) scale(0.1 -0.1)">
       <use xlink:href="#DejaVuSans-14"/>
       <use xlink:href="#DejaVuSans-19" transform="translate(63.625 0)"/>
       <use xlink:href="#DejaVuSans-13" transform="translate(127.25 0)"/>
       <use xlink:href="#DejaVuSans-13" transform="translate(190.875 0)"/>
       <use xlink:href="#DejaVuSans-13" transform="translate(254.5 0)"/>
      </g>
     </g>
    </g>
    <g id="text_19">
     <!-- bytes -->
     <g transform="translate(14.798438 178.490202) rotate(-90) scale(0.1 -0.1)">
      <defs>
       <path id="DejaVuSans-5c" d="M 2059 -325 
Q 1816 -950 1584 -1140 
Q 1353 -1331 966 -1331 
L 506 -1331 
L 506 -850 
L 844 -850 
Q 1081 -850 1212 -737 
Q 1344 -625 1503 -206 
L 1606 56 
L 191 3500 
L 800 3500 
L 1894 763 
L 2988 3500 
L 3597 3500 
L 2059 -325 
z
" transform="scale(0.015625)"/>
      </defs>
      <use xlink:href="#DejaVuSans-45"/>
      <use xlink:href="#DejaVuSans-5c" transform="translate(63.484375 0)"/>
      <use xlink:href="#DejaVuSans-57" transform="translate(122.671875 0)"/>
      <use xlink:href="#DejaVuSans-48" transform="translate(161.875 0)"/>
      <use xlink:href="#DejaVuSans-56" transform="translate(223.40625 0)"/>
     </g>
    </g>
   </g>
   <g id="patch_3">
    <path d="M 91.934993 306.907905 
L 102.401128 306.907905 
L 102.401128 38.991259 
L 91.934993 38.991259 
z
" clip-path="url(#pbd27e324d5)" style="fill: #4c72b0"/>
   </g>
   <g id="patch_4">
    <path d="M 164.616486 306.907905 
L 175.082621 306.907905 
L 175.082621 36.064662 
L 164.616486 36.064662 
z
" clip-path="url(#pbd27e324d5)" style="fill: #4c72b0"/>
   </g>
   <g id="patch_5">
    <path d="M 237.297979 306.907905 
L 247.764114 306.907905 
L 247.764114 39.922449 
L 237.297979 39.922449 
z
" clip-path="url(#pbd27e324d5)" style="fill: #4c72b0"/>
   </g>
   <g id="patch_6">
    <path d="M 309.979471 306.907905 
L 320.445606 306.907905 
L 320.445606 39.922449 
L 309.979471 39.922449 
z
" clip-path="url(#pbd27e324d5)" style="fill: #4c72b0"/>
   </g>
   <g id="patch_7">
    <path d="M 382.660964 306.907905 
L 393.127099 306.907905 
L 393.127099 36.862825 
L 382.660964 36.862825 
z
" clip-path="url(#pbd27e324d5)" style="fill: #4c72b0"/>
   </g>
   <g id="patch_8">
    <path d="M 455.342457 306.907905 
L 465.808592 306.907905 
L 465.808592 39.922449 
L 455.342457 39.922449 
z
" clip-path="url(#pbd27e324d5)" style="fill: #4c72b0"/>
   </g>
   <g id="patch_9">
    <path d="M 528.02395 306.907905 
L 538.490085 306.907905 
L 538.490085 39.39034 
L 528.02395 39.39034 
z
" clip-path="url(#pbd27e324d5)" style="fill: #4c72b0"/>
   </g>
   <g id="patch_10">
    <path d="M 600.705443 306.907905 
L 611.171578 306.907905 
L 611.171578 39.39034 
L 600.705443 39.39034 
z
" clip-path="url(#pbd27e324d5)" style="fill: #4c72b0"/>
   </g>
   <g id="patch_11">
    <path d="M 673.386935 306.907905 
L 683.85307 306.907905 
L 683.85307 39.39034 
L 673.386935 39.39034 
z
" clip-path="url(#pbd27e324d5)" style="fill: #4c72b0"/>
   </g>
   <g id="patch_12">
    <path d="M 103.564032 306.907905 
L 114.030167 306.907905 
L 114.030167 40.853639 
L 103.564032 40.853639 
z
" clip-path="url(#pbd27e324d5)" style="fill: #55a868"/>
   </g>
   <g id="patch_13">
    <path d="M 176.245525 306.907905 
L 186.71166 306.907905 
L 186.71166 40.32153 
L 176.245525 40.32153 
z
" clip-path="url(#pbd27e324d5)" style="fill: #55a868"/>
   </g>
   <g id="patch_14">
    <path d="M 248.927017 306.907905 
L 259.393152 306.907905 
L 259.393152 41.25272 
L 248.927017 41.25272 
z
" clip-path="url(#pbd27e324d5)" style="fill: #55a868"/>
   </g>
   <g id="patch_15">
    <path d="M 321.60851 306.907905 
L 332.074645 306.907905 
L 332.074645 40.32153 
L 321.60851 40.32153 
z
" clip-path="url(#pbd27e324d5)" style="fill: #55a868"/>
   </g>
   <g id="patch_16">
    <path d="M 394.290003 306.907905 
L 404.756138 306.907905 
L 404.756138 41.25272 
L 394.290003 41.25272 
z
" clip-path="url(#pbd27e324d5)" style="fill: #55a868"/>
   </g>
   <g id="patch_17">
    <path d="M 466.971496 306.907905 
L 477.437631 306.907905 
L 477.437631 41.25272 
L 466.971496 41.25272 
z
" clip-path="url(#pbd27e324d5)" style="fill: #55a868"/>
   </g>
   <g id="patch_18">
    <path d="M 539.652989 306.907905 
L 550.119124 306.907905 
L 550.119124 41.25272 
L 539.652989 41.25272 
z
" clip-path="url(#pbd27e324d5)" style="fill: #55a868"/>
   </g>
   <g id="patch_19">
    <path d="M 612.334482 306.907905 
L 622.800616 306.907905 
L 622.800616 41.119693 
L 612.334482 41.119693 
z
" clip-path="url(#pbd27e324d5)" style="fill: #55a868"/>
   </g>
   <g id="patch_20">
    <path d="M 685.015974 306.907905 
L 695.482109 306.907905 
L 695.482109 41.119693 
L 685.015974 41.119693 
z
" clip-path="url(#pbd27e324d5)" style="fill: #55a868"/>
   </g>
   <g id="patch_21">
    <path d="M 115.193071 306.907905 
L 125.659206 306.907905 
L 125.659206 40.853639 
L 115.193071 40.853639 
z
" clip-path="url(#pbd27e324d5)" style="fill: #c44e52"/>
   </g>
   <g id="patch_22">
    <path d="M 187.874563 306.907905 
L 198.340698 306.907905 
L 198.340698 39.39034 
L 187.874563 39.39034 
z
" clip-path="url(#pbd27e324d5)" style="fill: #c44e52"/>
   </g>
   <g id="patch_23">
    <path d="M 260.556056 306.907905 
L 271.022191 306.907905 
L 271.022191 41.25272 
L 260.556056 41.25272 
z
" clip-path="url(#pbd27e324d5)" style="fill: #c44e52"/>
   </g>
   <g id="patch_24">
    <path d="M 333.237549 306.907905 
L 343.703684 306.907905 
L 343.703684 41.25272 
L 333.237549 41.25272 
z
" clip-path="url(#pbd27e324d5)" style="fill: #c44e52"/>
   </g>
   <g id="patch_25">
    <path d="M 405.919042 306.907905 
L 416.385177 306.907905 
L 416.385177 41.25272 
L 405.919042 41.25272 
z
" clip-path="url(#pbd27e324d5)" style="fill: #c44e52"/>
   </g>
   <g id="patch_26">
    <path d="M 478.600535 306.907905 
L 489.06667 306.907905 
L 489.06667 41.25272 
L 478.600535 41.25272 
z
" clip-path="url(#pbd27e324d5)" style="fill: #c44e52"/>
   </g>
   <g id="patch_27">
    <path d="M 551.282028 306.907905 
L 561.748163 306.907905 
L 561.748163 41.25272 
L 551.282028 41.25272 
z
" clip-path="url(#pbd27e324d5)" style="fill: #c44e52"/>
   </g>
   <g id="patch_28">
    <path d="M 623.96352 306.907905 
L 634.429655 306.907905 
L 634.429655 41.119693 
L 623.96352 41.119693 
z
" clip-path="url(#pbd27e324d5)" style="fill: #c44e52"/>
   </g>
   <g id="patch_29">
    <path d="M 696.645013 306.907905 
L 707.111148 306.907905 
L 707.111148 41.119693 
L 696.645013 41.119693 
z
" clip-path="url(#pbd27e324d5)" style="fill: #c44e52"/>
   </g>
   <g id="patch_30">
    <path d="M 126.822109 306.907905 
L 137.288244 306.907905 
L 137.288244 40.587585 
L 126.822109 40.587585 
z
" clip-path="url(#pbd27e324d5)" style="fill: #8172b2"/>
   </g>
   <g id="patch_31">
    <path d="M 199.503602 306.907905 
L 209.969737 306.907905 
L 209.969737 40.055476 
L 199.503602 40.055476 
z
" clip-path="url(#pbd27e324d5)" style="fill: #8172b2"/>
   </g>
   <g id="patch_32">
    <path d="M 272.185095 306.907905 
L 282.65123 306.907905 
L 282.65123 40.986666 
L 272.185095 40.986666 
z
" clip-path="url(#pbd27e324d5)" style="fill: #8172b2"/>
   </g>
   <g id="patch_33">
    <path d="M 344.866588 306.907905 
L 355.332723 306.907905 
L 355.332723 40.055476 
L 344.866588 40.055476 
z
" clip-path="url(#pbd27e324d5)" style="fill: #8172b2"/>
   </g>
   <g id="patch_34">
    <path d="M 417.548081 306.907905 
L 428.014216 306.907905 
L 428.014216 40.986666 
L 417.548081 40.986666 
z
" clip-path="url(#pbd27e324d5)" style="fill: #8172b2"/>
   </g>
   <g id="patch_35">
    <path d="M 490.229574 306.907905 
L 500.695709 306.907905 
L 500.695709 40.986666 
L 490.229574 40.986666 
z
" clip-path="url(#pbd27e324d5)" style="fill: #8172b2"/>
   </g>
   <g id="patch_36">
    <path d="M 562.911066 306.907905 
L 573.377201 306.907905 
L 573.377201 40.986666 
L 562.911066 40.986666 
z
" clip-path="url(#pbd27e324d5)" style="fill: #8172b2"/>
   </g>
   <g id="patch_37">
    <path d="M 635.592559 306.907905 
L 646.058694 306.907905 
L 646.058694 40.853639 
L 635.592559 40.853639 
z
" clip-path="url(#pbd27e324d5)" style="fill: #8172b2"/>
   </g>
   <g id="patch_38">
    <path d="M 708.274052 306.907905 
L 718.740187 306.907905 
L 718.740187 40.853639 
L 708.274052 40.853639 
z
" clip-path="url(#pbd27e324d5)" style="fill: #8172b2"/>
   </g>
   <g id="patch_39">
    <path d="M 138.451148 306.907905 
L 148.917283 306.907905 
L 148.917283 40.587585 
L 138.451148 40.587585 
z
" clip-path="url(#pbd27e324d5)" style="fill: #ccb974"/>
   </g>
   <g id="patch_40">
    <path d="M 211.132641 306.907905 
L 221.598776 306.907905 
L 221.598776 39.124286 
L 211.132641 39.124286 
z
" clip-path="url(#pbd27e324d5)" style="fill: #ccb974"/>
   </g>
   <g id="patch_41">
    <path d="M 283.814134 306.907905 
L 294.280269 306.907905 
L 294.280269 40.986666 
L 283.814134 40.986666 
z
" clip-path="url(#pbd27e324d5)" style="fill: #ccb974"/>
   </g>
   <g id="patch_42">
    <path d="M 356.495627 306.907905 
L 366.961762 306.907905 
L 366.961762 40.986666 
L 356.495627 40.986666 
z
" clip-path="url(#pbd27e324d5)" style="fill: #ccb974"/>
   </g>
   <g id="patch_43">
    <path d="M 429.17712 306.907905 
L 439.643255 306.907905 
L 439.643255 40.986666 
L 429.17712 40.986666 
z
" clip-path="url(#pbd27e324d5)" style="fill: #ccb974"/>
   </g>
   <g id="patch_44">
    <path d="M 501.858612 306.907905 
L 512.324747 306.907905 
L 512.324747 40.986666 
L 501.858612 40.986666 
z
" clip-path="url(#pbd27e324d5)" style="fill: #ccb974"/>
   </g>
   <g id="patch_45">
    <path d="M 574.540105 306.907905 
L 585.00624 306.907905 
L 585.00624 40.986666 
L 574.540105 40.986666 
z
" clip-path="url(#pbd27e324d5)" style="fill: #ccb974"/>
   </g>
   <g id="patch_46">
    <path d="M 647.221598 306.907905 
L 657.687733 306.907905 
L 657.687733 40.853639 
L 647.221598 40.853639 
z
" clip-path="url(#pbd27e324d5)" style="fill: #ccb974"/>
   </g>
   <g id="patch_47">
    <path d="M 719.903091 306.907905 
L 730.369226 306.907905 
L 730.369226 40.853639 
L 719.903091 40.853639 
z
" clip-path="url(#pbd27e324d5)" style="fill: #ccb974"/>
   </g>
   <g id="patch_48">
    <path d="M 60.013281 306.907905 
L 60.013281 22.5225 
" style="fill: none; stroke: #000000; stroke-width: 0.8; stroke-linejoin: miter; stroke-linecap: square"/>
   </g>
   <g id="patch_49">
    <path d="M 762.290937 306.907905 
L 762.290937 22.5225 
" style="fill: none; stroke: #000000; stroke-width: 0.8; stroke-linejoin: miter; stroke-linecap: square"/>
   </g>
   <g id="patch_50">
    <path d="M 60.013281 306.907905 
L 762.290937 306.907905 
" style="fill: none; stroke: #000000; stroke-width: 0.8; stroke-linejoin: miter; stroke-linecap: square"/>
   </g>
   <g id="patch_51">
    <path d="M 60.013281 22.5225 
L 762.290937 22.5225 
" style="fill: none; stroke: #000000; stroke-width: 0.8; stroke-linejoin: miter; stroke-linecap: square"/>
   </g>
   <g id="text_20">
    <!-- Tamaño de binario -->
    <g transform="translate(355.733672 16.5225) scale(0.12 -0.12)">
     <defs>
      <path id="DejaVuSans-37" d="M -19 4666 
L 3928 4666 
L 3928 4134 
L 2272 4134 
L 2272 0 
L 1638 0 
L 1638 4134 
L -19 4134 
L -19 4666 
z
" transform="scale(0.015625)"/>
      <path id="DejaVuSans-b3" d="M 3513 2113 
L 3513 0 
L 2938 0 
L 2938 2094 
Q 2938 2591 2744 2837 
Q 2550 3084 2163 3084 
Q 1697 3084 1428 2787 
Q 1159 2491 1159 1978 
L 1159 0 
L 581 0 
L 581 3500 
L 1159 3500 
L 1159 2956 
Q 1366 3272 1645 3428 
Q 1925 3584 2291 3584 
Q 2894 3584 3203 3211 
Q 3513 2838 3513 2113 
z
M 2063 4281 
L 1884 4453 
Q 1816 4516 1764 4545 
Q 1713 4575 1672 4575 
Q 1553 4575 1497 4461 
Q 1441 4347 1434 4091 
L 1044 4091 
Q 1050 4513 1209 4742 
Q 1369 4972 1653 4972 
Q 1772 4972 1872 4928 
Q 1972 4884 2088 4781 
L 2266 4609 
Q 2334 4547 2386 4517 
Q 2438 4488 2478 4488 
Q 2597 4488 2653 4602 
Q 2709 4716 2716 4972 
L 3106 4972 
Q 3100 4550 2940 4320 
Q 2781 4091 2497 4091 
Q 2378 4091 2278 4134 
Q 2178 4178 2063 4281 
z
" transform="scale(0.015625)"/>
      <path id="DejaVuSans-3" transform="scale(0.015625)"/>
     </defs>
     <use xlink:href="#DejaVuSans-37"/>
     <use xlink:href="#DejaVuSans-44" transform="translate(44.53125 0)"/>
     <use xlink:href="#DejaVuSans-50" transform="translate(105.8125 0)"/>
     <use xlink:href="#DejaVuSans-44" transform="translate(203.21875 0)"/>
     <use xlink:href="#DejaVuSans-b3" transform="translate(264.5 0)"/>
     <use xlink:href="#DejaVuSans-52" transform="translate(327.875 0)"/>
     <use xlink:href="#DejaVuSans-3" transform="translate(389.0625 0)"/>
     <use xlink:href="#DejaVuSans-47" transform="translate(420.84375 0)"/>
     <use xlink:href="#DejaVuSans-48" transform="translate(484.328125 0)"/>
     <use xlink:href="#DejaVuSans-3" transform="translate(545.859375 0)"/>
     <use xlink:href="#DejaVuSans-45" transform="translate(577.640625 0)"/>
     <use xlink:href="#DejaVuSans-4c" transform="translate(641.125 0)"/>
     <use xlink:href="#DejaVuSans-51" transform="translate(668.90625 0)"/>
     <use xlink:href="#DejaVuSans-44" transform="translate(732.28125 0)"/>
     <use xlink:href="#DejaVuSans-55" transform="translate(793.5625 0)"/>
     <use xlink:href="#DejaVuSans-4c" transform="translate(834.671875 0)"/>
     <use xlink:href="#DejaVuSans-52" transform="translate(862.453125 0)"/>
    </g>
   </g>
   <g id="legend_1">
    <g id="patch_52">
     <path d="M 679.723437 88.925625 
L 756.690937 88.925625 
Q 758.290937 88.925625 758.290937 87.325625 
L 758.290937 28.1225 
Q 758.290937 26.5225 756.690937 26.5225 
L 679.723437 26.5225 
Q 678.123437 26.5225 678.123437 28.1225 
L 678.123437 87.325625 
Q 678.123437 88.925625 679.723437 88.925625 
z
" style="fill: #ffffff; opacity: 0.8; stroke: #cccccc; stroke-linejoin: miter"/>
    </g>
    <g id="patch_53">
     <path d="M 681.323437 35.80125 
L 697.323437 35.80125 
L 697.323437 30.20125 
L 681.323437 30.20125 
z
" style="fill: #4c72b0"/>
    </g>
    <g id="text_21">
     <!-- C- -_Compiler -->
     <g transform="translate(703.723437 35.80125) scale(0.08 -0.08)">
      <defs>
       <path id="DejaVuSans-26" d="M 4122 4306 
L 4122 3641 
Q 3803 3938 3442 4084 
Q 3081 4231 2675 4231 
Q 1875 4231 1450 3742 
Q 1025 3253 1025 2328 
Q 1025 1406 1450 917 
Q 1875 428 2675 428 
Q 3081 428 3442 575 
Q 3803 722 4122 1019 
L 4122 359 
Q 3791 134 3420 21 
Q 3050 -91 2638 -91 
Q 1578 -91 968 557 
Q 359 1206 359 2328 
Q 359 3453 968 4101 
Q 1578 4750 2638 4750 
Q 3056 4750 3426 4639 
Q 3797 4528 4122 4306 
z
" transform="scale(0.015625)"/>
       <path id="DejaVuSans-10" d="M 313 2009 
L 1997 2009 
L 1997 1497 
L 313 1497 
L 313 2009 
z
" transform="scale(0.015625)"/>
       <path id="DejaVuSans-42" d="M 3263 -1063 
L 3263 -1509 
L -63 -1509 
L -63 -1063 
L 3263 -1063 
z
" transform="scale(0.015625)"/>
      </defs>
      <use xlink:href="#DejaVuSans-26"/>
      <use xlink:href="#DejaVuSans-10" transform="translate(69.828125 0)"/>
      <use xlink:href="#DejaVuSans-10" transform="translate(105.90625 0)"/>
      <use xlink:href="#DejaVuSans-42" transform="translate(141.984375 0)"/>
      <use xlink:href="#DejaVuSans-26" transform="translate(191.984375 0)"/>
      <use xlink:href="#DejaVuSans-52" transform="translate(261.8125 0)"/>
      <use xlink:href="#DejaVuSans-50" transform="translate(323 0)"/>
      <use xlink:href="#DejaVuSans-53" transform="translate(420.40625 0)"/>
      <use xlink:href="#DejaVuSans-4c" transform="translate(483.890625 0)"/>
      <use xlink:href="#DejaVuSans-4f" transform="translate(511.671875 0)"/>
      <use xlink:href="#DejaVuSans-48" transform="translate(539.453125 0)"/>
      <use xlink:href="#DejaVuSans-55" transform="translate(600.984375 0)"/>
     </g>
    </g>
    <g id="patch_54">
     <path d="M 681.323437 47.801875 
L 697.323437 47.801875 
L 697.323437 42.201875 
L 681.323437 42.201875 
z
" style="fill: #55a868"/>
    </g>
    <g id="text_22">
     <!-- GCC_O0 -->
     <g transform="translate(703.723437 47.801875) scale(0.08 -0.08)">
      <defs>
       <path id="DejaVuSans-2a" d="M 3809 666 
L 3809 1919 
L 2778 1919 
L 2778 2438 
L 4434 2438 
L 4434 434 
Q 4069 175 3628 42 
Q 3188 -91 2688 -91 
Q 1594 -91 976 548 
Q 359 1188 359 2328 
Q 359 3472 976 4111 
Q 1594 4750 2688 4750 
Q 3144 4750 3555 4637 
Q 3966 4525 4313 4306 
L 4313 3634 
Q 3963 3931 3569 4081 
Q 3175 4231 2741 4231 
Q 1884 4231 1454 3753 
Q 1025 3275 1025 2328 
Q 1025 1384 1454 906 
Q 1884 428 2741 428 
Q 3075 428 3337 486 
Q 3600 544 3809 666 
z
" transform="scale(0.015625)"/>
       <path id="DejaVuSans-32" d="M 2522 4238 
Q 1834 4238 1429 3725 
Q 1025 3213 1025 2328 
Q 1025 1447 1429 934 
Q 1834 422 2522 422 
Q 3209 422 3611 934 
Q 4013 1447 4013 2328 
Q 4013 3213 3611 3725 
Q 3209 4238 2522 4238 
z
M 2522 4750 
Q 3503 4750 4090 4092 
Q 4678 3434 4678 2328 
Q 4678 1225 4090 567 
Q 3503 -91 2522 -91 
Q 1538 -91 948 565 
Q 359 1222 359 2328 
Q 359 3434 948 4092 
Q 1538 4750 2522 4750 
z
" transform="scale(0.015625)"/>
      </defs>
      <use xlink:href="#DejaVuSans-2a"/>
      <use xlink:href="#DejaVuSans-26" transform="translate(77.484375 0)"/>
      <use xlink:href="#DejaVuSans-26" transform="translate(147.3125 0)"/>
      <use xlink:href="#DejaVuSans-42" transform="translate(217.140625 0)"/>
      <use xlink:href="#DejaVuSans-32" transform="translate(267.140625 0)"/>
      <use xlink:href="#DejaVuSans-13" transform="translate(345.859375 0)"/>
     </g>
    </g>
    <g id="patch_55">
     <path d="M 681.323437 59.8025 
L 697.323437 59.8025 
L 697.323437 54.2025 
L 681.323437 54.2025 
z
" style="fill: #c44e52"/>
    </g>
    <g id="text_23">
     <!-- GCC_O2 -->
     <g transform="translate(703.723437 59.8025) scale(0.08 -0.08)">
      <use xlink:href="#DejaVuSans-2a"/>
      <use xlink:href="#DejaVuSans-26" transform="translate(77.484375 0)"/>
      <use xlink:href="#DejaVuSans-26" transform="translate(147.3125 0)"/>
      <use xlink:href="#DejaVuSans-42" transform="translate(217.140625 0)"/>
      <use xlink:href="#DejaVuSans-32" transform="translate(267.140625 0)"/>
      <use xlink:href="#DejaVuSans-15" transform="translate(345.859375 0)"/>
     </g>
    </g>
    <g id="patch_56">
     <path d="M 681.323437 71.803125 
L 697.323437 71.803125 
L 697.323437 66.203125 
L 681.323437 66.203125 
z
" style="fill: #8172b2"/>
    </g>
    <g id="text_24">
     <!-- Clang_O0 -->
     <g transform="translate(703.723437 71.803125) scale(0.08 -0.08)">
      <defs>
       <path id="DejaVuSans-4a" d="M 2906 1791 
Q 2906 2416 2648 2759 
Q 2391 3103 1925 3103 
Q 1463 3103 1205 2759 
Q 947 2416 947 1791 
Q 947 1169 1205 825 
Q 1463 481 1925 481 
Q 2391 481 2648 825 
Q 2906 1169 2906 1791 
z
M 3481 434 
Q 3481 -459 3084 -895 
Q 2688 -1331 1869 -1331 
Q 1566 -1331 1297 -1286 
Q 1028 -1241 775 -1147 
L 775 -588 
Q 1028 -725 1275 -790 
Q 1522 -856 1778 -856 
Q 2344 -856 2625 -561 
Q 2906 -266 2906 331 
L 2906 616 
Q 2728 306 2450 153 
Q 2172 0 1784 0 
Q 1141 0 747 490 
Q 353 981 353 1791 
Q 353 2603 747 3093 
Q 1141 3584 1784 3584 
Q 2172 3584 2450 3431 
Q 2728 3278 2906 2969 
L 2906 3500 
L 3481 3500 
L 3481 434 
z
" transform="scale(0.015625)"/>
      </defs>
      <use xlink:href="#DejaVuSans-26"/>
      <use xlink:href="#DejaVuSans-4f" transform="translate(69.828125 0)"/>
      <use xlink:href="#DejaVuSans-44" transform="translate(97.609375 0)"/>
      <use xlink:href="#DejaVuSans-51" transform="translate(158.890625 0)"/>
      <use xlink:href="#DejaVuSans-4a" transform="translate(222.265625 0)"/>
      <use xlink:href="#DejaVuSans-42" transform="translate(285.75 0)"/>
      <use xlink:href="#DejaVuSans-32" transform="translate(335.75 0)"/>
      <use xlink:href="#DejaVuSans-13" transform="translate(414.46875 0)"/>
     </g>
    </g>
    <g id="patch_57">
     <path d="M 681.323437 83.80375 
L 697.323437 83.80375 
L 697.323437 78.20375 
L 681.323437 78.20375 
z
" style="fill: #ccb974"/>
    </g>
    <g id="text_25">
     <!-- Clang_O2 -->
     <g transform="translate(703.723437 83.80375) scale(0.08 -0.08)">
      <use xlink:href="#DejaVuSans-26"/>
      <use xlink:href="#DejaVuSans-4f" transform="translate(69.828125 0)"/>
      <use xlink:href="#DejaVuSans-44" transform="translate(97.609375 0)"/>
      <use xlink:href="#DejaVuSans-51" transform="translate(158.890625 0)"/>
      <use xlink:href="#DejaVuSans-4a" transform="translate(222.265625 0)"/>
      <use xlink:href="#DejaVuSans-42" transform="translate(285.75 0)"/>
      <use xlink:href="#DejaVuSans-32" transform="translate(335.75 0)"/>
      <use xlink:href="#DejaVuSans-15" transform="translate(414.46875 0)"/>
     </g>
    </g>
   </g>
  </g>
 </g>
 <defs>
  <clipPath id="pbd27e324d5">
   <rect x="60.013281" y="22.5225" width="702.277656" height="284.385405"/>
  </clipPath>
 </defs>
</svg>
