<?xml version="1.0" encoding="utf-8" standalone="no"?>
<!DOCTYPE svg PUBLIC "-//W3C//DTD SVG 1.1//EN"
  "http://www.w3.org/Graphics/SVG/1.1/DTD/svg11.dtd">
<svg xmlns:xlink="http://www.w3.org/1999/xlink" width="568.218437pt" height="350.518489pt" viewBox="0 0 568.218437 350.518489" xmlns="http://www.w3.org/2000/svg" version="1.1">
 <metadata>
  <rdf:RDF xmlns:dc="http://purl.org/dc/elements/1.1/" xmlns:cc="http://creativecommons.org/ns#" xmlns:rdf="http://www.w3.org/1999/02/22-rdf-syntax-ns#">
   <cc:Work>
    <dc:type rdf:resource="http://purl.org/dc/dcmitype/StillImage"/>
    <dc:date>2026-07-03T12:54:25.749930</dc:date>
    <dc:format>image/svg+xml</dc:format>
    <dc:creator>
     <cc:Agent>
      <dc:title>Matplotlib v3.11.0, https://matplotlib.org/</dc:title>
     </cc:Agent>
    </dc:creator>
   </cc:Work>
  </rdf:RDF>
 </metadata>
 <defs>
  <style type="text/css">*{stroke-linejoin: round; stroke-linecap: butt}</style>
 </defs>
 <g id="figure_1">
  <g id="patch_1">
   <path d="M 0 350.518489 
L 568.218437 350.518489 
L 568.218437 0 
L 0 0 
z
" style="fill: #ffffff"/>
  </g>
  <g id="axes_1">
   <g id="patch_2">
    <path d="M 51.700781 313.462088 
L 561.018437 313.462088 
L 561.018437 22.798125 
L 51.700781 22.798125 
z
" style="fill: #ffffff"/>
   </g>
   <g id="matplotlib.axis_1">
    <g id="xtick_1">
     <g id="line2d_1">
      <defs>
       <path id="m978eaeacd3" d="M 0 0 
L 0 3.5 
" style="stroke: #000000; stroke-width: 0.8"/>
      </defs>
      <g>
       <use xlink:href="#m978eaeacd3" x="106.323873" y="313.462088" style="stroke: #000000; stroke-width: 0.8"/>
      </g>
     </g>
     <g id="text_1">
      <!-- fib -->
      <g transform="translate(95.094361 331.470279) rotate(-25) scale(0.09 -0.09)">
       <defs>
        <path id="DejaVuSans-13af" d="M 3431 3500 
L 3431 0 
L 2853 0 
L 2853 3053 
L 1275 3053 
L 1275 0 
L 697 0 
L 697 3053 
L 147 3053 
L 147 3500 
L 697 3500 
L 697 3744 
Q 697 4316 967 4589 
Q 1238 4863 1797 4863 
L 2375 4863 
L 2375 4384 
L 1825 4384 
Q 1516 4384 1395 4259 
Q 1275 4134 1275 3809 
L 1275 3500 
L 3431 3500 
z
M 2853 4856 
L 3431 4856 
L 3431 4128 
L 2853 4128 
L 2853 4856 
z
" transform="scale(0.015625)"/>
        <path id="DejaVuSans-45" d="M 3116 1747 
Q 3116 2381 2855 2742 
Q 2594 3103 2138 3103 
Q 1681 3103 1420 2742 
Q 1159 2381 1159 1747 
Q 1159 1113 1420 752 
Q 1681 391 2138 391 
Q 2594 391 2855 752 
Q 3116 1113 3116 1747 
z
M 1159 2969 
Q 1341 3281 1617 3432 
Q 1894 3584 2278 3584 
Q 2916 3584 3314 3078 
Q 3713 2572 3713 1747 
Q 3713 922 3314 415 
Q 2916 -91 2278 -91 
Q 1894 -91 1617 61 
Q 1341 213 1159 525 
L 1159 0 
L 581 0 
L 581 4863 
L 1159 4863 
L 1159 2969 
z
" transform="scale(0.015625)"/>
       </defs>
       <use xlink:href="#DejaVuSans-13af"/>
       <use xlink:href="#DejaVuSans-45" transform="translate(62.984375 0)"/>
      </g>
     </g>
    </g>
    <g id="xtick_2">
     <g id="line2d_2">
      <g>
       <use xlink:href="#m978eaeacd3" x="186.338168" y="313.462088" style="stroke: #000000; stroke-width: 0.8"/>
      </g>
     </g>
     <g id="text_2">
      <!-- matmul -->
      <g transform="translate(153.902328 341.358952) rotate(-25) scale(0.09 -0.09)">
       <defs>
        <path id="DejaVuSans-50" d="M 3328 2828 
Q 3544 3216 3844 3400 
Q 4144 3584 4550 3584 
Q 5097 3584 5394 3201 
Q 5691 2819 5691 2113 
L 5691 0 
L 5113 0 
L 5113 2094 
Q 5113 2597 4934 2840 
Q 4756 3084 4391 3084 
Q 3944 3084 3684 2787 
Q 3425 2491 3425 1978 
L 3425 0 
L 2847 0 
L 2847 2094 
Q 2847 2600 2669 2842 
Q 2491 3084 2119 3084 
Q 1678 3084 1418 2786 
Q 1159 2488 1159 1978 
L 1159 0 
L 581 0 
L 581 3500 
L 1159 3500 
L 1159 2956 
Q 1356 3278 1631 3431 
Q 1906 3584 2284 3584 
Q 2666 3584 2933 3390 
Q 3200 3197 3328 2828 
z
" transform="scale(0.015625)"/>
        <path id="DejaVuSans-44" d="M 2194 1759 
Q 1497 1759 1228 1600 
Q 959 1441 959 1056 
Q 959 750 1161 570 
Q 1363 391 1709 391 
Q 2188 391 2477 730 
Q 2766 1069 2766 1631 
L 2766 1759 
L 2194 1759 
z
M 3341 1997 
L 3341 0 
L 2766 0 
L 2766 531 
Q 2569 213 2275 61 
Q 1981 -91 1556 -91 
Q 1019 -91 701 211 
Q 384 513 384 1019 
Q 384 1609 779 1909 
Q 1175 2209 1959 2209 
L 2766 2209 
L 2766 2266 
Q 2766 2663 2505 2880 
Q 2244 3097 1772 3097 
Q 1472 3097 1187 3025 
Q 903 2953 641 2809 
L 641 3341 
Q 956 3463 1253 3523 
Q 1550 3584 1831 3584 
Q 2591 3584 2966 3190 
Q 3341 2797 3341 1997 
z
" transform="scale(0.015625)"/>
        <path id="DejaVuSans-57" d="M 1172 4494 
L 1172 3500 
L 2356 3500 
L 2356 3053 
L 1172 3053 
L 1172 1153 
Q 1172 725 1289 603 
Q 1406 481 1766 481 
L 2356 481 
L 2356 0 
L 1766 0 
Q 1100 0 847 248 
Q 594 497 594 1153 
L 594 3053 
L 172 3053 
L 172 3500 
L 594 3500 
L 594 4494 
L 1172 4494 
z
" transform="scale(0.015625)"/>
        <path id="DejaVuSans-58" d="M 544 1381 
L 544 3500 
L 1119 3500 
L 1119 1403 
Q 1119 906 1312 657 
Q 1506 409 1894 409 
Q 2359 409 2629 706 
Q 2900 1003 2900 1516 
L 2900 3500 
L 3475 3500 
L 3475 0 
L 2900 0 
L 2900 538 
Q 2691 219 2414 64 
Q 2138 -91 1772 -91 
Q 1169 -91 856 284 
Q 544 659 544 1381 
z
M 1991 3584 
L 1991 3584 
z
" transform="scale(0.015625)"/>
        <path id="DejaVuSans-4f" d="M 603 4863 
L 1178 4863 
L 1178 0 
L 603 0 
L 603 4863 
z
" transform="scale(0.015625)"/>
       </defs>
       <use xlink:href="#DejaVuSans-50"/>
       <use xlink:href="#DejaVuSans-44" transform="translate(97.40625 0)"/>
       <use xlink:href="#DejaVuSans-57" transform="translate(158.6875 0)"/>
       <use xlink:href="#DejaVuSans-50" transform="translate(197.890625 0)"/>
       <use xlink:href="#DejaVuSans-58" transform="translate(295.296875 0)"/>
       <use xlink:href="#DejaVuSans-4f" transform="translate(358.671875 0)"/>
      </g>
     </g>
    </g>
    <g id="xtick_3">
     <g id="line2d_3">
      <g>
       <use xlink:href="#m978eaeacd3" x="266.352462" y="313.462088" style="stroke: #000000; stroke-width: 0.8"/>
      </g>
     </g>
     <g id="text_3">
      <!-- float -->
      <g transform="translate(247.114021 335.204904) rotate(-25) scale(0.09 -0.09)">
       <defs>
        <path id="DejaVuSans-13b0" d="M 1831 4863 
L 3431 4863 
L 3431 0 
L 2853 0 
L 2853 4384 
L 1825 4384 
Q 1516 4384 1395 4259 
Q 1275 4134 1275 3809 
L 1275 3500 
L 2222 3500 
L 2222 3053 
L 1275 3053 
L 1275 0 
L 697 0 
L 697 3053 
L 147 3053 
L 147 3500 
L 697 3500 
L 697 3744 
Q 697 4328 969 4595 
Q 1241 4863 1831 4863 
z
" transform="scale(0.015625)"/>
        <path id="DejaVuSans-52" d="M 1959 3097 
Q 1497 3097 1228 2736 
Q 959 2375 959 1747 
Q 959 1119 1226 758 
Q 1494 397 1959 397 
Q 2419 397 2687 759 
Q 2956 1122 2956 1747 
Q 2956 2369 2687 2733 
Q 2419 3097 1959 3097 
z
M 1959 3584 
Q 2709 3584 3137 3096 
Q 3566 2609 3566 1747 
Q 3566 888 3137 398 
Q 2709 -91 1959 -91 
Q 1206 -91 779 398 
Q 353 888 353 1747 
Q 353 2609 779 3096 
Q 1206 3584 1959 3584 
z
" transform="scale(0.015625)"/>
       </defs>
       <use xlink:href="#DejaVuSans-13b0"/>
       <use xlink:href="#DejaVuSans-52" transform="translate(62.984375 0)"/>
       <use xlink:href="#DejaVuSans-44" transform="translate(124.171875 0)"/>
       <use xlink:href="#DejaVuSans-57" transform="translate(185.453125 0)"/>
      </g>
     </g>
    </g>
    <g id="xtick_4">
     <g id="line2d_4">
      <g>
       <use xlink:href="#m978eaeacd3" x="346.366757" y="313.462088" style="stroke: #000000; stroke-width: 0.8"/>
      </g>
     </g>
     <g id="text_4">
      <!-- struct -->
      <g transform="translate(321.800925 337.68847) rotate(-25) scale(0.09 -0.09)">
       <defs>
        <path id="DejaVuSans-56" d="M 2834 3397 
L 2834 2853 
Q 2591 2978 2328 3040 
Q 2066 3103 1784 3103 
Q 1356 3103 1142 2972 
Q 928 2841 928 2578 
Q 928 2378 1081 2264 
Q 1234 2150 1697 2047 
L 1894 2003 
Q 2506 1872 2764 1633 
Q 3022 1394 3022 966 
Q 3022 478 2636 193 
Q 2250 -91 1575 -91 
Q 1294 -91 989 -36 
Q 684 19 347 128 
L 347 722 
Q 666 556 975 473 
Q 1284 391 1588 391 
Q 1994 391 2212 530 
Q 2431 669 2431 922 
Q 2431 1156 2273 1281 
Q 2116 1406 1581 1522 
L 1381 1569 
Q 847 1681 609 1914 
Q 372 2147 372 2553 
Q 372 3047 722 3315 
Q 1072 3584 1716 3584 
Q 2034 3584 2315 3537 
Q 2597 3491 2834 3397 
z
" transform="scale(0.015625)"/>
        <path id="DejaVuSans-55" d="M 2631 2963 
Q 2534 3019 2420 3045 
Q 2306 3072 2169 3072 
Q 1681 3072 1420 2755 
Q 1159 2438 1159 1844 
L 1159 0 
L 581 0 
L 581 3500 
L 1159 3500 
L 1159 2956 
Q 1341 3275 1631 3429 
Q 1922 3584 2338 3584 
Q 2397 3584 2469 3576 
Q 2541 3569 2628 3553 
L 2631 2963 
z
" transform="scale(0.015625)"/>
        <path id="DejaVuSans-46" d="M 3122 3366 
L 3122 2828 
Q 2878 2963 2633 3030 
Q 2388 3097 2138 3097 
Q 1578 3097 1268 2742 
Q 959 2388 959 1747 
Q 959 1106 1268 751 
Q 1578 397 2138 397 
Q 2388 397 2633 464 
Q 2878 531 3122 666 
L 3122 134 
Q 2881 22 2623 -34 
Q 2366 -91 2075 -91 
Q 1284 -91 818 406 
Q 353 903 353 1747 
Q 353 2603 823 3093 
Q 1294 3584 2113 3584 
Q 2378 3584 2631 3529 
Q 2884 3475 3122 3366 
z
" transform="scale(0.015625)"/>
       </defs>
       <use xlink:href="#DejaVuSans-56"/>
       <use xlink:href="#DejaVuSans-57" transform="translate(52.09375 0)"/>
       <use xlink:href="#DejaVuSans-55" transform="translate(91.296875 0)"/>
       <use xlink:href="#DejaVuSans-58" transform="translate(132.40625 0)"/>
       <use xlink:href="#DejaVuSans-46" transform="translate(195.78125 0)"/>
       <use xlink:href="#DejaVuSans-57" transform="translate(250.765625 0)"/>
      </g>
     </g>
    </g>
    <g id="xtick_5">
     <g id="line2d_5">
      <g>
       <use xlink:href="#m978eaeacd3" x="426.381051" y="313.462088" style="stroke: #000000; stroke-width: 0.8"/>
      </g>
     </g>
     <g id="text_5">
      <!-- prime -->
      <g transform="translate(401.705613 337.740217) rotate(-25) scale(0.09 -0.09)">
       <defs>
        <path id="DejaVuSans-53" d="M 1159 525 
L 1159 -1331 
L 581 -1331 
L 581 3500 
L 1159 3500 
L 1159 2969 
Q 1341 3281 1617 3432 
Q 1894 3584 2278 3584 
Q 2916 3584 3314 3078 
Q 3713 2572 3713 1747 
Q 3713 922 3314 415 
Q 2916 -91 2278 -91 
Q 1894 -91 1617 61 
Q 1341 213 1159 525 
z
M 3116 1747 
Q 3116 2381 2855 2742 
Q 2594 3103 2138 3103 
Q 1681 3103 1420 2742 
Q 1159 2381 1159 1747 
Q 1159 1113 1420 752 
Q 1681 391 2138 391 
Q 2594 391 2855 752 
Q 3116 1113 3116 1747 
z
" transform="scale(0.015625)"/>
        <path id="DejaVuSans-4c" d="M 603 3500 
L 1178 3500 
L 1178 0 
L 603 0 
L 603 3500 
z
M 603 4863 
L 1178 4863 
L 1178 4134 
L 603 4134 
L 603 4863 
z
" transform="scale(0.015625)"/>
        <path id="DejaVuSans-48" d="M 3597 1894 
L 3597 1613 
L 953 1613 
Q 991 1019 1311 708 
Q 1631 397 2203 397 
Q 2534 397 2845 478 
Q 3156 559 3463 722 
L 3463 178 
Q 3153 47 2828 -22 
Q 2503 -91 2169 -91 
Q 1331 -91 842 396 
Q 353 884 353 1716 
Q 353 2575 817 3079 
Q 1281 3584 2069 3584 
Q 2775 3584 3186 3129 
Q 3597 2675 3597 1894 
z
M 3022 2063 
Q 3016 2534 2758 2815 
Q 2500 3097 2075 3097 
Q 1594 3097 1305 2825 
Q 1016 2553 972 2059 
L 3022 2063 
z
" transform="scale(0.015625)"/>
       </defs>
       <use xlink:href="#DejaVuSans-53"/>
       <use xlink:href="#DejaVuSans-55" transform="translate(63.484375 0)"/>
       <use xlink:href="#DejaVuSans-4c" transform="translate(104.59375 0)"/>
       <use xlink:href="#DejaVuSans-50" transform="translate(132.375 0)"/>
       <use xlink:href="#DejaVuSans-48" transform="translate(229.78125 0)"/>
      </g>
     </g>
    </g>
    <g id="xtick_6">
     <g id="line2d_6">
      <g>
       <use xlink:href="#m978eaeacd3" x="506.395346" y="313.462088" style="stroke: #000000; stroke-width: 0.8"/>
      </g>
     </g>
     <g id="text_6">
      <!-- mixed -->
      <g transform="translate(480.496392 338.310752) rotate(-25) scale(0.09 -0.09)">
       <defs>
        <path id="DejaVuSans-5b" d="M 3513 3500 
L 2247 1797 
L 3578 0 
L 2900 0 
L 1881 1375 
L 863 0 
L 184 0 
L 1544 1831 
L 300 3500 
L 978 3500 
L 1906 2253 
L 2834 3500 
L 3513 3500 
z
" transform="scale(0.015625)"/>
        <path id="DejaVuSans-47" d="M 2906 2969 
L 2906 4863 
L 3481 4863 
L 3481 0 
L 2906 0 
L 2906 525 
Q 2725 213 2448 61 
Q 2172 -91 1784 -91 
Q 1150 -91 751 415 
Q 353 922 353 1747 
Q 353 2572 751 3078 
Q 1150 3584 1784 3584 
Q 2172 3584 2448 3432 
Q 2725 3281 2906 2969 
z
M 947 1747 
Q 947 1113 1208 752 
Q 1469 391 1925 391 
Q 2381 391 2643 752 
Q 2906 1113 2906 1747 
Q 2906 2381 2643 2742 
Q 2381 3103 1925 3103 
Q 1469 3103 1208 2742 
Q 947 2381 947 1747 
z
" transform="scale(0.015625)"/>
       </defs>
       <use xlink:href="#DejaVuSans-50"/>
       <use xlink:href="#DejaVuSans-4c" transform="translate(97.40625 0)"/>
       <use xlink:href="#DejaVuSans-5b" transform="translate(125.1875 0)"/>
       <use xlink:href="#DejaVuSans-48" transform="translate(181.296875 0)"/>
       <use xlink:href="#DejaVuSans-47" transform="translate(242.828125 0)"/>
      </g>
     </g>
    </g>
   </g>
   <g id="matplotlib.axis_2">
    <g id="ytick_1">
     <g id="line2d_7">
      <path d="M 51.700781 302.549049 
L 561.018437 302.549049 
" clip-path="url(#p6891123820)" style="fill: none; stroke-dasharray: 0.8,1.32; stroke-dashoffset: 0; stroke: #b0b0b0; stroke-opacity: 0.4; stroke-width: 0.8"/>
     </g>
     <g id="line2d_8">
      <defs>
       <path id="m243d167c67" d="M 0 0 
L -3.5 0 
" style="stroke: #000000; stroke-width: 0.8"/>
      </defs>
      <g>
       <use xlink:href="#m243d167c67" x="51.700781" y="302.549049" style="stroke: #000000; stroke-width: 0.8"/>
      </g>
     </g>
     <g id="text_7">
      <!-- $\mathdefault{10^{-3}}$ -->
      <g transform="translate(21.200781 307.249049) scale(0.1 -0.1)">
       <defs>
        <path id="DejaVuSans-14" d="M 794 531 
L 1825 531 
L 1825 4091 
L 703 3866 
L 703 4441 
L 1819 4666 
L 2450 4666 
L 2450 531 
L 3481 531 
L 3481 0 
L 794 0 
L 794 531 
z
" transform="scale(0.015625)"/>
        <path id="DejaVuSans-13" d="M 2034 4250 
Q 1547 4250 1301 3770 
Q 1056 3291 1056 2328 
Q 1056 1369 1301 889 
Q 1547 409 2034 409 
Q 2525 409 2770 889 
Q 3016 1369 3016 2328 
Q 3016 3291 2770 3770 
Q 2525 4250 2034 4250 
z
M 2034 4750 
Q 2819 4750 3233 4129 
Q 3647 3509 3647 2328 
Q 3647 1150 3233 529 
Q 2819 -91 2034 -91 
Q 1250 -91 836 529 
Q 422 1150 422 2328 
Q 422 3509 836 4129 
Q 1250 4750 2034 4750 
z
" transform="scale(0.015625)"/>
        <path id="DejaVuSans-c9c" d="M 678 2272 
L 4684 2272 
L 4684 1741 
L 678 1741 
L 678 2272 
z
" transform="scale(0.015625)"/>
        <path id="DejaVuSans-16" d="M 2597 2516 
Q 3050 2419 3304 2112 
Q 3559 1806 3559 1356 
Q 3559 666 3084 287 
Q 2609 -91 1734 -91 
Q 1441 -91 1130 -33 
Q 819 25 488 141 
L 488 750 
Q 750 597 1062 519 
Q 1375 441 1716 441 
Q 2309 441 2620 675 
Q 2931 909 2931 1356 
Q 2931 1769 2642 2001 
Q 2353 2234 1838 2234 
L 1294 2234 
L 1294 2753 
L 1863 2753 
Q 2328 2753 2575 2939 
Q 2822 3125 2822 3475 
Q 2822 3834 2567 4026 
Q 2313 4219 1838 4219 
Q 1578 4219 1281 4162 
Q 984 4106 628 3988 
L 628 4550 
Q 988 4650 1302 4700 
Q 1616 4750 1894 4750 
Q 2613 4750 3031 4423 
Q 3450 4097 3450 3541 
Q 3450 3153 3228 2886 
Q 3006 2619 2597 2516 
z
" transform="scale(0.015625)"/>
       </defs>
       <use xlink:href="#DejaVuSans-14" transform="translate(0 0.746875)"/>
       <use xlink:href="#DejaVuSans-13" transform="translate(63.623047 0.746875)"/>
       <use xlink:href="#DejaVuSans-c9c" transform="translate(128.203125 42.046875) scale(0.7)"/>
       <use xlink:href="#DejaVuSans-16" transform="translate(186.855469 42.046875) scale(0.7)"/>
      </g>
     </g>
    </g>
    <g id="ytick_2">
     <g id="line2d_9">
      <path d="M 51.700781 205.398652 
L 561.018437 205.398652 
" clip-path="url(#p6891123820)" style="fill: none; stroke-dasharray: 0.8,1.32; stroke-dashoffset: 0; stroke: #b0b0b0; stroke-opacity: 0.4; stroke-width: 0.8"/>
     </g>
     <g id="line2d_10">
      <g>
       <use xlink:href="#m243d167c67" x="51.700781" y="205.398652" style="stroke: #000000; stroke-width: 0.8"/>
      </g>
     </g>
     <g id="text_8">
      <!-- $\mathdefault{10^{-2}}$ -->
      <g transform="translate(21.200781 210.098652) scale(0.1 -0.1)">
       <defs>
        <path id="DejaVuSans-15" d="M 1228 531 
L 3431 531 
L 3431 0 
L 469 0 
L 469 531 
Q 828 903 1448 1529 
Q 2069 2156 2228 2338 
Q 2531 2678 2651 2914 
Q 2772 3150 2772 3378 
Q 2772 3750 2511 3984 
Q 2250 4219 1831 4219 
Q 1534 4219 1204 4116 
Q 875 4013 500 3803 
L 500 4441 
Q 881 4594 1212 4672 
Q 1544 4750 1819 4750 
Q 2544 4750 2975 4387 
Q 3406 4025 3406 3419 
Q 3406 3131 3298 2873 
Q 3191 2616 2906 2266 
Q 2828 2175 2409 1742 
Q 1991 1309 1228 531 
z
" transform="scale(0.015625)"/>
       </defs>
       <use xlink:href="#DejaVuSans-14" transform="translate(0 0.746875)"/>
       <use xlink:href="#DejaVuSans-13" transform="translate(63.623047 0.746875)"/>
       <use xlink:href="#DejaVuSans-c9c" transform="translate(128.203125 42.046875) scale(0.7)"/>
       <use xlink:href="#DejaVuSans-15" transform="translate(186.855469 42.046875) scale(0.7)"/>
      </g>
     </g>
    </g>
    <g id="ytick_3">
     <g id="line2d_11">
      <path d="M 51.700781 108.248256 
L 561.018437 108.248256 
" clip-path="url(#p6891123820)" style="fill: none; stroke-dasharray: 0.8,1.32; stroke-dashoffset: 0; stroke: #b0b0b0; stroke-opacity: 0.4; stroke-width: 0.8"/>
     </g>
     <g id="line2d_12">
      <g>
       <use xlink:href="#m243d167c67" x="51.700781" y="108.248256" style="stroke: #000000; stroke-width: 0.8"/>
      </g>
     </g>
     <g id="text_9">
      <!-- $\mathdefault{10^{-1}}$ -->
      <g transform="translate(21.200781 112.898256) scale(0.1 -0.1)">
       <use xlink:href="#DejaVuSans-14" transform="translate(0 0.665625)"/>
       <use xlink:href="#DejaVuSans-13" transform="translate(63.623047 0.665625)"/>
       <use xlink:href="#DejaVuSans-c9c" transform="translate(128.203125 41.965625) scale(0.7)"/>
       <use xlink:href="#DejaVuSans-14" transform="translate(186.855469 41.965625) scale(0.7)"/>
      </g>
     </g>
    </g>
    <g id="ytick_4">
     <g id="line2d_13">
      <path d="M 51.700781 311.963895 
L 561.018437 311.963895 
" clip-path="url(#p6891123820)" style="fill: none; stroke-dasharray: 0.8,1.32; stroke-dashoffset: 0; stroke: #b0b0b0; stroke-opacity: 0.4; stroke-width: 0.8"/>
     </g>
     <g id="line2d_14">
      <defs>
       <path id="me90f2894e1" d="M 0 0 
L -2 0 
" style="stroke: #000000; stroke-width: 0.6"/>
      </defs>
      <g>
       <use xlink:href="#me90f2894e1" x="51.700781" y="311.963895" style="stroke: #000000; stroke-width: 0.6"/>
      </g>
     </g>
    </g>
    <g id="ytick_5">
     <g id="line2d_15">
      <path d="M 51.700781 306.994407 
L 561.018437 306.994407 
" clip-path="url(#p6891123820)" style="fill: none; stroke-dasharray: 0.8,1.32; stroke-dashoffset: 0; stroke: #b0b0b0; stroke-opacity: 0.4; stroke-width: 0.8"/>
     </g>
     <g id="line2d_16">
      <g>
       <use xlink:href="#me90f2894e1" x="51.700781" y="306.994407" style="stroke: #000000; stroke-width: 0.6"/>
      </g>
     </g>
    </g>
    <g id="ytick_6">
     <g id="line2d_17">
      <path d="M 51.700781 273.303865 
L 561.018437 273.303865 
" clip-path="url(#p6891123820)" style="fill: none; stroke-dasharray: 0.8,1.32; stroke-dashoffset: 0; stroke: #b0b0b0; stroke-opacity: 0.4; stroke-width: 0.8"/>
     </g>
     <g id="line2d_18">
      <g>
       <use xlink:href="#me90f2894e1" x="51.700781" y="273.303865" style="stroke: #000000; stroke-width: 0.6"/>
      </g>
     </g>
    </g>
    <g id="ytick_7">
     <g id="line2d_19">
      <path d="M 51.700781 256.19653 
L 561.018437 256.19653 
" clip-path="url(#p6891123820)" style="fill: none; stroke-dasharray: 0.8,1.32; stroke-dashoffset: 0; stroke: #b0b0b0; stroke-opacity: 0.4; stroke-width: 0.8"/>
     </g>
     <g id="line2d_20">
      <g>
       <use xlink:href="#me90f2894e1" x="51.700781" y="256.19653" style="stroke: #000000; stroke-width: 0.6"/>
      </g>
     </g>
    </g>
    <g id="ytick_8">
     <g id="line2d_21">
      <path d="M 51.700781 244.058682 
L 561.018437 244.058682 
" clip-path="url(#p6891123820)" style="fill: none; stroke-dasharray: 0.8,1.32; stroke-dashoffset: 0; stroke: #b0b0b0; stroke-opacity: 0.4; stroke-width: 0.8"/>
     </g>
     <g id="line2d_22">
      <g>
       <use xlink:href="#me90f2894e1" x="51.700781" y="244.058682" style="stroke: #000000; stroke-width: 0.6"/>
      </g>
     </g>
    </g>
    <g id="ytick_9">
     <g id="line2d_23">
      <path d="M 51.700781 234.643836 
L 561.018437 234.643836 
" clip-path="url(#p6891123820)" style="fill: none; stroke-dasharray: 0.8,1.32; stroke-dashoffset: 0; stroke: #b0b0b0; stroke-opacity: 0.4; stroke-width: 0.8"/>
     </g>
     <g id="line2d_24">
      <g>
       <use xlink:href="#me90f2894e1" x="51.700781" y="234.643836" style="stroke: #000000; stroke-width: 0.6"/>
      </g>
     </g>
    </g>
    <g id="ytick_10">
     <g id="line2d_25">
      <path d="M 51.700781 226.951346 
L 561.018437 226.951346 
" clip-path="url(#p6891123820)" style="fill: none; stroke-dasharray: 0.8,1.32; stroke-dashoffset: 0; stroke: #b0b0b0; stroke-opacity: 0.4; stroke-width: 0.8"/>
     </g>
     <g id="line2d_26">
      <g>
       <use xlink:href="#me90f2894e1" x="51.700781" y="226.951346" style="stroke: #000000; stroke-width: 0.6"/>
      </g>
     </g>
    </g>
    <g id="ytick_11">
     <g id="line2d_27">
      <path d="M 51.700781 220.447439 
L 561.018437 220.447439 
" clip-path="url(#p6891123820)" style="fill: none; stroke-dasharray: 0.8,1.32; stroke-dashoffset: 0; stroke: #b0b0b0; stroke-opacity: 0.4; stroke-width: 0.8"/>
     </g>
     <g id="line2d_28">
      <g>
       <use xlink:href="#me90f2894e1" x="51.700781" y="220.447439" style="stroke: #000000; stroke-width: 0.6"/>
      </g>
     </g>
    </g>
    <g id="ytick_12">
     <g id="line2d_29">
      <path d="M 51.700781 214.813498 
L 561.018437 214.813498 
" clip-path="url(#p6891123820)" style="fill: none; stroke-dasharray: 0.8,1.32; stroke-dashoffset: 0; stroke: #b0b0b0; stroke-opacity: 0.4; stroke-width: 0.8"/>
     </g>
     <g id="line2d_30">
      <g>
       <use xlink:href="#me90f2894e1" x="51.700781" y="214.813498" style="stroke: #000000; stroke-width: 0.6"/>
      </g>
     </g>
    </g>
    <g id="ytick_13">
     <g id="line2d_31">
      <path d="M 51.700781 209.844011 
L 561.018437 209.844011 
" clip-path="url(#p6891123820)" style="fill: none; stroke-dasharray: 0.8,1.32; stroke-dashoffset: 0; stroke: #b0b0b0; stroke-opacity: 0.4; stroke-width: 0.8"/>
     </g>
     <g id="line2d_32">
      <g>
       <use xlink:href="#me90f2894e1" x="51.700781" y="209.844011" style="stroke: #000000; stroke-width: 0.6"/>
      </g>
     </g>
    </g>
    <g id="ytick_14">
     <g id="line2d_33">
      <path d="M 51.700781 176.153469 
L 561.018437 176.153469 
" clip-path="url(#p6891123820)" style="fill: none; stroke-dasharray: 0.8,1.32; stroke-dashoffset: 0; stroke: #b0b0b0; stroke-opacity: 0.4; stroke-width: 0.8"/>
     </g>
     <g id="line2d_34">
      <g>
       <use xlink:href="#me90f2894e1" x="51.700781" y="176.153469" style="stroke: #000000; stroke-width: 0.6"/>
      </g>
     </g>
    </g>
    <g id="ytick_15">
     <g id="line2d_35">
      <path d="M 51.700781 159.046133 
L 561.018437 159.046133 
" clip-path="url(#p6891123820)" style="fill: none; stroke-dasharray: 0.8,1.32; stroke-dashoffset: 0; stroke: #b0b0b0; stroke-opacity: 0.4; stroke-width: 0.8"/>
     </g>
     <g id="line2d_36">
      <g>
       <use xlink:href="#me90f2894e1" x="51.700781" y="159.046133" style="stroke: #000000; stroke-width: 0.6"/>
      </g>
     </g>
    </g>
    <g id="ytick_16">
     <g id="line2d_37">
      <path d="M 51.700781 146.908285 
L 561.018437 146.908285 
" clip-path="url(#p6891123820)" style="fill: none; stroke-dasharray: 0.8,1.32; stroke-dashoffset: 0; stroke: #b0b0b0; stroke-opacity: 0.4; stroke-width: 0.8"/>
     </g>
     <g id="line2d_38">
      <g>
       <use xlink:href="#me90f2894e1" x="51.700781" y="146.908285" style="stroke: #000000; stroke-width: 0.6"/>
      </g>
     </g>
    </g>
    <g id="ytick_17">
     <g id="line2d_39">
      <path d="M 51.700781 137.493439 
L 561.018437 137.493439 
" clip-path="url(#p6891123820)" style="fill: none; stroke-dasharray: 0.8,1.32; stroke-dashoffset: 0; stroke: #b0b0b0; stroke-opacity: 0.4; stroke-width: 0.8"/>
     </g>
     <g id="line2d_40">
      <g>
       <use xlink:href="#me90f2894e1" x="51.700781" y="137.493439" style="stroke: #000000; stroke-width: 0.6"/>
      </g>
     </g>
    </g>
    <g id="ytick_18">
     <g id="line2d_41">
      <path d="M 51.700781 129.80095 
L 561.018437 129.80095 
" clip-path="url(#p6891123820)" style="fill: none; stroke-dasharray: 0.8,1.32; stroke-dashoffset: 0; stroke: #b0b0b0; stroke-opacity: 0.4; stroke-width: 0.8"/>
     </g>
     <g id="line2d_42">
      <g>
       <use xlink:href="#me90f2894e1" x="51.700781" y="129.80095" style="stroke: #000000; stroke-width: 0.6"/>
      </g>
     </g>
    </g>
    <g id="ytick_19">
     <g id="line2d_43">
      <path d="M 51.700781 123.297043 
L 561.018437 123.297043 
" clip-path="url(#p6891123820)" style="fill: none; stroke-dasharray: 0.8,1.32; stroke-dashoffset: 0; stroke: #b0b0b0; stroke-opacity: 0.4; stroke-width: 0.8"/>
     </g>
     <g id="line2d_44">
      <g>
       <use xlink:href="#me90f2894e1" x="51.700781" y="123.297043" style="stroke: #000000; stroke-width: 0.6"/>
      </g>
     </g>
    </g>
    <g id="ytick_20">
     <g id="line2d_45">
      <path d="M 51.700781 117.663102 
L 561.018437 117.663102 
" clip-path="url(#p6891123820)" style="fill: none; stroke-dasharray: 0.8,1.32; stroke-dashoffset: 0; stroke: #b0b0b0; stroke-opacity: 0.4; stroke-width: 0.8"/>
     </g>
     <g id="line2d_46">
      <g>
       <use xlink:href="#me90f2894e1" x="51.700781" y="117.663102" style="stroke: #000000; stroke-width: 0.6"/>
      </g>
     </g>
    </g>
    <g id="ytick_21">
     <g id="line2d_47">
      <path d="M 51.700781 112.693614 
L 561.018437 112.693614 
" clip-path="url(#p6891123820)" style="fill: none; stroke-dasharray: 0.8,1.32; stroke-dashoffset: 0; stroke: #b0b0b0; stroke-opacity: 0.4; stroke-width: 0.8"/>
     </g>
     <g id="line2d_48">
      <g>
       <use xlink:href="#me90f2894e1" x="51.700781" y="112.693614" style="stroke: #000000; stroke-width: 0.6"/>
      </g>
     </g>
    </g>
    <g id="ytick_22">
     <g id="line2d_49">
      <path d="M 51.700781 79.003072 
L 561.018437 79.003072 
" clip-path="url(#p6891123820)" style="fill: none; stroke-dasharray: 0.8,1.32; stroke-dashoffset: 0; stroke: #b0b0b0; stroke-opacity: 0.4; stroke-width: 0.8"/>
     </g>
     <g id="line2d_50">
      <g>
       <use xlink:href="#me90f2894e1" x="51.700781" y="79.003072" style="stroke: #000000; stroke-width: 0.6"/>
      </g>
     </g>
    </g>
    <g id="ytick_23">
     <g id="line2d_51">
      <path d="M 51.700781 61.895737 
L 561.018437 61.895737 
" clip-path="url(#p6891123820)" style="fill: none; stroke-dasharray: 0.8,1.32; stroke-dashoffset: 0; stroke: #b0b0b0; stroke-opacity: 0.4; stroke-width: 0.8"/>
     </g>
     <g id="line2d_52">
      <g>
       <use xlink:href="#me90f2894e1" x="51.700781" y="61.895737" style="stroke: #000000; stroke-width: 0.6"/>
      </g>
     </g>
    </g>
    <g id="ytick_24">
     <g id="line2d_53">
      <path d="M 51.700781 49.757889 
L 561.018437 49.757889 
" clip-path="url(#p6891123820)" style="fill: none; stroke-dasharray: 0.8,1.32; stroke-dashoffset: 0; stroke: #b0b0b0; stroke-opacity: 0.4; stroke-width: 0.8"/>
     </g>
     <g id="line2d_54">
      <g>
       <use xlink:href="#me90f2894e1" x="51.700781" y="49.757889" style="stroke: #000000; stroke-width: 0.6"/>
      </g>
     </g>
    </g>
    <g id="ytick_25">
     <g id="line2d_55">
      <path d="M 51.700781 40.343043 
L 561.018437 40.343043 
" clip-path="url(#p6891123820)" style="fill: none; stroke-dasharray: 0.8,1.32; stroke-dashoffset: 0; stroke: #b0b0b0; stroke-opacity: 0.4; stroke-width: 0.8"/>
     </g>
     <g id="line2d_56">
      <g>
       <use xlink:href="#me90f2894e1" x="51.700781" y="40.343043" style="stroke: #000000; stroke-width: 0.6"/>
      </g>
     </g>
    </g>
    <g id="ytick_26">
     <g id="line2d_57">
      <path d="M 51.700781 32.650553 
L 561.018437 32.650553 
" clip-path="url(#p6891123820)" style="fill: none; stroke-dasharray: 0.8,1.32; stroke-dashoffset: 0; stroke: #b0b0b0; stroke-opacity: 0.4; stroke-width: 0.8"/>
     </g>
     <g id="line2d_58">
      <g>
       <use xlink:href="#me90f2894e1" x="51.700781" y="32.650553" style="stroke: #000000; stroke-width: 0.6"/>
      </g>
     </g>
    </g>
    <g id="ytick_27">
     <g id="line2d_59">
      <path d="M 51.700781 26.146646 
L 561.018437 26.146646 
" clip-path="url(#p6891123820)" style="fill: none; stroke-dasharray: 0.8,1.32; stroke-dashoffset: 0; stroke: #b0b0b0; stroke-opacity: 0.4; stroke-width: 0.8"/>
     </g>
     <g id="line2d_60">
      <g>
       <use xlink:href="#me90f2894e1" x="51.700781" y="26.146646" style="stroke: #000000; stroke-width: 0.6"/>
      </g>
     </g>
    </g>
    <g id="text_10">
     <!-- segundos -->
     <g transform="translate(14.798438 192.161357) rotate(-90) scale(0.1 -0.1)">
      <defs>
       <path id="DejaVuSans-4a" d="M 2906 1791 
Q 2906 2416 2648 2759 
Q 2391 3103 1925 3103 
Q 1463 3103 1205 2759 
Q 947 2416 947 1791 
Q 947 1169 1205 825 
Q 1463 481 1925 481 
Q 2391 481 2648 825 
Q 2906 1169 2906 1791 
z
M 3481 434 
Q 3481 -459 3084 -895 
Q 2688 -1331 1869 -1331 
Q 1566 -1331 1297 -1286 
Q 1028 -1241 775 -1147 
L 775 -588 
Q 1028 -725 1275 -790 
Q 1522 -856 1778 -856 
Q 2344 -856 2625 -561 
Q 2906 -266 2906 331 
L 2906 616 
Q 2728 306 2450 153 
Q 2172 0 1784 0 
Q 1141 0 747 490 
Q 353 981 353 1791 
Q 353 2603 747 3093 
Q 1141 3584 1784 3584 
Q 2172 3584 2450 3431 
Q 2728 3278 2906 2969 
L 2906 3500 
L 3481 3500 
L 3481 434 
z
" transform="scale(0.015625)"/>
       <path id="DejaVuSans-51" d="M 3513 2113 
L 3513 0 
L 2938 0 
L 2938 2094 
Q 2938 2591 2744 2837 
Q 2550 3084 2163 3084 
Q 1697 3084 1428 2787 
Q 1159 2491 1159 1978 
L 1159 0 
L 581 0 
L 581 3500 
L 1159 3500 
L 1159 2956 
Q 1366 3272 1645 3428 
Q 1925 3584 2291 3584 
Q 2894 3584 3203 3211 
Q 3513 2838 3513 2113 
z
" transform="scale(0.015625)"/>
      </defs>
      <use xlink:href="#DejaVuSans-56"/>
      <use xlink:href="#DejaVuSans-48" transform="translate(52.09375 0)"/>
      <use xlink:href="#DejaVuSans-4a" transform="translate(113.625 0)"/>
      <use xlink:href="#DejaVuSans-58" transform="translate(177.109375 0)"/>
      <use xlink:href="#DejaVuSans-51" transform="translate(240.484375 0)"/>
      <use xlink:href="#DejaVuSans-47" transform="translate(303.859375 0)"/>
      <use xlink:href="#DejaVuSans-52" transform="translate(367.34375 0)"/>
      <use xlink:href="#DejaVuSans-56" transform="translate(428.53125 0)"/>
     </g>
    </g>
   </g>
   <g id="patch_3">
    <path d="M 74.851584 97161.494478 
L 84.453299 97161.494478 
L 84.453299 279.888718 
L 74.851584 279.888718 
z
" clip-path="url(#p6891123820)" style="fill: #4c72b0"/>
   </g>
   <g id="patch_4">
    <path d="M 154.865878 97161.494478 
L 164.467594 97161.494478 
L 164.467594 295.209632 
L 154.865878 295.209632 
z
" clip-path="url(#p6891123820)" style="fill: #4c72b0"/>
   </g>
   <g id="patch_5">
    <path d="M 234.880173 97161.494478 
L 244.481888 97161.494478 
L 244.481888 298.91305 
L 234.880173 298.91305 
z
" clip-path="url(#p6891123820)" style="fill: #4c72b0"/>
   </g>
   <g id="patch_6">
    <path d="M 314.894467 97161.494478 
L 324.496183 97161.494478 
L 324.496183 297.729844 
L 314.894467 297.729844 
z
" clip-path="url(#p6891123820)" style="fill: #4c72b0"/>
   </g>
   <g id="patch_7">
    <path d="M 394.908762 97161.494478 
L 404.510477 97161.494478 
L 404.510477 299.419281 
L 394.908762 299.419281 
z
" clip-path="url(#p6891123820)" style="fill: #4c72b0"/>
   </g>
   <g id="patch_8">
    <path d="M 474.923057 97161.494478 
L 484.524772 97161.494478 
L 484.524772 300.25009 
L 474.923057 300.25009 
z
" clip-path="url(#p6891123820)" style="fill: #4c72b0"/>
   </g>
   <g id="patch_9">
    <path d="M 85.520156 97161.494478 
L 95.121872 97161.494478 
L 95.121872 42.200718 
L 85.520156 42.200718 
z
" clip-path="url(#p6891123820)" style="fill: #55a868"/>
   </g>
   <g id="patch_10">
    <path d="M 165.534451 97161.494478 
L 175.136166 97161.494478 
L 175.136166 79.964096 
L 165.534451 79.964096 
z
" clip-path="url(#p6891123820)" style="fill: #55a868"/>
   </g>
   <g id="patch_11">
    <path d="M 245.548746 97161.494478 
L 255.150461 97161.494478 
L 255.150461 70.944927 
L 245.548746 70.944927 
z
" clip-path="url(#p6891123820)" style="fill: #55a868"/>
   </g>
   <g id="patch_12">
    <path d="M 325.56304 97161.494478 
L 335.164755 97161.494478 
L 335.164755 83.358283 
L 325.56304 83.358283 
z
" clip-path="url(#p6891123820)" style="fill: #55a868"/>
   </g>
   <g id="patch_13">
    <path d="M 405.577335 97161.494478 
L 415.17905 97161.494478 
L 415.17905 66.311102 
L 405.577335 66.311102 
z
" clip-path="url(#p6891123820)" style="fill: #55a868"/>
   </g>
   <g id="patch_14">
    <path d="M 485.591629 97161.494478 
L 495.193345 97161.494478 
L 495.193345 63.885126 
L 485.591629 63.885126 
z
" clip-path="url(#p6891123820)" style="fill: #55a868"/>
   </g>
   <g id="patch_15">
    <path d="M 96.188729 97161.494478 
L 105.790444 97161.494478 
L 105.790444 42.920032 
L 96.188729 42.920032 
z
" clip-path="url(#p6891123820)" style="fill: #c44e52"/>
   </g>
   <g id="patch_16">
    <path d="M 176.203024 97161.494478 
L 185.804739 97161.494478 
L 185.804739 65.03725 
L 176.203024 65.03725 
z
" clip-path="url(#p6891123820)" style="fill: #c44e52"/>
   </g>
   <g id="patch_17">
    <path d="M 256.217318 97161.494478 
L 265.819033 97161.494478 
L 265.819033 79.51927 
L 256.217318 79.51927 
z
" clip-path="url(#p6891123820)" style="fill: #c44e52"/>
   </g>
   <g id="patch_18">
    <path d="M 336.231613 97161.494478 
L 345.833328 97161.494478 
L 345.833328 86.801935 
L 336.231613 86.801935 
z
" clip-path="url(#p6891123820)" style="fill: #c44e52"/>
   </g>
   <g id="patch_19">
    <path d="M 416.245907 97161.494478 
L 425.847623 97161.494478 
L 425.847623 87.005712 
L 416.245907 87.005712 
z
" clip-path="url(#p6891123820)" style="fill: #c44e52"/>
   </g>
   <g id="patch_20">
    <path d="M 496.260202 97161.494478 
L 505.861917 97161.494478 
L 505.861917 41.11311 
L 496.260202 41.11311 
z
" clip-path="url(#p6891123820)" style="fill: #c44e52"/>
   </g>
   <g id="patch_21">
    <path d="M 106.857302 97161.494478 
L 116.459017 97161.494478 
L 116.459017 36.010123 
L 106.857302 36.010123 
z
" clip-path="url(#p6891123820)" style="fill: #8172b2"/>
   </g>
   <g id="patch_22">
    <path d="M 186.871596 97161.494478 
L 196.473312 97161.494478 
L 196.473312 74.876217 
L 186.871596 74.876217 
z
" clip-path="url(#p6891123820)" style="fill: #8172b2"/>
   </g>
   <g id="patch_23">
    <path d="M 266.885891 97161.494478 
L 276.487606 97161.494478 
L 276.487606 74.955491 
L 266.885891 74.955491 
z
" clip-path="url(#p6891123820)" style="fill: #8172b2"/>
   </g>
   <g id="patch_24">
    <path d="M 346.900185 97161.494478 
L 356.501901 97161.494478 
L 356.501901 80.448576 
L 346.900185 80.448576 
z
" clip-path="url(#p6891123820)" style="fill: #8172b2"/>
   </g>
   <g id="patch_25">
    <path d="M 426.91448 97161.494478 
L 436.516195 97161.494478 
L 436.516195 65.121878 
L 426.91448 65.121878 
z
" clip-path="url(#p6891123820)" style="fill: #8172b2"/>
   </g>
   <g id="patch_26">
    <path d="M 506.928774 97161.494478 
L 516.53049 97161.494478 
L 516.53049 57.155268 
L 506.928774 57.155268 
z
" clip-path="url(#p6891123820)" style="fill: #8172b2"/>
   </g>
   <g id="patch_27">
    <path d="M 117.525874 97161.494478 
L 127.12759 97161.494478 
L 127.12759 97161.494478 
L 117.525874 97161.494478 
z
" clip-path="url(#p6891123820)" style="fill: #ccb974"/>
   </g>
   <g id="patch_28">
    <path d="M 197.540169 97161.494478 
L 207.141884 97161.494478 
L 207.141884 97161.494478 
L 197.540169 97161.494478 
z
" clip-path="url(#p6891123820)" style="fill: #ccb974"/>
   </g>
   <g id="patch_29">
    <path d="M 277.554463 97161.494478 
L 287.156179 97161.494478 
L 287.156179 97161.494478 
L 277.554463 97161.494478 
z
" clip-path="url(#p6891123820)" style="fill: #ccb974"/>
   </g>
   <g id="patch_30">
    <path d="M 357.568758 97161.494478 
L 367.170473 97161.494478 
L 367.170473 97161.494478 
L 357.568758 97161.494478 
z
" clip-path="url(#p6891123820)" style="fill: #ccb974"/>
   </g>
   <g id="patch_31">
    <path d="M 437.583052 97161.494478 
L 447.184768 97161.494478 
L 447.184768 97161.494478 
L 437.583052 97161.494478 
z
" clip-path="url(#p6891123820)" style="fill: #ccb974"/>
   </g>
   <g id="patch_32">
    <path d="M 517.597347 97161.494478 
L 527.199062 97161.494478 
L 527.199062 97161.494478 
L 517.597347 97161.494478 
z
" clip-path="url(#p6891123820)" style="fill: #ccb974"/>
   </g>
   <g id="patch_33">
    <path d="M 128.194447 97161.494478 
L 137.796162 97161.494478 
L 137.796162 97161.494478 
L 128.194447 97161.494478 
z
" clip-path="url(#p6891123820)" style="fill: #64b5cd"/>
   </g>
   <g id="patch_34">
    <path d="M 208.208741 97161.494478 
L 217.810457 97161.494478 
L 217.810457 97161.494478 
L 208.208741 97161.494478 
z
" clip-path="url(#p6891123820)" style="fill: #64b5cd"/>
   </g>
   <g id="patch_35">
    <path d="M 288.223036 97161.494478 
L 297.824751 97161.494478 
L 297.824751 97161.494478 
L 288.223036 97161.494478 
z
" clip-path="url(#p6891123820)" style="fill: #64b5cd"/>
   </g>
   <g id="patch_36">
    <path d="M 368.23733 97161.494478 
L 377.839046 97161.494478 
L 377.839046 97161.494478 
L 368.23733 97161.494478 
z
" clip-path="url(#p6891123820)" style="fill: #64b5cd"/>
   </g>
   <g id="patch_37">
    <path d="M 448.251625 97161.494478 
L 457.85334 97161.494478 
L 457.85334 97161.494478 
L 448.251625 97161.494478 
z
" clip-path="url(#p6891123820)" style="fill: #64b5cd"/>
   </g>
   <g id="patch_38">
    <path d="M 528.26592 97161.494478 
L 537.867635 97161.494478 
L 537.867635 97161.494478 
L 528.26592 97161.494478 
z
" clip-path="url(#p6891123820)" style="fill: #64b5cd"/>
   </g>
   <g id="patch_39">
    <path d="M 51.700781 313.462088 
L 51.700781 22.798125 
" style="fill: none; stroke: #000000; stroke-width: 0.8; stroke-linejoin: miter; stroke-linecap: square"/>
   </g>
   <g id="patch_40">
    <path d="M 561.018437 313.462088 
L 561.018437 22.798125 
" style="fill: none; stroke: #000000; stroke-width: 0.8; stroke-linejoin: miter; stroke-linecap: square"/>
   </g>
   <g id="patch_41">
    <path d="M 51.700781 313.462088 
L 561.018437 313.462088 
" style="fill: none; stroke: #000000; stroke-width: 0.8; stroke-linejoin: miter; stroke-linecap: square"/>
   </g>
   <g id="patch_42">
    <path d="M 51.700781 22.798125 
L 561.018437 22.798125 
" style="fill: none; stroke: #000000; stroke-width: 0.8; stroke-linejoin: miter; stroke-linecap: square"/>
   </g>
   <g id="text_11">
    <!-- Tiempo de compilación (mediana) -->
    <g transform="translate(204.050234 16.798125) scale(0.12 -0.12)">
     <defs>
      <path id="DejaVuSans-37" d="M -19 4666 
L 3928 4666 
L 3928 4134 
L 2272 4134 
L 2272 0 
L 1638 0 
L 1638 4134 
L -19 4134 
L -19 4666 
z
" transform="scale(0.015625)"/>
      <path id="DejaVuSans-3" transform="scale(0.015625)"/>
      <path id="DejaVuSans-b5" d="M 1959 3097 
Q 1497 3097 1228 2736 
Q 959 2375 959 1747 
Q 959 1119 1226 758 
Q 1494 397 1959 397 
Q 2419 397 2687 759 
Q 2956 1122 2956 1747 
Q 2956 2369 2687 2733 
Q 2419 3097 1959 3097 
z
M 1959 3584 
Q 2709 3584 3137 3096 
Q 3566 2609 3566 1747 
Q 3566 888 3137 398 
Q 2709 -91 1959 -91 
Q 1206 -91 779 398 
Q 353 888 353 1747 
Q 353 2609 779 3096 
Q 1206 3584 1959 3584 
z
M 2393 5119 
L 3015 5119 
L 1997 3944 
L 1518 3944 
L 2393 5119 
z
" transform="scale(0.015625)"/>
      <path id="DejaVuSans-b" d="M 1984 4856 
Q 1566 4138 1362 3434 
Q 1159 2731 1159 2009 
Q 1159 1288 1364 580 
Q 1569 -128 1984 -844 
L 1484 -844 
Q 1016 -109 783 600 
Q 550 1309 550 2009 
Q 550 2706 781 3412 
Q 1013 4119 1484 4856 
L 1984 4856 
z
" transform="scale(0.015625)"/>
      <path id="DejaVuSans-c" d="M 513 4856 
L 1013 4856 
Q 1481 4119 1714 3412 
Q 1947 2706 1947 2009 
Q 1947 1309 1714 600 
Q 1481 -109 1013 -844 
L 513 -844 
Q 928 -128 1133 580 
Q 1338 1288 1338 2009 
Q 1338 2731 1133 3434 
Q 928 4138 513 4856 
z
" transform="scale(0.015625)"/>
     </defs>
     <use xlink:href="#DejaVuSans-37"/>
     <use xlink:href="#DejaVuSans-4c" transform="translate(58 0)"/>
     <use xlink:href="#DejaVuSans-48" transform="translate(85.78125 0)"/>
     <use xlink:href="#DejaVuSans-50" transform="translate(147.3125 0)"/>
     <use xlink:href="#DejaVuSans-53" transform="translate(244.71875 0)"/>
     <use xlink:href="#DejaVuSans-52" transform="translate(308.203125 0)"/>
     <use xlink:href="#DejaVuSans-3" transform="translate(369.390625 0)"/>
     <use xlink:href="#DejaVuSans-47" transform="translate(401.171875 0)"/>
     <use xlink:href="#DejaVuSans-48" transform="translate(464.65625 0)"/>
     <use xlink:href="#DejaVuSans-3" transform="translate(526.1875 0)"/>
     <use xlink:href="#DejaVuSans-46" transform="translate(557.96875 0)"/>
     <use xlink:href="#DejaVuSans-52" transform="translate(612.953125 0)"/>
     <use xlink:href="#DejaVuSans-50" transform="translate(674.140625 0)"/>
     <use xlink:href="#DejaVuSans-53" transform="translate(771.546875 0)"/>
     <use xlink:href="#DejaVuSans-4c" transform="translate(835.03125 0)"/>
     <use xlink:href="#DejaVuSans-4f" transform="translate(862.8125 0)"/>
     <use xlink:href="#DejaVuSans-44" transform="translate(890.59375 0)"/>
     <use xlink:href="#DejaVuSans-46" transform="translate(951.875 0)"/>
     <use xlink:href="#DejaVuSans-4c" transform="translate(1006.859375 0)"/>
     <use xlink:href="#DejaVuSans-b5" transform="translate(1034.640625 0)"/>
     <use xlink:href="#DejaVuSans-51" transform="translate(1095.828125 0)"/>
     <use xlink:href="#DejaVuSans-3" transform="translate(1159.203125 0)"/>
     <use xlink:href="#DejaVuSans-b" transform="translate(1190.984375 0)"/>
     <use xlink:href="#DejaVuSans-50" transform="translate(1230 0)"/>
     <use xlink:href="#DejaVuSans-48" transform="translate(1327.40625 0)"/>
     <use xlink:href="#DejaVuSans-47" transform="translate(1388.9375 0)"/>
     <use xlink:href="#DejaVuSans-4c" transform="translate(1452.421875 0)"/>
     <use xlink:href="#DejaVuSans-44" transform="translate(1480.203125 0)"/>
     <use xlink:href="#DejaVuSans-51" transform="translate(1541.484375 0)"/>
     <use xlink:href="#DejaVuSans-44" transform="translate(1604.859375 0)"/>
     <use xlink:href="#DejaVuSans-c" transform="translate(1666.140625 0)"/>
    </g>
   </g>
   <g id="legend_1">
    <g id="patch_43">
     <path d="M 478.905937 101.201875 
L 555.418437 101.201875 
Q 557.018437 101.201875 557.018437 99.601875 
L 557.018437 28.398125 
Q 557.018437 26.798125 555.418437 26.798125 
L 478.905937 26.798125 
Q 477.305937 26.798125 477.305937 28.398125 
L 477.305937 99.601875 
Q 477.305937 101.201875 478.905937 101.201875 
z
" style="fill: #ffffff; opacity: 0.8; stroke: #cccccc; stroke-linejoin: miter"/>
    </g>
    <g id="patch_44">
     <path d="M 480.505937 36.076875 
L 496.505937 36.076875 
L 496.505937 30.476875 
L 480.505937 30.476875 
z
" style="fill: #4c72b0"/>
    </g>
    <g id="text_12">
     <!-- C- -_Codegen -->
     <g transform="translate(502.905937 36.076875) scale(0.08 -0.08)">
      <defs>
       <path id="DejaVuSans-26" d="M 4122 4306 
L 4122 3641 
Q 3803 3938 3442 4084 
Q 3081 4231 2675 4231 
Q 1875 4231 1450 3742 
Q 1025 3253 1025 2328 
Q 1025 1406 1450 917 
Q 1875 428 2675 428 
Q 3081 428 3442 575 
Q 3803 722 4122 1019 
L 4122 359 
Q 3791 134 3420 21 
Q 3050 -91 2638 -91 
Q 1578 -91 968 557 
Q 359 1206 359 2328 
Q 359 3453 968 4101 
Q 1578 4750 2638 4750 
Q 3056 4750 3426 4639 
Q 3797 4528 4122 4306 
z
" transform="scale(0.015625)"/>
       <path id="DejaVuSans-10" d="M 313 2009 
L 1997 2009 
L 1997 1497 
L 313 1497 
L 313 2009 
z
" transform="scale(0.015625)"/>
       <path id="DejaVuSans-42" d="M 3263 -1063 
L 3263 -1509 
L -63 -1509 
L -63 -1063 
L 3263 -1063 
z
" transform="scale(0.015625)"/>
      </defs>
      <use xlink:href="#DejaVuSans-26"/>
      <use xlink:href="#DejaVuSans-10" transform="translate(69.828125 0)"/>
      <use xlink:href="#DejaVuSans-10" transform="translate(105.90625 0)"/>
      <use xlink:href="#DejaVuSans-42" transform="translate(141.984375 0)"/>
      <use xlink:href="#DejaVuSans-26" transform="translate(191.984375 0)"/>
      <use xlink:href="#DejaVuSans-52" transform="translate(261.8125 0)"/>
      <use xlink:href="#DejaVuSans-47" transform="translate(323 0)"/>
      <use xlink:href="#DejaVuSans-48" transform="translate(386.484375 0)"/>
      <use xlink:href="#DejaVuSans-4a" transform="translate(448.015625 0)"/>
      <use xlink:href="#DejaVuSans-48" transform="translate(511.5 0)"/>
      <use xlink:href="#DejaVuSans-51" transform="translate(573.03125 0)"/>
     </g>
    </g>
    <g id="patch_45">
     <path d="M 480.505937 48.0775 
L 496.505937 48.0775 
L 496.505937 42.4775 
L 480.505937 42.4775 
z
" style="fill: #55a868"/>
    </g>
    <g id="text_13">
     <!-- C- -_Full -->
     <g transform="translate(502.905937 48.0775) scale(0.08 -0.08)">
      <defs>
       <path id="DejaVuSans-29" d="M 628 4666 
L 3309 4666 
L 3309 4134 
L 1259 4134 
L 1259 2759 
L 3109 2759 
L 3109 2228 
L 1259 2228 
L 1259 0 
L 628 0 
L 628 4666 
z
" transform="scale(0.015625)"/>
      </defs>
      <use xlink:href="#DejaVuSans-26"/>
      <use xlink:href="#DejaVuSans-10" transform="translate(69.828125 0)"/>
      <use xlink:href="#DejaVuSans-10" transform="translate(105.90625 0)"/>
      <use xlink:href="#DejaVuSans-42" transform="translate(141.984375 0)"/>
      <use xlink:href="#DejaVuSans-29" transform="translate(191.984375 0)"/>
      <use xlink:href="#DejaVuSans-58" transform="translate(244.03125 0)"/>
      <use xlink:href="#DejaVuSans-4f" transform="translate(307.40625 0)"/>
      <use xlink:href="#DejaVuSans-4f" transform="translate(335.1875 0)"/>
     </g>
    </g>
    <g id="patch_46">
     <path d="M 480.505937 60.078125 
L 496.505937 60.078125 
L 496.505937 54.478125 
L 480.505937 54.478125 
z
" style="fill: #c44e52"/>
    </g>
    <g id="text_14">
     <!-- GCC_O0 -->
     <g transform="translate(502.905937 60.078125) scale(0.08 -0.08)">
      <defs>
       <path id="DejaVuSans-2a" d="M 3809 666 
L 3809 1919 
L 2778 1919 
L 2778 2438 
L 4434 2438 
L 4434 434 
Q 4069 175 3628 42 
Q 3188 -91 2688 -91 
Q 1594 -91 976 548 
Q 359 1188 359 2328 
Q 359 3472 976 4111 
Q 1594 4750 2688 4750 
Q 3144 4750 3555 4637 
Q 3966 4525 4313 4306 
L 4313 3634 
Q 3963 3931 3569 4081 
Q 3175 4231 2741 4231 
Q 1884 4231 1454 3753 
Q 1025 3275 1025 2328 
Q 1025 1384 1454 906 
Q 1884 428 2741 428 
Q 3075 428 3337 486 
Q 3600 544 3809 666 
z
" transform="scale(0.015625)"/>
       <path id="DejaVuSans-32" d="M 2522 4238 
Q 1834 4238 1429 3725 
Q 1025 3213 1025 2328 
Q 1025 1447 1429 934 
Q 1834 422 2522 422 
Q 3209 422 3611 934 
Q 4013 1447 4013 2328 
Q 4013 3213 3611 3725 
Q 3209 4238 2522 4238 
z
M 2522 4750 
Q 3503 4750 4090 4092 
Q 4678 3434 4678 2328 
Q 4678 1225 4090 567 
Q 3503 -91 2522 -91 
Q 1538 -91 948 565 
Q 359 1222 359 2328 
Q 359 3434 948 4092 
Q 1538 4750 2522 4750 
z
" transform="scale(0.015625)"/>
      </defs>
      <use xlink:href="#DejaVuSans-2a"/>
      <use xlink:href="#DejaVuSans-26" transform="translate(77.484375 0)"/>
      <use xlink:href="#DejaVuSans-26" transform="translate(147.3125 0)"/>
      <use xlink:href="#DejaVuSans-42" transform="translate(217.140625 0)"/>
      <use xlink:href="#DejaVuSans-32" transform="translate(267.140625 0)"/>
      <use xlink:href="#DejaVuSans-13" transform="translate(345.859375 0)"/>
     </g>
    </g>
    <g id="patch_47">
     <path d="M 480.505937 72.07875 
L 496.505937 72.07875 
L 496.505937 66.47875 
L 480.505937 66.47875 
z
" style="fill: #8172b2"/>
    </g>
    <g id="text_15">
     <!-- GCC_O2 -->
     <g transform="translate(502.905937 72.07875) scale(0.08 -0.08)">
      <use xlink:href="#DejaVuSans-2a"/>
      <use xlink:href="#DejaVuSans-26" transform="translate(77.484375 0)"/>
      <use xlink:href="#DejaVuSans-26" transform="translate(147.3125 0)"/>
      <use xlink:href="#DejaVuSans-42" transform="translate(217.140625 0)"/>
      <use xlink:href="#DejaVuSans-32" transform="translate(267.140625 0)"/>
      <use xlink:href="#DejaVuSans-15" transform="translate(345.859375 0)"/>
     </g>
    </g>
    <g id="patch_48">
     <path d="M 480.505937 84.079375 
L 496.505937 84.079375 
L 496.505937 78.479375 
L 480.505937 78.479375 
z
" style="fill: #ccb974"/>
    </g>
    <g id="text_16">
     <!-- Clang_O0 -->
     <g transform="translate(502.905937 84.079375) scale(0.08 -0.08)">
      <use xlink:href="#DejaVuSans-26"/>
      <use xlink:href="#DejaVuSans-4f" transform="translate(69.828125 0)"/>
      <use xlink:href="#DejaVuSans-44" transform="translate(97.609375 0)"/>
      <use xlink:href="#DejaVuSans-51" transform="translate(158.890625 0)"/>
      <use xlink:href="#DejaVuSans-4a" transform="translate(222.265625 0)"/>
      <use xlink:href="#DejaVuSans-42" transform="translate(285.75 0)"/>
      <use xlink:href="#DejaVuSans-32" transform="translate(335.75 0)"/>
      <use xlink:href="#DejaVuSans-13" transform="translate(414.46875 0)"/>
     </g>
    </g>
    <g id="patch_49">
     <path d="M 480.505937 96.08 
L 496.505937 96.08 
L 496.505937 90.48 
L 480.505937 90.48 
z
" style="fill: #64b5cd"/>
    </g>
    <g id="text_17">
     <!-- Clang_O2 -->
     <g transform="translate(502.905937 96.08) scale(0.08 -0.08)">
      <use xlink:href="#DejaVuSans-26"/>
      <use xlink:href="#DejaVuSans-4f" transform="translate(69.828125 0)"/>
      <use xlink:href="#DejaVuSans-44" transform="translate(97.609375 0)"/>
      <use xlink:href="#DejaVuSans-51" transform="translate(158.890625 0)"/>
      <use xlink:href="#DejaVuSans-4a" transform="translate(222.265625 0)"/>
      <use xlink:href="#DejaVuSans-42" transform="translate(285.75 0)"/>
      <use xlink:href="#DejaVuSans-32" transform="translate(335.75 0)"/>
      <use xlink:href="#DejaVuSans-15" transform="translate(414.46875 0)"/>
     </g>
    </g>
   </g>
  </g>
 </g>
 <defs>
  <clipPath id="p6891123820">
   <rect x="51.700781" y="22.798125" width="509.317656" height="290.663963"/>
  </clipPath>
 </defs>
</svg>
