<?xml version="1.0" encoding="utf-8" standalone="no"?>
<!DOCTYPE svg PUBLIC "-//W3C//DTD SVG 1.1//EN"
  "http://www.w3.org/Graphics/SVG/1.1/DTD/svg11.dtd">
<svg xmlns:xlink="http://www.w3.org/1999/xlink" width="769.818437pt" height="350.196969pt" viewBox="0 0 769.818437 350.196969" xmlns="http://www.w3.org/2000/svg" version="1.1">
 <metadata>
  <rdf:RDF xmlns:dc="http://purl.org/dc/elements/1.1/" xmlns:cc="http://creativecommons.org/ns#" xmlns:rdf="http://www.w3.org/1999/02/22-rdf-syntax-ns#">
   <cc:Work>
    <dc:type rdf:resource="http://purl.org/dc/dcmitype/StillImage"/>
    <dc:date>2026-07-03T21:51:13.434656</dc:date>
    <dc:format>image/svg+xml</dc:format>
    <dc:creator>
     <cc:Agent>
      <dc:title>Matplotlib v3.11.0, https://matplotlib.org/</dc:title>
     </cc:Agent>
    </dc:creator>
   </cc:Work>
  </rdf:RDF>
 </metadata>
 <defs>
  <style type="text/css">*{stroke-linejoin: round; stroke-linecap: butt}</style>
 </defs>
 <g id="figure_1">
  <g id="patch_1">
   <path d="M 0 350.196969 
L 769.818437 350.196969 
L 769.818437 0 
L 0 0 
z
" style="fill: #ffffff"/>
  </g>
  <g id="axes_1">
   <g id="patch_2">
    <path d="M 51.700781 306.46353 
L 762.618437 306.46353 
L 762.618437 22.798125 
L 51.700781 22.798125 
z
" style="fill: #ffffff"/>
   </g>
   <g id="matplotlib.axis_1">
    <g id="xtick_1">
     <g id="line2d_1">
      <defs>
       <path id="m0db4b4fd87" d="M 0 0 
L 0 3.5 
" style="stroke: #000000; stroke-width: 0.8"/>
      </defs>
      <g>
       <use xlink:href="#m0db4b4fd87" x="112.946205" y="306.46353" style="stroke: #000000; stroke-width: 0.8"/>
      </g>
     </g>
     <g id="text_1">
      <!-- fib -->
      <g transform="translate(101.716693 324.471721) rotate(-25) scale(0.09 -0.09)">
       <defs>
        <path id="DejaVuSans-13af" d="M 3431 3500 
L 3431 0 
L 2853 0 
L 2853 3053 
L 1275 3053 
L 1275 0 
L 697 0 
L 697 3053 
L 147 3053 
L 147 3500 
L 697 3500 
L 697 3744 
Q 697 4316 967 4589 
Q 1238 4863 1797 4863 
L 2375 4863 
L 2375 4384 
L 1825 4384 
Q 1516 4384 1395 4259 
Q 1275 4134 1275 3809 
L 1275 3500 
L 3431 3500 
z
M 2853 4856 
L 3431 4856 
L 3431 4128 
L 2853 4128 
L 2853 4856 
z
" transform="scale(0.015625)"/>
        <path id="DejaVuSans-45" d="M 3116 1747 
Q 3116 2381 2855 2742 
Q 2594 3103 2138 3103 
Q 1681 3103 1420 2742 
Q 1159 2381 1159 1747 
Q 1159 1113 1420 752 
Q 1681 391 2138 391 
Q 2594 391 2855 752 
Q 3116 1113 3116 1747 
z
M 1159 2969 
Q 1341 3281 1617 3432 
Q 1894 3584 2278 3584 
Q 2916 3584 3314 3078 
Q 3713 2572 3713 1747 
Q 3713 922 3314 415 
Q 2916 -91 2278 -91 
Q 1894 -91 1617 61 
Q 1341 213 1159 525 
L 1159 0 
L 581 0 
L 581 4863 
L 1159 4863 
L 1159 2969 
z
" transform="scale(0.015625)"/>
       </defs>
       <use xlink:href="#DejaVuSans-13af"/>
       <use xlink:href="#DejaVuSans-45" transform="translate(62.984375 0)"/>
      </g>
     </g>
    </g>
    <g id="xtick_2">
     <g id="line2d_2">
      <g>
       <use xlink:href="#m0db4b4fd87" x="186.499556" y="306.46353" style="stroke: #000000; stroke-width: 0.8"/>
      </g>
     </g>
     <g id="text_2">
      <!-- matmul -->
      <g transform="translate(154.063716 334.360394) rotate(-25) scale(0.09 -0.09)">
       <defs>
        <path id="DejaVuSans-50" d="M 3328 2828 
Q 3544 3216 3844 3400 
Q 4144 3584 4550 3584 
Q 5097 3584 5394 3201 
Q 5691 2819 5691 2113 
L 5691 0 
L 5113 0 
L 5113 2094 
Q 5113 2597 4934 2840 
Q 4756 3084 4391 3084 
Q 3944 3084 3684 2787 
Q 3425 2491 3425 1978 
L 3425 0 
L 2847 0 
L 2847 2094 
Q 2847 2600 2669 2842 
Q 2491 3084 2119 3084 
Q 1678 3084 1418 2786 
Q 1159 2488 1159 1978 
L 1159 0 
L 581 0 
L 581 3500 
L 1159 3500 
L 1159 2956 
Q 1356 3278 1631 3431 
Q 1906 3584 2284 3584 
Q 2666 3584 2933 3390 
Q 3200 3197 3328 2828 
z
" transform="scale(0.015625)"/>
        <path id="DejaVuSans-44" d="M 2194 1759 
Q 1497 1759 1228 1600 
Q 959 1441 959 1056 
Q 959 750 1161 570 
Q 1363 391 1709 391 
Q 2188 391 2477 730 
Q 2766 1069 2766 1631 
L 2766 1759 
L 2194 1759 
z
M 3341 1997 
L 3341 0 
L 2766 0 
L 2766 531 
Q 2569 213 2275 61 
Q 1981 -91 1556 -91 
Q 1019 -91 701 211 
Q 384 513 384 1019 
Q 384 1609 779 1909 
Q 1175 2209 1959 2209 
L 2766 2209 
L 2766 2266 
Q 2766 2663 2505 2880 
Q 2244 3097 1772 3097 
Q 1472 3097 1187 3025 
Q 903 2953 641 2809 
L 641 3341 
Q 956 3463 1253 3523 
Q 1550 3584 1831 3584 
Q 2591 3584 2966 3190 
Q 3341 2797 3341 1997 
z
" transform="scale(0.015625)"/>
        <path id="DejaVuSans-57" d="M 1172 4494 
L 1172 3500 
L 2356 3500 
L 2356 3053 
L 1172 3053 
L 1172 1153 
Q 1172 725 1289 603 
Q 1406 481 1766 481 
L 2356 481 
L 2356 0 
L 1766 0 
Q 1100 0 847 248 
Q 594 497 594 1153 
L 594 3053 
L 172 3053 
L 172 3500 
L 594 3500 
L 594 4494 
L 1172 4494 
z
" transform="scale(0.015625)"/>
        <path id="DejaVuSans-58" d="M 544 1381 
L 544 3500 
L 1119 3500 
L 1119 1403 
Q 1119 906 1312 657 
Q 1506 409 1894 409 
Q 2359 409 2629 706 
Q 2900 1003 2900 1516 
L 2900 3500 
L 3475 3500 
L 3475 0 
L 2900 0 
L 2900 538 
Q 2691 219 2414 64 
Q 2138 -91 1772 -91 
Q 1169 -91 856 284 
Q 544 659 544 1381 
z
M 1991 3584 
L 1991 3584 
z
" transform="scale(0.015625)"/>
        <path id="DejaVuSans-4f" d="M 603 4863 
L 1178 4863 
L 1178 0 
L 603 0 
L 603 4863 
z
" transform="scale(0.015625)"/>
       </defs>
       <use xlink:href="#DejaVuSans-50"/>
       <use xlink:href="#DejaVuSans-44" transform="translate(97.40625 0)"/>
       <use xlink:href="#DejaVuSans-57" transform="translate(158.6875 0)"/>
       <use xlink:href="#DejaVuSans-50" transform="translate(197.890625 0)"/>
       <use xlink:href="#DejaVuSans-58" transform="translate(295.296875 0)"/>
       <use xlink:href="#DejaVuSans-4f" transform="translate(358.671875 0)"/>
      </g>
     </g>
    </g>
    <g id="xtick_3">
     <g id="line2d_3">
      <g>
       <use xlink:href="#m0db4b4fd87" x="260.052907" y="306.46353" style="stroke: #000000; stroke-width: 0.8"/>
      </g>
     </g>
     <g id="text_3">
      <!-- float -->
      <g transform="translate(240.814466 328.206346) rotate(-25) scale(0.09 -0.09)">
       <defs>
        <path id="DejaVuSans-13b0" d="M 1831 4863 
L 3431 4863 
L 3431 0 
L 2853 0 
L 2853 4384 
L 1825 4384 
Q 1516 4384 1395 4259 
Q 1275 4134 1275 3809 
L 1275 3500 
L 2222 3500 
L 2222 3053 
L 1275 3053 
L 1275 0 
L 697 0 
L 697 3053 
L 147 3053 
L 147 3500 
L 697 3500 
L 697 3744 
Q 697 4328 969 4595 
Q 1241 4863 1831 4863 
z
" transform="scale(0.015625)"/>
        <path id="DejaVuSans-52" d="M 1959 3097 
Q 1497 3097 1228 2736 
Q 959 2375 959 1747 
Q 959 1119 1226 758 
Q 1494 397 1959 397 
Q 2419 397 2687 759 
Q 2956 1122 2956 1747 
Q 2956 2369 2687 2733 
Q 2419 3097 1959 3097 
z
M 1959 3584 
Q 2709 3584 3137 3096 
Q 3566 2609 3566 1747 
Q 3566 888 3137 398 
Q 2709 -91 1959 -91 
Q 1206 -91 779 398 
Q 353 888 353 1747 
Q 353 2609 779 3096 
Q 1206 3584 1959 3584 
z
" transform="scale(0.015625)"/>
       </defs>
       <use xlink:href="#DejaVuSans-13b0"/>
       <use xlink:href="#DejaVuSans-52" transform="translate(62.984375 0)"/>
       <use xlink:href="#DejaVuSans-44" transform="translate(124.171875 0)"/>
       <use xlink:href="#DejaVuSans-57" transform="translate(185.453125 0)"/>
      </g>
     </g>
    </g>
    <g id="xtick_4">
     <g id="line2d_4">
      <g>
       <use xlink:href="#m0db4b4fd87" x="333.606258" y="306.46353" style="stroke: #000000; stroke-width: 0.8"/>
      </g>
     </g>
     <g id="text_4">
      <!-- struct -->
      <g transform="translate(309.040427 330.689911) rotate(-25) scale(0.09 -0.09)">
       <defs>
        <path id="DejaVuSans-56" d="M 2834 3397 
L 2834 2853 
Q 2591 2978 2328 3040 
Q 2066 3103 1784 3103 
Q 1356 3103 1142 2972 
Q 928 2841 928 2578 
Q 928 2378 1081 2264 
Q 1234 2150 1697 2047 
L 1894 2003 
Q 2506 1872 2764 1633 
Q 3022 1394 3022 966 
Q 3022 478 2636 193 
Q 2250 -91 1575 -91 
Q 1294 -91 989 -36 
Q 684 19 347 128 
L 347 722 
Q 666 556 975 473 
Q 1284 391 1588 391 
Q 1994 391 2212 530 
Q 2431 669 2431 922 
Q 2431 1156 2273 1281 
Q 2116 1406 1581 1522 
L 1381 1569 
Q 847 1681 609 1914 
Q 372 2147 372 2553 
Q 372 3047 722 3315 
Q 1072 3584 1716 3584 
Q 2034 3584 2315 3537 
Q 2597 3491 2834 3397 
z
" transform="scale(0.015625)"/>
        <path id="DejaVuSans-55" d="M 2631 2963 
Q 2534 3019 2420 3045 
Q 2306 3072 2169 3072 
Q 1681 3072 1420 2755 
Q 1159 2438 1159 1844 
L 1159 0 
L 581 0 
L 581 3500 
L 1159 3500 
L 1159 2956 
Q 1341 3275 1631 3429 
Q 1922 3584 2338 3584 
Q 2397 3584 2469 3576 
Q 2541 3569 2628 3553 
L 2631 2963 
z
" transform="scale(0.015625)"/>
        <path id="DejaVuSans-46" d="M 3122 3366 
L 3122 2828 
Q 2878 2963 2633 3030 
Q 2388 3097 2138 3097 
Q 1578 3097 1268 2742 
Q 959 2388 959 1747 
Q 959 1106 1268 751 
Q 1578 397 2138 397 
Q 2388 397 2633 464 
Q 2878 531 3122 666 
L 3122 134 
Q 2881 22 2623 -34 
Q 2366 -91 2075 -91 
Q 1284 -91 818 406 
Q 353 903 353 1747 
Q 353 2603 823 3093 
Q 1294 3584 2113 3584 
Q 2378 3584 2631 3529 
Q 2884 3475 3122 3366 
z
" transform="scale(0.015625)"/>
       </defs>
       <use xlink:href="#DejaVuSans-56"/>
       <use xlink:href="#DejaVuSans-57" transform="translate(52.09375 0)"/>
       <use xlink:href="#DejaVuSans-55" transform="translate(91.296875 0)"/>
       <use xlink:href="#DejaVuSans-58" transform="translate(132.40625 0)"/>
       <use xlink:href="#DejaVuSans-46" transform="translate(195.78125 0)"/>
       <use xlink:href="#DejaVuSans-57" transform="translate(250.765625 0)"/>
      </g>
     </g>
    </g>
    <g id="xtick_5">
     <g id="line2d_5">
      <g>
       <use xlink:href="#m0db4b4fd87" x="407.159609" y="306.46353" style="stroke: #000000; stroke-width: 0.8"/>
      </g>
     </g>
     <g id="text_5">
      <!-- prime -->
      <g transform="translate(382.484172 330.741659) rotate(-25) scale(0.09 -0.09)">
       <defs>
        <path id="DejaVuSans-53" d="M 1159 525 
L 1159 -1331 
L 581 -1331 
L 581 3500 
L 1159 3500 
L 1159 2969 
Q 1341 3281 1617 3432 
Q 1894 3584 2278 3584 
Q 2916 3584 3314 3078 
Q 3713 2572 3713 1747 
Q 3713 922 3314 415 
Q 2916 -91 2278 -91 
Q 1894 -91 1617 61 
Q 1341 213 1159 525 
z
M 3116 1747 
Q 3116 2381 2855 2742 
Q 2594 3103 2138 3103 
Q 1681 3103 1420 2742 
Q 1159 2381 1159 1747 
Q 1159 1113 1420 752 
Q 1681 391 2138 391 
Q 2594 391 2855 752 
Q 3116 1113 3116 1747 
z
" transform="scale(0.015625)"/>
        <path id="DejaVuSans-4c" d="M 603 3500 
L 1178 3500 
L 1178 0 
L 603 0 
L 603 3500 
z
M 603 4863 
L 1178 4863 
L 1178 4134 
L 603 4134 
L 603 4863 
z
" transform="scale(0.015625)"/>
        <path id="DejaVuSans-48" d="M 3597 1894 
L 3597 1613 
L 953 1613 
Q 991 1019 1311 708 
Q 1631 397 2203 397 
Q 2534 397 2845 478 
Q 3156 559 3463 722 
L 3463 178 
Q 3153 47 2828 -22 
Q 2503 -91 2169 -91 
Q 1331 -91 842 396 
Q 353 884 353 1716 
Q 353 2575 817 3079 
Q 1281 3584 2069 3584 
Q 2775 3584 3186 3129 
Q 3597 2675 3597 1894 
z
M 3022 2063 
Q 3016 2534 2758 2815 
Q 2500 3097 2075 3097 
Q 1594 3097 1305 2825 
Q 1016 2553 972 2059 
L 3022 2063 
z
" transform="scale(0.015625)"/>
       </defs>
       <use xlink:href="#DejaVuSans-53"/>
       <use xlink:href="#DejaVuSans-55" transform="translate(63.484375 0)"/>
       <use xlink:href="#DejaVuSans-4c" transform="translate(104.59375 0)"/>
       <use xlink:href="#DejaVuSans-50" transform="translate(132.375 0)"/>
       <use xlink:href="#DejaVuSans-48" transform="translate(229.78125 0)"/>
      </g>
     </g>
    </g>
    <g id="xtick_6">
     <g id="line2d_6">
      <g>
       <use xlink:href="#m0db4b4fd87" x="480.71296" y="306.46353" style="stroke: #000000; stroke-width: 0.8"/>
      </g>
     </g>
     <g id="text_6">
      <!-- mixed -->
      <g transform="translate(454.814007 331.312194) rotate(-25) scale(0.09 -0.09)">
       <defs>
        <path id="DejaVuSans-5b" d="M 3513 3500 
L 2247 1797 
L 3578 0 
L 2900 0 
L 1881 1375 
L 863 0 
L 184 0 
L 1544 1831 
L 300 3500 
L 978 3500 
L 1906 2253 
L 2834 3500 
L 3513 3500 
z
" transform="scale(0.015625)"/>
        <path id="DejaVuSans-47" d="M 2906 2969 
L 2906 4863 
L 3481 4863 
L 3481 0 
L 2906 0 
L 2906 525 
Q 2725 213 2448 61 
Q 2172 -91 1784 -91 
Q 1150 -91 751 415 
Q 353 922 353 1747 
Q 353 2572 751 3078 
Q 1150 3584 1784 3584 
Q 2172 3584 2448 3432 
Q 2725 3281 2906 2969 
z
M 947 1747 
Q 947 1113 1208 752 
Q 1469 391 1925 391 
Q 2381 391 2643 752 
Q 2906 1113 2906 1747 
Q 2906 2381 2643 2742 
Q 2381 3103 1925 3103 
Q 1469 3103 1208 2742 
Q 947 2381 947 1747 
z
" transform="scale(0.015625)"/>
       </defs>
       <use xlink:href="#DejaVuSans-50"/>
       <use xlink:href="#DejaVuSans-4c" transform="translate(97.40625 0)"/>
       <use xlink:href="#DejaVuSans-5b" transform="translate(125.1875 0)"/>
       <use xlink:href="#DejaVuSans-48" transform="translate(181.296875 0)"/>
       <use xlink:href="#DejaVuSans-47" transform="translate(242.828125 0)"/>
      </g>
     </g>
    </g>
    <g id="xtick_7">
     <g id="line2d_7">
      <g>
       <use xlink:href="#m0db4b4fd87" x="554.266312" y="306.46353" style="stroke: #000000; stroke-width: 0.8"/>
      </g>
     </g>
     <g id="text_7">
      <!-- constfold -->
      <g transform="translate(515.953774 337.100743) rotate(-25) scale(0.09 -0.09)">
       <defs>
        <path id="DejaVuSans-51" d="M 3513 2113 
L 3513 0 
L 2938 0 
L 2938 2094 
Q 2938 2591 2744 2837 
Q 2550 3084 2163 3084 
Q 1697 3084 1428 2787 
Q 1159 2491 1159 1978 
L 1159 0 
L 581 0 
L 581 3500 
L 1159 3500 
L 1159 2956 
Q 1366 3272 1645 3428 
Q 1925 3584 2291 3584 
Q 2894 3584 3203 3211 
Q 3513 2838 3513 2113 
z
" transform="scale(0.015625)"/>
        <path id="DejaVuSans-49" d="M 2375 4863 
L 2375 4384 
L 1825 4384 
Q 1516 4384 1395 4259 
Q 1275 4134 1275 3809 
L 1275 3500 
L 2222 3500 
L 2222 3053 
L 1275 3053 
L 1275 0 
L 697 0 
L 697 3053 
L 147 3053 
L 147 3500 
L 697 3500 
L 697 3744 
Q 697 4328 969 4595 
Q 1241 4863 1831 4863 
L 2375 4863 
z
" transform="scale(0.015625)"/>
       </defs>
       <use xlink:href="#DejaVuSans-46"/>
       <use xlink:href="#DejaVuSans-52" transform="translate(54.984375 0)"/>
       <use xlink:href="#DejaVuSans-51" transform="translate(116.171875 0)"/>
       <use xlink:href="#DejaVuSans-56" transform="translate(179.546875 0)"/>
       <use xlink:href="#DejaVuSans-57" transform="translate(231.640625 0)"/>
       <use xlink:href="#DejaVuSans-49" transform="translate(270.84375 0)"/>
       <use xlink:href="#DejaVuSans-52" transform="translate(306.046875 0)"/>
       <use xlink:href="#DejaVuSans-4f" transform="translate(367.234375 0)"/>
       <use xlink:href="#DejaVuSans-47" transform="translate(395.015625 0)"/>
      </g>
     </g>
    </g>
    <g id="xtick_8">
     <g id="line2d_8">
      <g>
       <use xlink:href="#m0db4b4fd87" x="627.819663" y="306.46353" style="stroke: #000000; stroke-width: 0.8"/>
      </g>
     </g>
     <g id="text_8">
      <!-- conststore -->
      <g transform="translate(584.183558 339.582526) rotate(-25) scale(0.09 -0.09)">
       <use xlink:href="#DejaVuSans-46"/>
       <use xlink:href="#DejaVuSans-52" transform="translate(54.984375 0)"/>
       <use xlink:href="#DejaVuSans-51" transform="translate(116.171875 0)"/>
       <use xlink:href="#DejaVuSans-56" transform="translate(179.546875 0)"/>
       <use xlink:href="#DejaVuSans-57" transform="translate(231.640625 0)"/>
       <use xlink:href="#DejaVuSans-56" transform="translate(270.84375 0)"/>
       <use xlink:href="#DejaVuSans-57" transform="translate(322.9375 0)"/>
       <use xlink:href="#DejaVuSans-52" transform="translate(362.140625 0)"/>
       <use xlink:href="#DejaVuSans-55" transform="translate(423.328125 0)"/>
       <use xlink:href="#DejaVuSans-48" transform="translate(462.234375 0)"/>
      </g>
     </g>
    </g>
    <g id="xtick_9">
     <g id="line2d_9">
      <g>
       <use xlink:href="#m0db4b4fd87" x="701.373014" y="306.46353" style="stroke: #000000; stroke-width: 0.8"/>
      </g>
     </g>
     <g id="text_9">
      <!-- stackframe -->
      <g transform="translate(654.618219 341.037432) rotate(-25) scale(0.09 -0.09)">
       <defs>
        <path id="DejaVuSans-4e" d="M 581 4863 
L 1159 4863 
L 1159 1991 
L 2875 3500 
L 3609 3500 
L 1753 1863 
L 3688 0 
L 2938 0 
L 1159 1709 
L 1159 0 
L 581 0 
L 581 4863 
z
" transform="scale(0.015625)"/>
       </defs>
       <use xlink:href="#DejaVuSans-56"/>
       <use xlink:href="#DejaVuSans-57" transform="translate(52.09375 0)"/>
       <use xlink:href="#DejaVuSans-44" transform="translate(91.296875 0)"/>
       <use xlink:href="#DejaVuSans-46" transform="translate(152.578125 0)"/>
       <use xlink:href="#DejaVuSans-4e" transform="translate(207.5625 0)"/>
       <use xlink:href="#DejaVuSans-49" transform="translate(265.46875 0)"/>
       <use xlink:href="#DejaVuSans-55" transform="translate(300.671875 0)"/>
       <use xlink:href="#DejaVuSans-44" transform="translate(341.78125 0)"/>
       <use xlink:href="#DejaVuSans-50" transform="translate(403.0625 0)"/>
       <use xlink:href="#DejaVuSans-48" transform="translate(500.46875 0)"/>
      </g>
     </g>
    </g>
   </g>
   <g id="matplotlib.axis_2">
    <g id="ytick_1">
     <g id="line2d_10">
      <path d="M 51.700781 204.476741 
L 762.618437 204.476741 
" clip-path="url(#pd3b13b721a)" style="fill: none; stroke-dasharray: 0.8,1.32; stroke-dashoffset: 0; stroke: #b0b0b0; stroke-opacity: 0.4; stroke-width: 0.8"/>
     </g>
     <g id="line2d_11">
      <defs>
       <path id="m9fa62430da" d="M 0 0 
L -3.5 0 
" style="stroke: #000000; stroke-width: 0.8"/>
      </defs>
      <g>
       <use xlink:href="#m9fa62430da" x="51.700781" y="204.476741" style="stroke: #000000; stroke-width: 0.8"/>
      </g>
     </g>
     <g id="text_10">
      <!-- $\mathdefault{10^{-2}}$ -->
      <g transform="translate(21.200781 209.176741) scale(0.1 -0.1)">
       <defs>
        <path id="DejaVuSans-14" d="M 794 531 
L 1825 531 
L 1825 4091 
L 703 3866 
L 703 4441 
L 1819 4666 
L 2450 4666 
L 2450 531 
L 3481 531 
L 3481 0 
L 794 0 
L 794 531 
z
" transform="scale(0.015625)"/>
        <path id="DejaVuSans-13" d="M 2034 4250 
Q 1547 4250 1301 3770 
Q 1056 3291 1056 2328 
Q 1056 1369 1301 889 
Q 1547 409 2034 409 
Q 2525 409 2770 889 
Q 3016 1369 3016 2328 
Q 3016 3291 2770 3770 
Q 2525 4250 2034 4250 
z
M 2034 4750 
Q 2819 4750 3233 4129 
Q 3647 3509 3647 2328 
Q 3647 1150 3233 529 
Q 2819 -91 2034 -91 
Q 1250 -91 836 529 
Q 422 1150 422 2328 
Q 422 3509 836 4129 
Q 1250 4750 2034 4750 
z
" transform="scale(0.015625)"/>
        <path id="DejaVuSans-c9c" d="M 678 2272 
L 4684 2272 
L 4684 1741 
L 678 1741 
L 678 2272 
z
" transform="scale(0.015625)"/>
        <path id="DejaVuSans-15" d="M 1228 531 
L 3431 531 
L 3431 0 
L 469 0 
L 469 531 
Q 828 903 1448 1529 
Q 2069 2156 2228 2338 
Q 2531 2678 2651 2914 
Q 2772 3150 2772 3378 
Q 2772 3750 2511 3984 
Q 2250 4219 1831 4219 
Q 1534 4219 1204 4116 
Q 875 4013 500 3803 
L 500 4441 
Q 881 4594 1212 4672 
Q 1544 4750 1819 4750 
Q 2544 4750 2975 4387 
Q 3406 4025 3406 3419 
Q 3406 3131 3298 2873 
Q 3191 2616 2906 2266 
Q 2828 2175 2409 1742 
Q 1991 1309 1228 531 
z
" transform="scale(0.015625)"/>
       </defs>
       <use xlink:href="#DejaVuSans-14" transform="translate(0 0.746875)"/>
       <use xlink:href="#DejaVuSans-13" transform="translate(63.623047 0.746875)"/>
       <use xlink:href="#DejaVuSans-c9c" transform="translate(128.203125 42.046875) scale(0.7)"/>
       <use xlink:href="#DejaVuSans-15" transform="translate(186.855469 42.046875) scale(0.7)"/>
      </g>
     </g>
    </g>
    <g id="ytick_2">
     <g id="line2d_12">
      <path d="M 51.700781 36.619916 
L 762.618437 36.619916 
" clip-path="url(#pd3b13b721a)" style="fill: none; stroke-dasharray: 0.8,1.32; stroke-dashoffset: 0; stroke: #b0b0b0; stroke-opacity: 0.4; stroke-width: 0.8"/>
     </g>
     <g id="line2d_13">
      <g>
       <use xlink:href="#m9fa62430da" x="51.700781" y="36.619916" style="stroke: #000000; stroke-width: 0.8"/>
      </g>
     </g>
     <g id="text_11">
      <!-- $\mathdefault{10^{-1}}$ -->
      <g transform="translate(21.200781 41.269916) scale(0.1 -0.1)">
       <use xlink:href="#DejaVuSans-14" transform="translate(0 0.665625)"/>
       <use xlink:href="#DejaVuSans-13" transform="translate(63.623047 0.665625)"/>
       <use xlink:href="#DejaVuSans-c9c" transform="translate(128.203125 41.965625) scale(0.7)"/>
       <use xlink:href="#DejaVuSans-14" transform="translate(186.855469 41.965625) scale(0.7)"/>
      </g>
     </g>
    </g>
    <g id="ytick_3">
     <g id="line2d_14">
      <path d="M 51.700781 292.245507 
L 762.618437 292.245507 
" clip-path="url(#pd3b13b721a)" style="fill: none; stroke-dasharray: 0.8,1.32; stroke-dashoffset: 0; stroke: #b0b0b0; stroke-opacity: 0.4; stroke-width: 0.8"/>
     </g>
     <g id="line2d_15">
      <defs>
       <path id="m9f29f03d7c" d="M 0 0 
L -2 0 
" style="stroke: #000000; stroke-width: 0.6"/>
      </defs>
      <g>
       <use xlink:href="#m9f29f03d7c" x="51.700781" y="292.245507" style="stroke: #000000; stroke-width: 0.6"/>
      </g>
     </g>
    </g>
    <g id="ytick_4">
     <g id="line2d_16">
      <path d="M 51.700781 271.273688 
L 762.618437 271.273688 
" clip-path="url(#pd3b13b721a)" style="fill: none; stroke-dasharray: 0.8,1.32; stroke-dashoffset: 0; stroke: #b0b0b0; stroke-opacity: 0.4; stroke-width: 0.8"/>
     </g>
     <g id="line2d_17">
      <g>
       <use xlink:href="#m9f29f03d7c" x="51.700781" y="271.273688" style="stroke: #000000; stroke-width: 0.6"/>
      </g>
     </g>
    </g>
    <g id="ytick_5">
     <g id="line2d_18">
      <path d="M 51.700781 255.00668 
L 762.618437 255.00668 
" clip-path="url(#pd3b13b721a)" style="fill: none; stroke-dasharray: 0.8,1.32; stroke-dashoffset: 0; stroke: #b0b0b0; stroke-opacity: 0.4; stroke-width: 0.8"/>
     </g>
     <g id="line2d_19">
      <g>
       <use xlink:href="#m9f29f03d7c" x="51.700781" y="255.00668" style="stroke: #000000; stroke-width: 0.6"/>
      </g>
     </g>
    </g>
    <g id="ytick_6">
     <g id="line2d_20">
      <path d="M 51.700781 241.715568 
L 762.618437 241.715568 
" clip-path="url(#pd3b13b721a)" style="fill: none; stroke-dasharray: 0.8,1.32; stroke-dashoffset: 0; stroke: #b0b0b0; stroke-opacity: 0.4; stroke-width: 0.8"/>
     </g>
     <g id="line2d_21">
      <g>
       <use xlink:href="#m9f29f03d7c" x="51.700781" y="241.715568" style="stroke: #000000; stroke-width: 0.6"/>
      </g>
     </g>
    </g>
    <g id="ytick_7">
     <g id="line2d_22">
      <path d="M 51.700781 230.478092 
L 762.618437 230.478092 
" clip-path="url(#pd3b13b721a)" style="fill: none; stroke-dasharray: 0.8,1.32; stroke-dashoffset: 0; stroke: #b0b0b0; stroke-opacity: 0.4; stroke-width: 0.8"/>
     </g>
     <g id="line2d_23">
      <g>
       <use xlink:href="#m9f29f03d7c" x="51.700781" y="230.478092" style="stroke: #000000; stroke-width: 0.6"/>
      </g>
     </g>
    </g>
    <g id="ytick_8">
     <g id="line2d_24">
      <path d="M 51.700781 220.743748 
L 762.618437 220.743748 
" clip-path="url(#pd3b13b721a)" style="fill: none; stroke-dasharray: 0.8,1.32; stroke-dashoffset: 0; stroke: #b0b0b0; stroke-opacity: 0.4; stroke-width: 0.8"/>
     </g>
     <g id="line2d_25">
      <g>
       <use xlink:href="#m9f29f03d7c" x="51.700781" y="220.743748" style="stroke: #000000; stroke-width: 0.6"/>
      </g>
     </g>
    </g>
    <g id="ytick_9">
     <g id="line2d_26">
      <path d="M 51.700781 212.157448 
L 762.618437 212.157448 
" clip-path="url(#pd3b13b721a)" style="fill: none; stroke-dasharray: 0.8,1.32; stroke-dashoffset: 0; stroke: #b0b0b0; stroke-opacity: 0.4; stroke-width: 0.8"/>
     </g>
     <g id="line2d_27">
      <g>
       <use xlink:href="#m9f29f03d7c" x="51.700781" y="212.157448" style="stroke: #000000; stroke-width: 0.6"/>
      </g>
     </g>
    </g>
    <g id="ytick_10">
     <g id="line2d_28">
      <path d="M 51.700781 153.946802 
L 762.618437 153.946802 
" clip-path="url(#pd3b13b721a)" style="fill: none; stroke-dasharray: 0.8,1.32; stroke-dashoffset: 0; stroke: #b0b0b0; stroke-opacity: 0.4; stroke-width: 0.8"/>
     </g>
     <g id="line2d_29">
      <g>
       <use xlink:href="#m9f29f03d7c" x="51.700781" y="153.946802" style="stroke: #000000; stroke-width: 0.6"/>
      </g>
     </g>
    </g>
    <g id="ytick_11">
     <g id="line2d_30">
      <path d="M 51.700781 124.388682 
L 762.618437 124.388682 
" clip-path="url(#pd3b13b721a)" style="fill: none; stroke-dasharray: 0.8,1.32; stroke-dashoffset: 0; stroke: #b0b0b0; stroke-opacity: 0.4; stroke-width: 0.8"/>
     </g>
     <g id="line2d_31">
      <g>
       <use xlink:href="#m9f29f03d7c" x="51.700781" y="124.388682" style="stroke: #000000; stroke-width: 0.6"/>
      </g>
     </g>
    </g>
    <g id="ytick_12">
     <g id="line2d_32">
      <path d="M 51.700781 103.416863 
L 762.618437 103.416863 
" clip-path="url(#pd3b13b721a)" style="fill: none; stroke-dasharray: 0.8,1.32; stroke-dashoffset: 0; stroke: #b0b0b0; stroke-opacity: 0.4; stroke-width: 0.8"/>
     </g>
     <g id="line2d_33">
      <g>
       <use xlink:href="#m9f29f03d7c" x="51.700781" y="103.416863" style="stroke: #000000; stroke-width: 0.6"/>
      </g>
     </g>
    </g>
    <g id="ytick_13">
     <g id="line2d_34">
      <path d="M 51.700781 87.149856 
L 762.618437 87.149856 
" clip-path="url(#pd3b13b721a)" style="fill: none; stroke-dasharray: 0.8,1.32; stroke-dashoffset: 0; stroke: #b0b0b0; stroke-opacity: 0.4; stroke-width: 0.8"/>
     </g>
     <g id="line2d_35">
      <g>
       <use xlink:href="#m9f29f03d7c" x="51.700781" y="87.149856" style="stroke: #000000; stroke-width: 0.6"/>
      </g>
     </g>
    </g>
    <g id="ytick_14">
     <g id="line2d_36">
      <path d="M 51.700781 73.858743 
L 762.618437 73.858743 
" clip-path="url(#pd3b13b721a)" style="fill: none; stroke-dasharray: 0.8,1.32; stroke-dashoffset: 0; stroke: #b0b0b0; stroke-opacity: 0.4; stroke-width: 0.8"/>
     </g>
     <g id="line2d_37">
      <g>
       <use xlink:href="#m9f29f03d7c" x="51.700781" y="73.858743" style="stroke: #000000; stroke-width: 0.6"/>
      </g>
     </g>
    </g>
    <g id="ytick_15">
     <g id="line2d_38">
      <path d="M 51.700781 62.621267 
L 762.618437 62.621267 
" clip-path="url(#pd3b13b721a)" style="fill: none; stroke-dasharray: 0.8,1.32; stroke-dashoffset: 0; stroke: #b0b0b0; stroke-opacity: 0.4; stroke-width: 0.8"/>
     </g>
     <g id="line2d_39">
      <g>
       <use xlink:href="#m9f29f03d7c" x="51.700781" y="62.621267" style="stroke: #000000; stroke-width: 0.6"/>
      </g>
     </g>
    </g>
    <g id="ytick_16">
     <g id="line2d_40">
      <path d="M 51.700781 52.886923 
L 762.618437 52.886923 
" clip-path="url(#pd3b13b721a)" style="fill: none; stroke-dasharray: 0.8,1.32; stroke-dashoffset: 0; stroke: #b0b0b0; stroke-opacity: 0.4; stroke-width: 0.8"/>
     </g>
     <g id="line2d_41">
      <g>
       <use xlink:href="#m9f29f03d7c" x="51.700781" y="52.886923" style="stroke: #000000; stroke-width: 0.6"/>
      </g>
     </g>
    </g>
    <g id="ytick_17">
     <g id="line2d_42">
      <path d="M 51.700781 44.300623 
L 762.618437 44.300623 
" clip-path="url(#pd3b13b721a)" style="fill: none; stroke-dasharray: 0.8,1.32; stroke-dashoffset: 0; stroke: #b0b0b0; stroke-opacity: 0.4; stroke-width: 0.8"/>
     </g>
     <g id="line2d_43">
      <g>
       <use xlink:href="#m9f29f03d7c" x="51.700781" y="44.300623" style="stroke: #000000; stroke-width: 0.6"/>
      </g>
     </g>
    </g>
    <g id="text_12">
     <!-- segundos -->
     <g transform="translate(14.798438 188.662077) rotate(-90) scale(0.1 -0.1)">
      <defs>
       <path id="DejaVuSans-4a" d="M 2906 1791 
Q 2906 2416 2648 2759 
Q 2391 3103 1925 3103 
Q 1463 3103 1205 2759 
Q 947 2416 947 1791 
Q 947 1169 1205 825 
Q 1463 481 1925 481 
Q 2391 481 2648 825 
Q 2906 1169 2906 1791 
z
M 3481 434 
Q 3481 -459 3084 -895 
Q 2688 -1331 1869 -1331 
Q 1566 -1331 1297 -1286 
Q 1028 -1241 775 -1147 
L 775 -588 
Q 1028 -725 1275 -790 
Q 1522 -856 1778 -856 
Q 2344 -856 2625 -561 
Q 2906 -266 2906 331 
L 2906 616 
Q 2728 306 2450 153 
Q 2172 0 1784 0 
Q 1141 0 747 490 
Q 353 981 353 1791 
Q 353 2603 747 3093 
Q 1141 3584 1784 3584 
Q 2172 3584 2450 3431 
Q 2728 3278 2906 2969 
L 2906 3500 
L 3481 3500 
L 3481 434 
z
" transform="scale(0.015625)"/>
      </defs>
      <use xlink:href="#DejaVuSans-56"/>
      <use xlink:href="#DejaVuSans-48" transform="translate(52.09375 0)"/>
      <use xlink:href="#DejaVuSans-4a" transform="translate(113.625 0)"/>
      <use xlink:href="#DejaVuSans-58" transform="translate(177.109375 0)"/>
      <use xlink:href="#DejaVuSans-51" transform="translate(240.484375 0)"/>
      <use xlink:href="#DejaVuSans-47" transform="translate(303.859375 0)"/>
      <use xlink:href="#DejaVuSans-52" transform="translate(367.34375 0)"/>
      <use xlink:href="#DejaVuSans-56" transform="translate(428.53125 0)"/>
     </g>
    </g>
   </g>
   <g id="patch_3">
    <path d="M 84.01522 167725.587935 
L 92.841622 167725.587935 
L 92.841622 260.753097 
L 84.01522 260.753097 
z
" clip-path="url(#pd3b13b721a)" style="fill: #4c72b0"/>
   </g>
   <g id="patch_4">
    <path d="M 157.568571 167725.587935 
L 166.394973 167725.587935 
L 166.394973 293.569648 
L 157.568571 293.569648 
z
" clip-path="url(#pd3b13b721a)" style="fill: #4c72b0"/>
   </g>
   <g id="patch_5">
    <path d="M 231.121922 167725.587935 
L 239.948325 167725.587935 
L 239.948325 280.489173 
L 231.121922 280.489173 
z
" clip-path="url(#pd3b13b721a)" style="fill: #4c72b0"/>
   </g>
   <g id="patch_6">
    <path d="M 304.675273 167725.587935 
L 313.501676 167725.587935 
L 313.501676 288.204356 
L 304.675273 288.204356 
z
" clip-path="url(#pd3b13b721a)" style="fill: #4c72b0"/>
   </g>
   <g id="patch_7">
    <path d="M 378.228625 167725.587935 
L 387.055027 167725.587935 
L 387.055027 290.090691 
L 378.228625 290.090691 
z
" clip-path="url(#pd3b13b721a)" style="fill: #4c72b0"/>
   </g>
   <g id="patch_8">
    <path d="M 451.781976 167725.587935 
L 460.608378 167725.587935 
L 460.608378 286.680115 
L 451.781976 286.680115 
z
" clip-path="url(#pd3b13b721a)" style="fill: #4c72b0"/>
   </g>
   <g id="patch_9">
    <path d="M 525.335327 167725.587935 
L 534.161729 167725.587935 
L 534.161729 292.757597 
L 525.335327 292.757597 
z
" clip-path="url(#pd3b13b721a)" style="fill: #4c72b0"/>
   </g>
   <g id="patch_10">
    <path d="M 598.888678 167725.587935 
L 607.71508 167725.587935 
L 607.71508 290.067103 
L 598.888678 290.067103 
z
" clip-path="url(#pd3b13b721a)" style="fill: #4c72b0"/>
   </g>
   <g id="patch_11">
    <path d="M 672.442029 167725.587935 
L 681.268431 167725.587935 
L 681.268431 292.245507 
L 672.442029 292.245507 
z
" clip-path="url(#pd3b13b721a)" style="fill: #4c72b0"/>
   </g>
   <g id="patch_12">
    <path d="M 93.822334 167725.587935 
L 102.648736 167725.587935 
L 102.648736 88.245709 
L 93.822334 88.245709 
z
" clip-path="url(#pd3b13b721a)" style="fill: #55a868"/>
   </g>
   <g id="patch_13">
    <path d="M 167.375685 167725.587935 
L 176.202087 167725.587935 
L 176.202087 118.816536 
L 167.375685 118.816536 
z
" clip-path="url(#pd3b13b721a)" style="fill: #55a868"/>
   </g>
   <g id="patch_14">
    <path d="M 240.929036 167725.587935 
L 249.755438 167725.587935 
L 249.755438 120.838857 
L 240.929036 120.838857 
z
" clip-path="url(#pd3b13b721a)" style="fill: #55a868"/>
   </g>
   <g id="patch_15">
    <path d="M 314.482387 167725.587935 
L 323.308789 167725.587935 
L 323.308789 120.575482 
L 314.482387 120.575482 
z
" clip-path="url(#pd3b13b721a)" style="fill: #55a868"/>
   </g>
   <g id="patch_16">
    <path d="M 388.035738 167725.587935 
L 396.86214 167725.587935 
L 396.86214 116.610356 
L 388.035738 116.610356 
z
" clip-path="url(#pd3b13b721a)" style="fill: #55a868"/>
   </g>
   <g id="patch_17">
    <path d="M 461.589089 167725.587935 
L 470.415491 167725.587935 
L 470.415491 118.179994 
L 461.589089 118.179994 
z
" clip-path="url(#pd3b13b721a)" style="fill: #55a868"/>
   </g>
   <g id="patch_18">
    <path d="M 535.14244 167725.587935 
L 543.968842 167725.587935 
L 543.968842 121.991273 
L 535.14244 121.991273 
z
" clip-path="url(#pd3b13b721a)" style="fill: #55a868"/>
   </g>
   <g id="patch_19">
    <path d="M 608.695791 167725.587935 
L 617.522194 167725.587935 
L 617.522194 119.841229 
L 608.695791 119.841229 
z
" clip-path="url(#pd3b13b721a)" style="fill: #55a868"/>
   </g>
   <g id="patch_20">
    <path d="M 682.249143 167725.587935 
L 691.075545 167725.587935 
L 691.075545 116.016534 
L 682.249143 116.016534 
z
" clip-path="url(#pd3b13b721a)" style="fill: #55a868"/>
   </g>
   <g id="patch_21">
    <path d="M 103.629447 167725.587935 
L 112.455849 167725.587935 
L 112.455849 81.887225 
L 103.629447 81.887225 
z
" clip-path="url(#pd3b13b721a)" style="fill: #c44e52"/>
   </g>
   <g id="patch_22">
    <path d="M 177.182798 167725.587935 
L 186.0092 167725.587935 
L 186.0092 81.278022 
L 177.182798 81.278022 
z
" clip-path="url(#pd3b13b721a)" style="fill: #c44e52"/>
   </g>
   <g id="patch_23">
    <path d="M 250.736149 167725.587935 
L 259.562551 167725.587935 
L 259.562551 79.636718 
L 250.736149 79.636718 
z
" clip-path="url(#pd3b13b721a)" style="fill: #c44e52"/>
   </g>
   <g id="patch_24">
    <path d="M 324.2895 167725.587935 
L 333.115903 167725.587935 
L 333.115903 80.479356 
L 324.2895 80.479356 
z
" clip-path="url(#pd3b13b721a)" style="fill: #c44e52"/>
   </g>
   <g id="patch_25">
    <path d="M 397.842852 167725.587935 
L 406.669254 167725.587935 
L 406.669254 81.902147 
L 397.842852 81.902147 
z
" clip-path="url(#pd3b13b721a)" style="fill: #c44e52"/>
   </g>
   <g id="patch_26">
    <path d="M 471.396203 167725.587935 
L 480.222605 167725.587935 
L 480.222605 81.107387 
L 471.396203 81.107387 
z
" clip-path="url(#pd3b13b721a)" style="fill: #c44e52"/>
   </g>
   <g id="patch_27">
    <path d="M 544.949554 167725.587935 
L 553.775956 167725.587935 
L 553.775956 81.527301 
L 544.949554 81.527301 
z
" clip-path="url(#pd3b13b721a)" style="fill: #c44e52"/>
   </g>
   <g id="patch_28">
    <path d="M 618.502905 167725.587935 
L 627.329307 167725.587935 
L 627.329307 83.554218 
L 618.502905 83.554218 
z
" clip-path="url(#pd3b13b721a)" style="fill: #c44e52"/>
   </g>
   <g id="patch_29">
    <path d="M 692.056256 167725.587935 
L 700.882658 167725.587935 
L 700.882658 81.130205 
L 692.056256 81.130205 
z
" clip-path="url(#pd3b13b721a)" style="fill: #c44e52"/>
   </g>
   <g id="patch_30">
    <path d="M 113.436561 167725.587935 
L 122.262963 167725.587935 
L 122.262963 35.692007 
L 113.436561 35.692007 
z
" clip-path="url(#pd3b13b721a)" style="fill: #8172b2"/>
   </g>
   <g id="patch_31">
    <path d="M 186.989912 167725.587935 
L 195.816314 167725.587935 
L 195.816314 55.451077 
L 186.989912 55.451077 
z
" clip-path="url(#pd3b13b721a)" style="fill: #8172b2"/>
   </g>
   <g id="patch_32">
    <path d="M 260.543263 167725.587935 
L 269.369665 167725.587935 
L 269.369665 69.715361 
L 260.543263 69.715361 
z
" clip-path="url(#pd3b13b721a)" style="fill: #8172b2"/>
   </g>
   <g id="patch_33">
    <path d="M 334.096614 167725.587935 
L 342.923016 167725.587935 
L 342.923016 70.555828 
L 334.096614 70.555828 
z
" clip-path="url(#pd3b13b721a)" style="fill: #8172b2"/>
   </g>
   <g id="patch_34">
    <path d="M 407.649965 167725.587935 
L 416.476367 167725.587935 
L 416.476367 67.949703 
L 407.649965 67.949703 
z
" clip-path="url(#pd3b13b721a)" style="fill: #8172b2"/>
   </g>
   <g id="patch_35">
    <path d="M 481.203316 167725.587935 
L 490.029718 167725.587935 
L 490.029718 73.240513 
L 481.203316 73.240513 
z
" clip-path="url(#pd3b13b721a)" style="fill: #8172b2"/>
   </g>
   <g id="patch_36">
    <path d="M 554.756667 167725.587935 
L 563.583069 167725.587935 
L 563.583069 75.703147 
L 554.756667 75.703147 
z
" clip-path="url(#pd3b13b721a)" style="fill: #8172b2"/>
   </g>
   <g id="patch_37">
    <path d="M 628.310018 167725.587935 
L 637.136421 167725.587935 
L 637.136421 75.920295 
L 628.310018 75.920295 
z
" clip-path="url(#pd3b13b721a)" style="fill: #8172b2"/>
   </g>
   <g id="patch_38">
    <path d="M 701.863369 167725.587935 
L 710.689772 167725.587935 
L 710.689772 79.100773 
L 701.863369 79.100773 
z
" clip-path="url(#pd3b13b721a)" style="fill: #8172b2"/>
   </g>
   <g id="patch_39">
    <path d="M 123.243674 167725.587935 
L 132.070076 167725.587935 
L 132.070076 57.989391 
L 123.243674 57.989391 
z
" clip-path="url(#pd3b13b721a)" style="fill: #ccb974"/>
   </g>
   <g id="patch_40">
    <path d="M 196.797025 167725.587935 
L 205.623427 167725.587935 
L 205.623427 55.272904 
L 196.797025 55.272904 
z
" clip-path="url(#pd3b13b721a)" style="fill: #ccb974"/>
   </g>
   <g id="patch_41">
    <path d="M 270.350376 167725.587935 
L 279.176778 167725.587935 
L 279.176778 58.318508 
L 270.350376 58.318508 
z
" clip-path="url(#pd3b13b721a)" style="fill: #ccb974"/>
   </g>
   <g id="patch_42">
    <path d="M 343.903727 167725.587935 
L 352.73013 167725.587935 
L 352.73013 58.460014 
L 343.903727 58.460014 
z
" clip-path="url(#pd3b13b721a)" style="fill: #ccb974"/>
   </g>
   <g id="patch_43">
    <path d="M 417.457079 167725.587935 
L 426.283481 167725.587935 
L 426.283481 56.774996 
L 417.457079 56.774996 
z
" clip-path="url(#pd3b13b721a)" style="fill: #ccb974"/>
   </g>
   <g id="patch_44">
    <path d="M 491.01043 167725.587935 
L 499.836832 167725.587935 
L 499.836832 59.879359 
L 491.01043 59.879359 
z
" clip-path="url(#pd3b13b721a)" style="fill: #ccb974"/>
   </g>
   <g id="patch_45">
    <path d="M 564.563781 167725.587935 
L 573.390183 167725.587935 
L 573.390183 60.425009 
L 564.563781 60.425009 
z
" clip-path="url(#pd3b13b721a)" style="fill: #ccb974"/>
   </g>
   <g id="patch_46">
    <path d="M 638.117132 167725.587935 
L 646.943534 167725.587935 
L 646.943534 62.122058 
L 638.117132 62.122058 
z
" clip-path="url(#pd3b13b721a)" style="fill: #ccb974"/>
   </g>
   <g id="patch_47">
    <path d="M 711.670483 167725.587935 
L 720.496885 167725.587935 
L 720.496885 59.316859 
L 711.670483 59.316859 
z
" clip-path="url(#pd3b13b721a)" style="fill: #ccb974"/>
   </g>
   <g id="patch_48">
    <path d="M 133.050788 167725.587935 
L 141.87719 167725.587935 
L 141.87719 50.750689 
L 133.050788 50.750689 
z
" clip-path="url(#pd3b13b721a)" style="fill: #64b5cd"/>
   </g>
   <g id="patch_49">
    <path d="M 206.604139 167725.587935 
L 215.430541 167725.587935 
L 215.430541 41.690335 
L 206.604139 41.690335 
z
" clip-path="url(#pd3b13b721a)" style="fill: #64b5cd"/>
   </g>
   <g id="patch_50">
    <path d="M 280.15749 167725.587935 
L 288.983892 167725.587935 
L 288.983892 50.687886 
L 280.15749 50.687886 
z
" clip-path="url(#pd3b13b721a)" style="fill: #64b5cd"/>
   </g>
   <g id="patch_51">
    <path d="M 353.710841 167725.587935 
L 362.537243 167725.587935 
L 362.537243 54.109062 
L 353.710841 54.109062 
z
" clip-path="url(#pd3b13b721a)" style="fill: #64b5cd"/>
   </g>
   <g id="patch_52">
    <path d="M 427.264192 167725.587935 
L 436.090594 167725.587935 
L 436.090594 51.443326 
L 427.264192 51.443326 
z
" clip-path="url(#pd3b13b721a)" style="fill: #64b5cd"/>
   </g>
   <g id="patch_53">
    <path d="M 500.817543 167725.587935 
L 509.643945 167725.587935 
L 509.643945 51.136651 
L 500.817543 51.136651 
z
" clip-path="url(#pd3b13b721a)" style="fill: #64b5cd"/>
   </g>
   <g id="patch_54">
    <path d="M 574.370894 167725.587935 
L 583.197296 167725.587935 
L 583.197296 55.438808 
L 574.370894 55.438808 
z
" clip-path="url(#pd3b13b721a)" style="fill: #64b5cd"/>
   </g>
   <g id="patch_55">
    <path d="M 647.924245 167725.587935 
L 656.750647 167725.587935 
L 656.750647 52.375691 
L 647.924245 52.375691 
z
" clip-path="url(#pd3b13b721a)" style="fill: #64b5cd"/>
   </g>
   <g id="patch_56">
    <path d="M 721.477596 167725.587935 
L 730.303999 167725.587935 
L 730.303999 56.207244 
L 721.477596 56.207244 
z
" clip-path="url(#pd3b13b721a)" style="fill: #64b5cd"/>
   </g>
   <g id="patch_57">
    <path d="M 51.700781 306.46353 
L 51.700781 22.798125 
" style="fill: none; stroke: #000000; stroke-width: 0.8; stroke-linejoin: miter; stroke-linecap: square"/>
   </g>
   <g id="patch_58">
    <path d="M 762.618437 306.46353 
L 762.618437 22.798125 
" style="fill: none; stroke: #000000; stroke-width: 0.8; stroke-linejoin: miter; stroke-linecap: square"/>
   </g>
   <g id="patch_59">
    <path d="M 51.700781 306.46353 
L 762.618437 306.46353 
" style="fill: none; stroke: #000000; stroke-width: 0.8; stroke-linejoin: miter; stroke-linecap: square"/>
   </g>
   <g id="patch_60">
    <path d="M 51.700781 22.798125 
L 762.618437 22.798125 
" style="fill: none; stroke: #000000; stroke-width: 0.8; stroke-linejoin: miter; stroke-linecap: square"/>
   </g>
   <g id="text_13">
    <!-- Tiempo de compilación (mediana) -->
    <g transform="translate(304.850234 16.798125) scale(0.12 -0.12)">
     <defs>
      <path id="DejaVuSans-37" d="M -19 4666 
L 3928 4666 
L 3928 4134 
L 2272 4134 
L 2272 0 
L 1638 0 
L 1638 4134 
L -19 4134 
L -19 4666 
z
" transform="scale(0.015625)"/>
      <path id="DejaVuSans-3" transform="scale(0.015625)"/>
      <path id="DejaVuSans-b5" d="M 1959 3097 
Q 1497 3097 1228 2736 
Q 959 2375 959 1747 
Q 959 1119 1226 758 
Q 1494 397 1959 397 
Q 2419 397 2687 759 
Q 2956 1122 2956 1747 
Q 2956 2369 2687 2733 
Q 2419 3097 1959 3097 
z
M 1959 3584 
Q 2709 3584 3137 3096 
Q 3566 2609 3566 1747 
Q 3566 888 3137 398 
Q 2709 -91 1959 -91 
Q 1206 -91 779 398 
Q 353 888 353 1747 
Q 353 2609 779 3096 
Q 1206 3584 1959 3584 
z
M 2393 5119 
L 3015 5119 
L 1997 3944 
L 1518 3944 
L 2393 5119 
z
" transform="scale(0.015625)"/>
      <path id="DejaVuSans-b" d="M 1984 4856 
Q 1566 4138 1362 3434 
Q 1159 2731 1159 2009 
Q 1159 1288 1364 580 
Q 1569 -128 1984 -844 
L 1484 -844 
Q 1016 -109 783 600 
Q 550 1309 550 2009 
Q 550 2706 781 3412 
Q 1013 4119 1484 4856 
L 1984 4856 
z
" transform="scale(0.015625)"/>
      <path id="DejaVuSans-c" d="M 513 4856 
L 1013 4856 
Q 1481 4119 1714 3412 
Q 1947 2706 1947 2009 
Q 1947 1309 1714 600 
Q 1481 -109 1013 -844 
L 513 -844 
Q 928 -128 1133 580 
Q 1338 1288 1338 2009 
Q 1338 2731 1133 3434 
Q 928 4138 513 4856 
z
" transform="scale(0.015625)"/>
     </defs>
     <use xlink:href="#DejaVuSans-37"/>
     <use xlink:href="#DejaVuSans-4c" transform="translate(58 0)"/>
     <use xlink:href="#DejaVuSans-48" transform="translate(85.78125 0)"/>
     <use xlink:href="#DejaVuSans-50" transform="translate(147.3125 0)"/>
     <use xlink:href="#DejaVuSans-53" transform="translate(244.71875 0)"/>
     <use xlink:href="#DejaVuSans-52" transform="translate(308.203125 0)"/>
     <use xlink:href="#DejaVuSans-3" transform="translate(369.390625 0)"/>
     <use xlink:href="#DejaVuSans-47" transform="translate(401.171875 0)"/>
     <use xlink:href="#DejaVuSans-48" transform="translate(464.65625 0)"/>
     <use xlink:href="#DejaVuSans-3" transform="translate(526.1875 0)"/>
     <use xlink:href="#DejaVuSans-46" transform="translate(557.96875 0)"/>
     <use xlink:href="#DejaVuSans-52" transform="translate(612.953125 0)"/>
     <use xlink:href="#DejaVuSans-50" transform="translate(674.140625 0)"/>
     <use xlink:href="#DejaVuSans-53" transform="translate(771.546875 0)"/>
     <use xlink:href="#DejaVuSans-4c" transform="translate(835.03125 0)"/>
     <use xlink:href="#DejaVuSans-4f" transform="translate(862.8125 0)"/>
     <use xlink:href="#DejaVuSans-44" transform="translate(890.59375 0)"/>
     <use xlink:href="#DejaVuSans-46" transform="translate(951.875 0)"/>
     <use xlink:href="#DejaVuSans-4c" transform="translate(1006.859375 0)"/>
     <use xlink:href="#DejaVuSans-b5" transform="translate(1034.640625 0)"/>
     <use xlink:href="#DejaVuSans-51" transform="translate(1095.828125 0)"/>
     <use xlink:href="#DejaVuSans-3" transform="translate(1159.203125 0)"/>
     <use xlink:href="#DejaVuSans-b" transform="translate(1190.984375 0)"/>
     <use xlink:href="#DejaVuSans-50" transform="translate(1230 0)"/>
     <use xlink:href="#DejaVuSans-48" transform="translate(1327.40625 0)"/>
     <use xlink:href="#DejaVuSans-47" transform="translate(1388.9375 0)"/>
     <use xlink:href="#DejaVuSans-4c" transform="translate(1452.421875 0)"/>
     <use xlink:href="#DejaVuSans-44" transform="translate(1480.203125 0)"/>
     <use xlink:href="#DejaVuSans-51" transform="translate(1541.484375 0)"/>
     <use xlink:href="#DejaVuSans-44" transform="translate(1604.859375 0)"/>
     <use xlink:href="#DejaVuSans-c" transform="translate(1666.140625 0)"/>
    </g>
   </g>
   <g id="legend_1">
    <g id="patch_61">
     <path d="M 680.505937 101.201875 
L 757.018437 101.201875 
Q 758.618437 101.201875 758.618437 99.601875 
L 758.618437 28.398125 
Q 758.618437 26.798125 757.018437 26.798125 
L 680.505937 26.798125 
Q 678.905937 26.798125 678.905937 28.398125 
L 678.905937 99.601875 
Q 678.905937 101.201875 680.505937 101.201875 
z
" style="fill: #ffffff; opacity: 0.8; stroke: #cccccc; stroke-linejoin: miter"/>
    </g>
    <g id="patch_62">
     <path d="M 682.105937 36.076875 
L 698.105937 36.076875 
L 698.105937 30.476875 
L 682.105937 30.476875 
z
" style="fill: #4c72b0"/>
    </g>
    <g id="text_14">
     <!-- C- -_Codegen -->
     <g transform="translate(704.505937 36.076875) scale(0.08 -0.08)">
      <defs>
       <path id="DejaVuSans-26" d="M 4122 4306 
L 4122 3641 
Q 3803 3938 3442 4084 
Q 3081 4231 2675 4231 
Q 1875 4231 1450 3742 
Q 1025 3253 1025 2328 
Q 1025 1406 1450 917 
Q 1875 428 2675 428 
Q 3081 428 3442 575 
Q 3803 722 4122 1019 
L 4122 359 
Q 3791 134 3420 21 
Q 3050 -91 2638 -91 
Q 1578 -91 968 557 
Q 359 1206 359 2328 
Q 359 3453 968 4101 
Q 1578 4750 2638 4750 
Q 3056 4750 3426 4639 
Q 3797 4528 4122 4306 
z
" transform="scale(0.015625)"/>
       <path id="DejaVuSans-10" d="M 313 2009 
L 1997 2009 
L 1997 1497 
L 313 1497 
L 313 2009 
z
" transform="scale(0.015625)"/>
       <path id="DejaVuSans-42" d="M 3263 -1063 
L 3263 -1509 
L -63 -1509 
L -63 -1063 
L 3263 -1063 
z
" transform="scale(0.015625)"/>
      </defs>
      <use xlink:href="#DejaVuSans-26"/>
      <use xlink:href="#DejaVuSans-10" transform="translate(69.828125 0)"/>
      <use xlink:href="#DejaVuSans-10" transform="translate(105.90625 0)"/>
      <use xlink:href="#DejaVuSans-42" transform="translate(141.984375 0)"/>
      <use xlink:href="#DejaVuSans-26" transform="translate(191.984375 0)"/>
      <use xlink:href="#DejaVuSans-52" transform="translate(261.8125 0)"/>
      <use xlink:href="#DejaVuSans-47" transform="translate(323 0)"/>
      <use xlink:href="#DejaVuSans-48" transform="translate(386.484375 0)"/>
      <use xlink:href="#DejaVuSans-4a" transform="translate(448.015625 0)"/>
      <use xlink:href="#DejaVuSans-48" transform="translate(511.5 0)"/>
      <use xlink:href="#DejaVuSans-51" transform="translate(573.03125 0)"/>
     </g>
    </g>
    <g id="patch_63">
     <path d="M 682.105937 48.0775 
L 698.105937 48.0775 
L 698.105937 42.4775 
L 682.105937 42.4775 
z
" style="fill: #55a868"/>
    </g>
    <g id="text_15">
     <!-- C- -_Full -->
     <g transform="translate(704.505937 48.0775) scale(0.08 -0.08)">
      <defs>
       <path id="DejaVuSans-29" d="M 628 4666 
L 3309 4666 
L 3309 4134 
L 1259 4134 
L 1259 2759 
L 3109 2759 
L 3109 2228 
L 1259 2228 
L 1259 0 
L 628 0 
L 628 4666 
z
" transform="scale(0.015625)"/>
      </defs>
      <use xlink:href="#DejaVuSans-26"/>
      <use xlink:href="#DejaVuSans-10" transform="translate(69.828125 0)"/>
      <use xlink:href="#DejaVuSans-10" transform="translate(105.90625 0)"/>
      <use xlink:href="#DejaVuSans-42" transform="translate(141.984375 0)"/>
      <use xlink:href="#DejaVuSans-29" transform="translate(191.984375 0)"/>
      <use xlink:href="#DejaVuSans-58" transform="translate(244.03125 0)"/>
      <use xlink:href="#DejaVuSans-4f" transform="translate(307.40625 0)"/>
      <use xlink:href="#DejaVuSans-4f" transform="translate(335.1875 0)"/>
     </g>
    </g>
    <g id="patch_64">
     <path d="M 682.105937 60.078125 
L 698.105937 60.078125 
L 698.105937 54.478125 
L 682.105937 54.478125 
z
" style="fill: #c44e52"/>
    </g>
    <g id="text_16">
     <!-- GCC_O0 -->
     <g transform="translate(704.505937 60.078125) scale(0.08 -0.08)">
      <defs>
       <path id="DejaVuSans-2a" d="M 3809 666 
L 3809 1919 
L 2778 1919 
L 2778 2438 
L 4434 2438 
L 4434 434 
Q 4069 175 3628 42 
Q 3188 -91 2688 -91 
Q 1594 -91 976 548 
Q 359 1188 359 2328 
Q 359 3472 976 4111 
Q 1594 4750 2688 4750 
Q 3144 4750 3555 4637 
Q 3966 4525 4313 4306 
L 4313 3634 
Q 3963 3931 3569 4081 
Q 3175 4231 2741 4231 
Q 1884 4231 1454 3753 
Q 1025 3275 1025 2328 
Q 1025 1384 1454 906 
Q 1884 428 2741 428 
Q 3075 428 3337 486 
Q 3600 544 3809 666 
z
" transform="scale(0.015625)"/>
       <path id="DejaVuSans-32" d="M 2522 4238 
Q 1834 4238 1429 3725 
Q 1025 3213 1025 2328 
Q 1025 1447 1429 934 
Q 1834 422 2522 422 
Q 3209 422 3611 934 
Q 4013 1447 4013 2328 
Q 4013 3213 3611 3725 
Q 3209 4238 2522 4238 
z
M 2522 4750 
Q 3503 4750 4090 4092 
Q 4678 3434 4678 2328 
Q 4678 1225 4090 567 
Q 3503 -91 2522 -91 
Q 1538 -91 948 565 
Q 359 1222 359 2328 
Q 359 3434 948 4092 
Q 1538 4750 2522 4750 
z
" transform="scale(0.015625)"/>
      </defs>
      <use xlink:href="#DejaVuSans-2a"/>
      <use xlink:href="#DejaVuSans-26" transform="translate(77.484375 0)"/>
      <use xlink:href="#DejaVuSans-26" transform="translate(147.3125 0)"/>
      <use xlink:href="#DejaVuSans-42" transform="translate(217.140625 0)"/>
      <use xlink:href="#DejaVuSans-32" transform="translate(267.140625 0)"/>
      <use xlink:href="#DejaVuSans-13" transform="translate(345.859375 0)"/>
     </g>
    </g>
    <g id="patch_65">
     <path d="M 682.105937 72.07875 
L 698.105937 72.07875 
L 698.105937 66.47875 
L 682.105937 66.47875 
z
" style="fill: #8172b2"/>
    </g>
    <g id="text_17">
     <!-- GCC_O2 -->
     <g transform="translate(704.505937 72.07875) scale(0.08 -0.08)">
      <use xlink:href="#DejaVuSans-2a"/>
      <use xlink:href="#DejaVuSans-26" transform="translate(77.484375 0)"/>
      <use xlink:href="#DejaVuSans-26" transform="translate(147.3125 0)"/>
      <use xlink:href="#DejaVuSans-42" transform="translate(217.140625 0)"/>
      <use xlink:href="#DejaVuSans-32" transform="translate(267.140625 0)"/>
      <use xlink:href="#DejaVuSans-15" transform="translate(345.859375 0)"/>
     </g>
    </g>
    <g id="patch_66">
     <path d="M 682.105937 84.079375 
L 698.105937 84.079375 
L 698.105937 78.479375 
L 682.105937 78.479375 
z
" style="fill: #ccb974"/>
    </g>
    <g id="text_18">
     <!-- Clang_O0 -->
     <g transform="translate(704.505937 84.079375) scale(0.08 -0.08)">
      <use xlink:href="#DejaVuSans-26"/>
      <use xlink:href="#DejaVuSans-4f" transform="translate(69.828125 0)"/>
      <use xlink:href="#DejaVuSans-44" transform="translate(97.609375 0)"/>
      <use xlink:href="#DejaVuSans-51" transform="translate(158.890625 0)"/>
      <use xlink:href="#DejaVuSans-4a" transform="translate(222.265625 0)"/>
      <use xlink:href="#DejaVuSans-42" transform="translate(285.75 0)"/>
      <use xlink:href="#DejaVuSans-32" transform="translate(335.75 0)"/>
      <use xlink:href="#DejaVuSans-13" transform="translate(414.46875 0)"/>
     </g>
    </g>
    <g id="patch_67">
     <path d="M 682.105937 96.08 
L 698.105937 96.08 
L 698.105937 90.48 
L 682.105937 90.48 
z
" style="fill: #64b5cd"/>
    </g>
    <g id="text_19">
     <!-- Clang_O2 -->
     <g transform="translate(704.505937 96.08) scale(0.08 -0.08)">
      <use xlink:href="#DejaVuSans-26"/>
      <use xlink:href="#DejaVuSans-4f" transform="translate(69.828125 0)"/>
      <use xlink:href="#DejaVuSans-44" transform="translate(97.609375 0)"/>
      <use xlink:href="#DejaVuSans-51" transform="translate(158.890625 0)"/>
      <use xlink:href="#DejaVuSans-4a" transform="translate(222.265625 0)"/>
      <use xlink:href="#DejaVuSans-42" transform="translate(285.75 0)"/>
      <use xlink:href="#DejaVuSans-32" transform="translate(335.75 0)"/>
      <use xlink:href="#DejaVuSans-15" transform="translate(414.46875 0)"/>
     </g>
    </g>
   </g>
  </g>
 </g>
 <defs>
  <clipPath id="pd3b13b721a">
   <rect x="51.700781" y="22.798125" width="710.917656" height="283.665405"/>
  </clipPath>
 </defs>
</svg>
