<?xml version="1.0" encoding="utf-8" standalone="no"?>
<!DOCTYPE svg PUBLIC "-//W3C//DTD SVG 1.1//EN"
  "http://www.w3.org/Graphics/SVG/1.1/DTD/svg11.dtd">
<svg xmlns:xlink="http://www.w3.org/1999/xlink" width="683.418437pt" height="351.634078pt" viewBox="0 0 683.418437 351.634078" xmlns="http://www.w3.org/2000/svg" version="1.1">
 <metadata>
  <rdf:RDF xmlns:dc="http://purl.org/dc/elements/1.1/" xmlns:cc="http://creativecommons.org/ns#" xmlns:rdf="http://www.w3.org/1999/02/22-rdf-syntax-ns#">
   <cc:Work>
    <dc:type rdf:resource="http://purl.org/dc/dcmitype/StillImage"/>
    <dc:date>2026-07-03T22:49:04.983472</dc:date>
    <dc:format>image/svg+xml</dc:format>
    <dc:creator>
     <cc:Agent>
      <dc:title>Matplotlib v3.11.0, https://matplotlib.org/</dc:title>
     </cc:Agent>
    </dc:creator>
   </cc:Work>
  </rdf:RDF>
 </metadata>
 <defs>
  <style type="text/css">*{stroke-linejoin: round; stroke-linecap: butt}</style>
 </defs>
 <g id="figure_1">
  <g id="patch_1">
   <path d="M 0 351.634078 
L 683.418437 351.634078 
L 683.418437 0 
L 0 0 
z
" style="fill: #ffffff"/>
  </g>
  <g id="axes_1">
   <g id="patch_2">
    <path d="M 51.700781 309.355545 
L 676.218437 309.355545 
L 676.218437 22.798125 
L 51.700781 22.798125 
z
" style="fill: #ffffff"/>
   </g>
   <g id="matplotlib.axis_1">
    <g id="xtick_1">
     <g id="line2d_1">
      <defs>
       <path id="m1e79963d2f" d="M 0 0 
L 0 3.5 
" style="stroke: #000000; stroke-width: 0.8"/>
      </defs>
      <g>
       <use xlink:href="#m1e79963d2f" x="108.766763" y="309.355545" style="stroke: #000000; stroke-width: 0.8"/>
      </g>
     </g>
     <g id="text_1">
      <!-- fib -->
      <g transform="translate(97.537251 327.363736) rotate(-25) scale(0.09 -0.09)">
       <defs>
        <path id="DejaVuSans-13af" d="M 3431 3500 
L 3431 0 
L 2853 0 
L 2853 3053 
L 1275 3053 
L 1275 0 
L 697 0 
L 697 3053 
L 147 3053 
L 147 3500 
L 697 3500 
L 697 3744 
Q 697 4316 967 4589 
Q 1238 4863 1797 4863 
L 2375 4863 
L 2375 4384 
L 1825 4384 
Q 1516 4384 1395 4259 
Q 1275 4134 1275 3809 
L 1275 3500 
L 3431 3500 
z
M 2853 4856 
L 3431 4856 
L 3431 4128 
L 2853 4128 
L 2853 4856 
z
" transform="scale(0.015625)"/>
        <path id="DejaVuSans-45" d="M 3116 1747 
Q 3116 2381 2855 2742 
Q 2594 3103 2138 3103 
Q 1681 3103 1420 2742 
Q 1159 2381 1159 1747 
Q 1159 1113 1420 752 
Q 1681 391 2138 391 
Q 2594 391 2855 752 
Q 3116 1113 3116 1747 
z
M 1159 2969 
Q 1341 3281 1617 3432 
Q 1894 3584 2278 3584 
Q 2916 3584 3314 3078 
Q 3713 2572 3713 1747 
Q 3713 922 3314 415 
Q 2916 -91 2278 -91 
Q 1894 -91 1617 61 
Q 1341 213 1159 525 
L 1159 0 
L 581 0 
L 581 4863 
L 1159 4863 
L 1159 2969 
z
" transform="scale(0.015625)"/>
       </defs>
       <use xlink:href="#DejaVuSans-13af"/>
       <use xlink:href="#DejaVuSans-45" transform="translate(62.984375 0)"/>
      </g>
     </g>
    </g>
    <g id="xtick_2">
     <g id="line2d_2">
      <g>
       <use xlink:href="#m1e79963d2f" x="181.679005" y="309.355545" style="stroke: #000000; stroke-width: 0.8"/>
      </g>
     </g>
     <g id="text_2">
      <!-- matmul -->
      <g transform="translate(149.243165 337.252409) rotate(-25) scale(0.09 -0.09)">
       <defs>
        <path id="DejaVuSans-50" d="M 3328 2828 
Q 3544 3216 3844 3400 
Q 4144 3584 4550 3584 
Q 5097 3584 5394 3201 
Q 5691 2819 5691 2113 
L 5691 0 
L 5113 0 
L 5113 2094 
Q 5113 2597 4934 2840 
Q 4756 3084 4391 3084 
Q 3944 3084 3684 2787 
Q 3425 2491 3425 1978 
L 3425 0 
L 2847 0 
L 2847 2094 
Q 2847 2600 2669 2842 
Q 2491 3084 2119 3084 
Q 1678 3084 1418 2786 
Q 1159 2488 1159 1978 
L 1159 0 
L 581 0 
L 581 3500 
L 1159 3500 
L 1159 2956 
Q 1356 3278 1631 3431 
Q 1906 3584 2284 3584 
Q 2666 3584 2933 3390 
Q 3200 3197 3328 2828 
z
" transform="scale(0.015625)"/>
        <path id="DejaVuSans-44" d="M 2194 1759 
Q 1497 1759 1228 1600 
Q 959 1441 959 1056 
Q 959 750 1161 570 
Q 1363 391 1709 391 
Q 2188 391 2477 730 
Q 2766 1069 2766 1631 
L 2766 1759 
L 2194 1759 
z
M 3341 1997 
L 3341 0 
L 2766 0 
L 2766 531 
Q 2569 213 2275 61 
Q 1981 -91 1556 -91 
Q 1019 -91 701 211 
Q 384 513 384 1019 
Q 384 1609 779 1909 
Q 1175 2209 1959 2209 
L 2766 2209 
L 2766 2266 
Q 2766 2663 2505 2880 
Q 2244 3097 1772 3097 
Q 1472 3097 1187 3025 
Q 903 2953 641 2809 
L 641 3341 
Q 956 3463 1253 3523 
Q 1550 3584 1831 3584 
Q 2591 3584 2966 3190 
Q 3341 2797 3341 1997 
z
" transform="scale(0.015625)"/>
        <path id="DejaVuSans-57" d="M 1172 4494 
L 1172 3500 
L 2356 3500 
L 2356 3053 
L 1172 3053 
L 1172 1153 
Q 1172 725 1289 603 
Q 1406 481 1766 481 
L 2356 481 
L 2356 0 
L 1766 0 
Q 1100 0 847 248 
Q 594 497 594 1153 
L 594 3053 
L 172 3053 
L 172 3500 
L 594 3500 
L 594 4494 
L 1172 4494 
z
" transform="scale(0.015625)"/>
        <path id="DejaVuSans-58" d="M 544 1381 
L 544 3500 
L 1119 3500 
L 1119 1403 
Q 1119 906 1312 657 
Q 1506 409 1894 409 
Q 2359 409 2629 706 
Q 2900 1003 2900 1516 
L 2900 3500 
L 3475 3500 
L 3475 0 
L 2900 0 
L 2900 538 
Q 2691 219 2414 64 
Q 2138 -91 1772 -91 
Q 1169 -91 856 284 
Q 544 659 544 1381 
z
M 1991 3584 
L 1991 3584 
z
" transform="scale(0.015625)"/>
        <path id="DejaVuSans-4f" d="M 603 4863 
L 1178 4863 
L 1178 0 
L 603 0 
L 603 4863 
z
" transform="scale(0.015625)"/>
       </defs>
       <use xlink:href="#DejaVuSans-50"/>
       <use xlink:href="#DejaVuSans-44" transform="translate(97.40625 0)"/>
       <use xlink:href="#DejaVuSans-57" transform="translate(158.6875 0)"/>
       <use xlink:href="#DejaVuSans-50" transform="translate(197.890625 0)"/>
       <use xlink:href="#DejaVuSans-58" transform="translate(295.296875 0)"/>
       <use xlink:href="#DejaVuSans-4f" transform="translate(358.671875 0)"/>
      </g>
     </g>
    </g>
    <g id="xtick_3">
     <g id="line2d_3">
      <g>
       <use xlink:href="#m1e79963d2f" x="254.591246" y="309.355545" style="stroke: #000000; stroke-width: 0.8"/>
      </g>
     </g>
     <g id="text_3">
      <!-- float -->
      <g transform="translate(235.352806 331.098361) rotate(-25) scale(0.09 -0.09)">
       <defs>
        <path id="DejaVuSans-13b0" d="M 1831 4863 
L 3431 4863 
L 3431 0 
L 2853 0 
L 2853 4384 
L 1825 4384 
Q 1516 4384 1395 4259 
Q 1275 4134 1275 3809 
L 1275 3500 
L 2222 3500 
L 2222 3053 
L 1275 3053 
L 1275 0 
L 697 0 
L 697 3053 
L 147 3053 
L 147 3500 
L 697 3500 
L 697 3744 
Q 697 4328 969 4595 
Q 1241 4863 1831 4863 
z
" transform="scale(0.015625)"/>
        <path id="DejaVuSans-52" d="M 1959 3097 
Q 1497 3097 1228 2736 
Q 959 2375 959 1747 
Q 959 1119 1226 758 
Q 1494 397 1959 397 
Q 2419 397 2687 759 
Q 2956 1122 2956 1747 
Q 2956 2369 2687 2733 
Q 2419 3097 1959 3097 
z
M 1959 3584 
Q 2709 3584 3137 3096 
Q 3566 2609 3566 1747 
Q 3566 888 3137 398 
Q 2709 -91 1959 -91 
Q 1206 -91 779 398 
Q 353 888 353 1747 
Q 353 2609 779 3096 
Q 1206 3584 1959 3584 
z
" transform="scale(0.015625)"/>
       </defs>
       <use xlink:href="#DejaVuSans-13b0"/>
       <use xlink:href="#DejaVuSans-52" transform="translate(62.984375 0)"/>
       <use xlink:href="#DejaVuSans-44" transform="translate(124.171875 0)"/>
       <use xlink:href="#DejaVuSans-57" transform="translate(185.453125 0)"/>
      </g>
     </g>
    </g>
    <g id="xtick_4">
     <g id="line2d_4">
      <g>
       <use xlink:href="#m1e79963d2f" x="327.503488" y="309.355545" style="stroke: #000000; stroke-width: 0.8"/>
      </g>
     </g>
     <g id="text_4">
      <!-- struct -->
      <g transform="translate(302.937657 333.581927) rotate(-25) scale(0.09 -0.09)">
       <defs>
        <path id="DejaVuSans-56" d="M 2834 3397 
L 2834 2853 
Q 2591 2978 2328 3040 
Q 2066 3103 1784 3103 
Q 1356 3103 1142 2972 
Q 928 2841 928 2578 
Q 928 2378 1081 2264 
Q 1234 2150 1697 2047 
L 1894 2003 
Q 2506 1872 2764 1633 
Q 3022 1394 3022 966 
Q 3022 478 2636 193 
Q 2250 -91 1575 -91 
Q 1294 -91 989 -36 
Q 684 19 347 128 
L 347 722 
Q 666 556 975 473 
Q 1284 391 1588 391 
Q 1994 391 2212 530 
Q 2431 669 2431 922 
Q 2431 1156 2273 1281 
Q 2116 1406 1581 1522 
L 1381 1569 
Q 847 1681 609 1914 
Q 372 2147 372 2553 
Q 372 3047 722 3315 
Q 1072 3584 1716 3584 
Q 2034 3584 2315 3537 
Q 2597 3491 2834 3397 
z
" transform="scale(0.015625)"/>
        <path id="DejaVuSans-55" d="M 2631 2963 
Q 2534 3019 2420 3045 
Q 2306 3072 2169 3072 
Q 1681 3072 1420 2755 
Q 1159 2438 1159 1844 
L 1159 0 
L 581 0 
L 581 3500 
L 1159 3500 
L 1159 2956 
Q 1341 3275 1631 3429 
Q 1922 3584 2338 3584 
Q 2397 3584 2469 3576 
Q 2541 3569 2628 3553 
L 2631 2963 
z
" transform="scale(0.015625)"/>
        <path id="DejaVuSans-46" d="M 3122 3366 
L 3122 2828 
Q 2878 2963 2633 3030 
Q 2388 3097 2138 3097 
Q 1578 3097 1268 2742 
Q 959 2388 959 1747 
Q 959 1106 1268 751 
Q 1578 397 2138 397 
Q 2388 397 2633 464 
Q 2878 531 3122 666 
L 3122 134 
Q 2881 22 2623 -34 
Q 2366 -91 2075 -91 
Q 1284 -91 818 406 
Q 353 903 353 1747 
Q 353 2603 823 3093 
Q 1294 3584 2113 3584 
Q 2378 3584 2631 3529 
Q 2884 3475 3122 3366 
z
" transform="scale(0.015625)"/>
       </defs>
       <use xlink:href="#DejaVuSans-56"/>
       <use xlink:href="#DejaVuSans-57" transform="translate(52.09375 0)"/>
       <use xlink:href="#DejaVuSans-55" transform="translate(91.296875 0)"/>
       <use xlink:href="#DejaVuSans-58" transform="translate(132.40625 0)"/>
       <use xlink:href="#DejaVuSans-46" transform="translate(195.78125 0)"/>
       <use xlink:href="#DejaVuSans-57" transform="translate(250.765625 0)"/>
      </g>
     </g>
    </g>
    <g id="xtick_5">
     <g id="line2d_5">
      <g>
       <use xlink:href="#m1e79963d2f" x="400.41573" y="309.355545" style="stroke: #000000; stroke-width: 0.8"/>
      </g>
     </g>
     <g id="text_5">
      <!-- prime -->
      <g transform="translate(375.740293 333.633674) rotate(-25) scale(0.09 -0.09)">
       <defs>
        <path id="DejaVuSans-53" d="M 1159 525 
L 1159 -1331 
L 581 -1331 
L 581 3500 
L 1159 3500 
L 1159 2969 
Q 1341 3281 1617 3432 
Q 1894 3584 2278 3584 
Q 2916 3584 3314 3078 
Q 3713 2572 3713 1747 
Q 3713 922 3314 415 
Q 2916 -91 2278 -91 
Q 1894 -91 1617 61 
Q 1341 213 1159 525 
z
M 3116 1747 
Q 3116 2381 2855 2742 
Q 2594 3103 2138 3103 
Q 1681 3103 1420 2742 
Q 1159 2381 1159 1747 
Q 1159 1113 1420 752 
Q 1681 391 2138 391 
Q 2594 391 2855 752 
Q 3116 1113 3116 1747 
z
" transform="scale(0.015625)"/>
        <path id="DejaVuSans-4c" d="M 603 3500 
L 1178 3500 
L 1178 0 
L 603 0 
L 603 3500 
z
M 603 4863 
L 1178 4863 
L 1178 4134 
L 603 4134 
L 603 4863 
z
" transform="scale(0.015625)"/>
        <path id="DejaVuSans-48" d="M 3597 1894 
L 3597 1613 
L 953 1613 
Q 991 1019 1311 708 
Q 1631 397 2203 397 
Q 2534 397 2845 478 
Q 3156 559 3463 722 
L 3463 178 
Q 3153 47 2828 -22 
Q 2503 -91 2169 -91 
Q 1331 -91 842 396 
Q 353 884 353 1716 
Q 353 2575 817 3079 
Q 1281 3584 2069 3584 
Q 2775 3584 3186 3129 
Q 3597 2675 3597 1894 
z
M 3022 2063 
Q 3016 2534 2758 2815 
Q 2500 3097 2075 3097 
Q 1594 3097 1305 2825 
Q 1016 2553 972 2059 
L 3022 2063 
z
" transform="scale(0.015625)"/>
       </defs>
       <use xlink:href="#DejaVuSans-53"/>
       <use xlink:href="#DejaVuSans-55" transform="translate(63.484375 0)"/>
       <use xlink:href="#DejaVuSans-4c" transform="translate(104.59375 0)"/>
       <use xlink:href="#DejaVuSans-50" transform="translate(132.375 0)"/>
       <use xlink:href="#DejaVuSans-48" transform="translate(229.78125 0)"/>
      </g>
     </g>
    </g>
    <g id="xtick_6">
     <g id="line2d_6">
      <g>
       <use xlink:href="#m1e79963d2f" x="473.327972" y="309.355545" style="stroke: #000000; stroke-width: 0.8"/>
      </g>
     </g>
     <g id="text_6">
      <!-- mixed -->
      <g transform="translate(447.429019 334.204209) rotate(-25) scale(0.09 -0.09)">
       <defs>
        <path id="DejaVuSans-5b" d="M 3513 3500 
L 2247 1797 
L 3578 0 
L 2900 0 
L 1881 1375 
L 863 0 
L 184 0 
L 1544 1831 
L 300 3500 
L 978 3500 
L 1906 2253 
L 2834 3500 
L 3513 3500 
z
" transform="scale(0.015625)"/>
        <path id="DejaVuSans-47" d="M 2906 2969 
L 2906 4863 
L 3481 4863 
L 3481 0 
L 2906 0 
L 2906 525 
Q 2725 213 2448 61 
Q 2172 -91 1784 -91 
Q 1150 -91 751 415 
Q 353 922 353 1747 
Q 353 2572 751 3078 
Q 1150 3584 1784 3584 
Q 2172 3584 2448 3432 
Q 2725 3281 2906 2969 
z
M 947 1747 
Q 947 1113 1208 752 
Q 1469 391 1925 391 
Q 2381 391 2643 752 
Q 2906 1113 2906 1747 
Q 2906 2381 2643 2742 
Q 2381 3103 1925 3103 
Q 1469 3103 1208 2742 
Q 947 2381 947 1747 
z
" transform="scale(0.015625)"/>
       </defs>
       <use xlink:href="#DejaVuSans-50"/>
       <use xlink:href="#DejaVuSans-4c" transform="translate(97.40625 0)"/>
       <use xlink:href="#DejaVuSans-5b" transform="translate(125.1875 0)"/>
       <use xlink:href="#DejaVuSans-48" transform="translate(181.296875 0)"/>
       <use xlink:href="#DejaVuSans-47" transform="translate(242.828125 0)"/>
      </g>
     </g>
    </g>
    <g id="xtick_7">
     <g id="line2d_7">
      <g>
       <use xlink:href="#m1e79963d2f" x="546.240214" y="309.355545" style="stroke: #000000; stroke-width: 0.8"/>
      </g>
     </g>
     <g id="text_7">
      <!-- constfold -->
      <g transform="translate(507.927676 339.992758) rotate(-25) scale(0.09 -0.09)">
       <defs>
        <path id="DejaVuSans-51" d="M 3513 2113 
L 3513 0 
L 2938 0 
L 2938 2094 
Q 2938 2591 2744 2837 
Q 2550 3084 2163 3084 
Q 1697 3084 1428 2787 
Q 1159 2491 1159 1978 
L 1159 0 
L 581 0 
L 581 3500 
L 1159 3500 
L 1159 2956 
Q 1366 3272 1645 3428 
Q 1925 3584 2291 3584 
Q 2894 3584 3203 3211 
Q 3513 2838 3513 2113 
z
" transform="scale(0.015625)"/>
        <path id="DejaVuSans-49" d="M 2375 4863 
L 2375 4384 
L 1825 4384 
Q 1516 4384 1395 4259 
Q 1275 4134 1275 3809 
L 1275 3500 
L 2222 3500 
L 2222 3053 
L 1275 3053 
L 1275 0 
L 697 0 
L 697 3053 
L 147 3053 
L 147 3500 
L 697 3500 
L 697 3744 
Q 697 4328 969 4595 
Q 1241 4863 1831 4863 
L 2375 4863 
z
" transform="scale(0.015625)"/>
       </defs>
       <use xlink:href="#DejaVuSans-46"/>
       <use xlink:href="#DejaVuSans-52" transform="translate(54.984375 0)"/>
       <use xlink:href="#DejaVuSans-51" transform="translate(116.171875 0)"/>
       <use xlink:href="#DejaVuSans-56" transform="translate(179.546875 0)"/>
       <use xlink:href="#DejaVuSans-57" transform="translate(231.640625 0)"/>
       <use xlink:href="#DejaVuSans-49" transform="translate(270.84375 0)"/>
       <use xlink:href="#DejaVuSans-52" transform="translate(306.046875 0)"/>
       <use xlink:href="#DejaVuSans-4f" transform="translate(367.234375 0)"/>
       <use xlink:href="#DejaVuSans-47" transform="translate(395.015625 0)"/>
      </g>
     </g>
    </g>
    <g id="xtick_8">
     <g id="line2d_8">
      <g>
       <use xlink:href="#m1e79963d2f" x="619.152456" y="309.355545" style="stroke: #000000; stroke-width: 0.8"/>
      </g>
     </g>
     <g id="text_8">
      <!-- conststore -->
      <g transform="translate(575.516351 342.474541) rotate(-25) scale(0.09 -0.09)">
       <use xlink:href="#DejaVuSans-46"/>
       <use xlink:href="#DejaVuSans-52" transform="translate(54.984375 0)"/>
       <use xlink:href="#DejaVuSans-51" transform="translate(116.171875 0)"/>
       <use xlink:href="#DejaVuSans-56" transform="translate(179.546875 0)"/>
       <use xlink:href="#DejaVuSans-57" transform="translate(231.640625 0)"/>
       <use xlink:href="#DejaVuSans-56" transform="translate(270.84375 0)"/>
       <use xlink:href="#DejaVuSans-57" transform="translate(322.9375 0)"/>
       <use xlink:href="#DejaVuSans-52" transform="translate(362.140625 0)"/>
       <use xlink:href="#DejaVuSans-55" transform="translate(423.328125 0)"/>
       <use xlink:href="#DejaVuSans-48" transform="translate(462.234375 0)"/>
      </g>
     </g>
    </g>
   </g>
   <g id="matplotlib.axis_2">
    <g id="ytick_1">
     <g id="line2d_9">
      <path d="M 51.700781 206.328984 
L 676.218437 206.328984 
" clip-path="url(#pacdf84c4ef)" style="fill: none; stroke-dasharray: 0.8,1.32; stroke-dashoffset: 0; stroke: #b0b0b0; stroke-opacity: 0.4; stroke-width: 0.8"/>
     </g>
     <g id="line2d_10">
      <defs>
       <path id="ma71fdc8acc" d="M 0 0 
L -3.5 0 
" style="stroke: #000000; stroke-width: 0.8"/>
      </defs>
      <g>
       <use xlink:href="#ma71fdc8acc" x="51.700781" y="206.328984" style="stroke: #000000; stroke-width: 0.8"/>
      </g>
     </g>
     <g id="text_9">
      <!-- $\mathdefault{10^{-2}}$ -->
      <g transform="translate(21.200781 211.028984) scale(0.1 -0.1)">
       <defs>
        <path id="DejaVuSans-14" d="M 794 531 
L 1825 531 
L 1825 4091 
L 703 3866 
L 703 4441 
L 1819 4666 
L 2450 4666 
L 2450 531 
L 3481 531 
L 3481 0 
L 794 0 
L 794 531 
z
" transform="scale(0.015625)"/>
        <path id="DejaVuSans-13" d="M 2034 4250 
Q 1547 4250 1301 3770 
Q 1056 3291 1056 2328 
Q 1056 1369 1301 889 
Q 1547 409 2034 409 
Q 2525 409 2770 889 
Q 3016 1369 3016 2328 
Q 3016 3291 2770 3770 
Q 2525 4250 2034 4250 
z
M 2034 4750 
Q 2819 4750 3233 4129 
Q 3647 3509 3647 2328 
Q 3647 1150 3233 529 
Q 2819 -91 2034 -91 
Q 1250 -91 836 529 
Q 422 1150 422 2328 
Q 422 3509 836 4129 
Q 1250 4750 2034 4750 
z
" transform="scale(0.015625)"/>
        <path id="DejaVuSans-c9c" d="M 678 2272 
L 4684 2272 
L 4684 1741 
L 678 1741 
L 678 2272 
z
" transform="scale(0.015625)"/>
        <path id="DejaVuSans-15" d="M 1228 531 
L 3431 531 
L 3431 0 
L 469 0 
L 469 531 
Q 828 903 1448 1529 
Q 2069 2156 2228 2338 
Q 2531 2678 2651 2914 
Q 2772 3150 2772 3378 
Q 2772 3750 2511 3984 
Q 2250 4219 1831 4219 
Q 1534 4219 1204 4116 
Q 875 4013 500 3803 
L 500 4441 
Q 881 4594 1212 4672 
Q 1544 4750 1819 4750 
Q 2544 4750 2975 4387 
Q 3406 4025 3406 3419 
Q 3406 3131 3298 2873 
Q 3191 2616 2906 2266 
Q 2828 2175 2409 1742 
Q 1991 1309 1228 531 
z
" transform="scale(0.015625)"/>
       </defs>
       <use xlink:href="#DejaVuSans-14" transform="translate(0 0.746875)"/>
       <use xlink:href="#DejaVuSans-13" transform="translate(63.623047 0.746875)"/>
       <use xlink:href="#DejaVuSans-c9c" transform="translate(128.203125 42.046875) scale(0.7)"/>
       <use xlink:href="#DejaVuSans-15" transform="translate(186.855469 42.046875) scale(0.7)"/>
      </g>
     </g>
    </g>
    <g id="ytick_2">
     <g id="line2d_11">
      <path d="M 51.700781 36.760832 
L 676.218437 36.760832 
" clip-path="url(#pacdf84c4ef)" style="fill: none; stroke-dasharray: 0.8,1.32; stroke-dashoffset: 0; stroke: #b0b0b0; stroke-opacity: 0.4; stroke-width: 0.8"/>
     </g>
     <g id="line2d_12">
      <g>
       <use xlink:href="#ma71fdc8acc" x="51.700781" y="36.760832" style="stroke: #000000; stroke-width: 0.8"/>
      </g>
     </g>
     <g id="text_10">
      <!-- $\mathdefault{10^{-1}}$ -->
      <g transform="translate(21.200781 41.410832) scale(0.1 -0.1)">
       <use xlink:href="#DejaVuSans-14" transform="translate(0 0.665625)"/>
       <use xlink:href="#DejaVuSans-13" transform="translate(63.623047 0.665625)"/>
       <use xlink:href="#DejaVuSans-c9c" transform="translate(128.203125 41.965625) scale(0.7)"/>
       <use xlink:href="#DejaVuSans-14" transform="translate(186.855469 41.965625) scale(0.7)"/>
      </g>
     </g>
    </g>
    <g id="ytick_3">
     <g id="line2d_13">
      <path d="M 51.700781 294.992567 
L 676.218437 294.992567 
" clip-path="url(#pacdf84c4ef)" style="fill: none; stroke-dasharray: 0.8,1.32; stroke-dashoffset: 0; stroke: #b0b0b0; stroke-opacity: 0.4; stroke-width: 0.8"/>
     </g>
     <g id="line2d_14">
      <defs>
       <path id="m9d8ac9bfbf" d="M 0 0 
L -2 0 
" style="stroke: #000000; stroke-width: 0.6"/>
      </defs>
      <g>
       <use xlink:href="#m9d8ac9bfbf" x="51.700781" y="294.992567" style="stroke: #000000; stroke-width: 0.6"/>
      </g>
     </g>
    </g>
    <g id="ytick_4">
     <g id="line2d_15">
      <path d="M 51.700781 273.806937 
L 676.218437 273.806937 
" clip-path="url(#pacdf84c4ef)" style="fill: none; stroke-dasharray: 0.8,1.32; stroke-dashoffset: 0; stroke: #b0b0b0; stroke-opacity: 0.4; stroke-width: 0.8"/>
     </g>
     <g id="line2d_16">
      <g>
       <use xlink:href="#m9d8ac9bfbf" x="51.700781" y="273.806937" style="stroke: #000000; stroke-width: 0.6"/>
      </g>
     </g>
    </g>
    <g id="ytick_5">
     <g id="line2d_17">
      <path d="M 51.700781 257.374085 
L 676.218437 257.374085 
" clip-path="url(#pacdf84c4ef)" style="fill: none; stroke-dasharray: 0.8,1.32; stroke-dashoffset: 0; stroke: #b0b0b0; stroke-opacity: 0.4; stroke-width: 0.8"/>
     </g>
     <g id="line2d_18">
      <g>
       <use xlink:href="#m9d8ac9bfbf" x="51.700781" y="257.374085" style="stroke: #000000; stroke-width: 0.6"/>
      </g>
     </g>
    </g>
    <g id="ytick_6">
     <g id="line2d_19">
      <path d="M 51.700781 243.947467 
L 676.218437 243.947467 
" clip-path="url(#pacdf84c4ef)" style="fill: none; stroke-dasharray: 0.8,1.32; stroke-dashoffset: 0; stroke: #b0b0b0; stroke-opacity: 0.4; stroke-width: 0.8"/>
     </g>
     <g id="line2d_20">
      <g>
       <use xlink:href="#m9d8ac9bfbf" x="51.700781" y="243.947467" style="stroke: #000000; stroke-width: 0.6"/>
      </g>
     </g>
    </g>
    <g id="ytick_7">
     <g id="line2d_21">
      <path d="M 51.700781 232.595424 
L 676.218437 232.595424 
" clip-path="url(#pacdf84c4ef)" style="fill: none; stroke-dasharray: 0.8,1.32; stroke-dashoffset: 0; stroke: #b0b0b0; stroke-opacity: 0.4; stroke-width: 0.8"/>
     </g>
     <g id="line2d_22">
      <g>
       <use xlink:href="#m9d8ac9bfbf" x="51.700781" y="232.595424" style="stroke: #000000; stroke-width: 0.6"/>
      </g>
     </g>
    </g>
    <g id="ytick_8">
     <g id="line2d_23">
      <path d="M 51.700781 222.761836 
L 676.218437 222.761836 
" clip-path="url(#pacdf84c4ef)" style="fill: none; stroke-dasharray: 0.8,1.32; stroke-dashoffset: 0; stroke: #b0b0b0; stroke-opacity: 0.4; stroke-width: 0.8"/>
     </g>
     <g id="line2d_24">
      <g>
       <use xlink:href="#m9d8ac9bfbf" x="51.700781" y="222.761836" style="stroke: #000000; stroke-width: 0.6"/>
      </g>
     </g>
    </g>
    <g id="ytick_9">
     <g id="line2d_25">
      <path d="M 51.700781 214.087998 
L 676.218437 214.087998 
" clip-path="url(#pacdf84c4ef)" style="fill: none; stroke-dasharray: 0.8,1.32; stroke-dashoffset: 0; stroke: #b0b0b0; stroke-opacity: 0.4; stroke-width: 0.8"/>
     </g>
     <g id="line2d_26">
      <g>
       <use xlink:href="#m9d8ac9bfbf" x="51.700781" y="214.087998" style="stroke: #000000; stroke-width: 0.6"/>
      </g>
     </g>
    </g>
    <g id="ytick_10">
     <g id="line2d_27">
      <path d="M 51.700781 155.283884 
L 676.218437 155.283884 
" clip-path="url(#pacdf84c4ef)" style="fill: none; stroke-dasharray: 0.8,1.32; stroke-dashoffset: 0; stroke: #b0b0b0; stroke-opacity: 0.4; stroke-width: 0.8"/>
     </g>
     <g id="line2d_28">
      <g>
       <use xlink:href="#m9d8ac9bfbf" x="51.700781" y="155.283884" style="stroke: #000000; stroke-width: 0.6"/>
      </g>
     </g>
    </g>
    <g id="ytick_11">
     <g id="line2d_29">
      <path d="M 51.700781 125.424415 
L 676.218437 125.424415 
" clip-path="url(#pacdf84c4ef)" style="fill: none; stroke-dasharray: 0.8,1.32; stroke-dashoffset: 0; stroke: #b0b0b0; stroke-opacity: 0.4; stroke-width: 0.8"/>
     </g>
     <g id="line2d_30">
      <g>
       <use xlink:href="#m9d8ac9bfbf" x="51.700781" y="125.424415" style="stroke: #000000; stroke-width: 0.6"/>
      </g>
     </g>
    </g>
    <g id="ytick_12">
     <g id="line2d_31">
      <path d="M 51.700781 104.238784 
L 676.218437 104.238784 
" clip-path="url(#pacdf84c4ef)" style="fill: none; stroke-dasharray: 0.8,1.32; stroke-dashoffset: 0; stroke: #b0b0b0; stroke-opacity: 0.4; stroke-width: 0.8"/>
     </g>
     <g id="line2d_32">
      <g>
       <use xlink:href="#m9d8ac9bfbf" x="51.700781" y="104.238784" style="stroke: #000000; stroke-width: 0.6"/>
      </g>
     </g>
    </g>
    <g id="ytick_13">
     <g id="line2d_33">
      <path d="M 51.700781 87.805932 
L 676.218437 87.805932 
" clip-path="url(#pacdf84c4ef)" style="fill: none; stroke-dasharray: 0.8,1.32; stroke-dashoffset: 0; stroke: #b0b0b0; stroke-opacity: 0.4; stroke-width: 0.8"/>
     </g>
     <g id="line2d_34">
      <g>
       <use xlink:href="#m9d8ac9bfbf" x="51.700781" y="87.805932" style="stroke: #000000; stroke-width: 0.6"/>
      </g>
     </g>
    </g>
    <g id="ytick_14">
     <g id="line2d_35">
      <path d="M 51.700781 74.379314 
L 676.218437 74.379314 
" clip-path="url(#pacdf84c4ef)" style="fill: none; stroke-dasharray: 0.8,1.32; stroke-dashoffset: 0; stroke: #b0b0b0; stroke-opacity: 0.4; stroke-width: 0.8"/>
     </g>
     <g id="line2d_36">
      <g>
       <use xlink:href="#m9d8ac9bfbf" x="51.700781" y="74.379314" style="stroke: #000000; stroke-width: 0.6"/>
      </g>
     </g>
    </g>
    <g id="ytick_15">
     <g id="line2d_37">
      <path d="M 51.700781 63.027271 
L 676.218437 63.027271 
" clip-path="url(#pacdf84c4ef)" style="fill: none; stroke-dasharray: 0.8,1.32; stroke-dashoffset: 0; stroke: #b0b0b0; stroke-opacity: 0.4; stroke-width: 0.8"/>
     </g>
     <g id="line2d_38">
      <g>
       <use xlink:href="#m9d8ac9bfbf" x="51.700781" y="63.027271" style="stroke: #000000; stroke-width: 0.6"/>
      </g>
     </g>
    </g>
    <g id="ytick_16">
     <g id="line2d_39">
      <path d="M 51.700781 53.193684 
L 676.218437 53.193684 
" clip-path="url(#pacdf84c4ef)" style="fill: none; stroke-dasharray: 0.8,1.32; stroke-dashoffset: 0; stroke: #b0b0b0; stroke-opacity: 0.4; stroke-width: 0.8"/>
     </g>
     <g id="line2d_40">
      <g>
       <use xlink:href="#m9d8ac9bfbf" x="51.700781" y="53.193684" style="stroke: #000000; stroke-width: 0.6"/>
      </g>
     </g>
    </g>
    <g id="ytick_17">
     <g id="line2d_41">
      <path d="M 51.700781 44.519845 
L 676.218437 44.519845 
" clip-path="url(#pacdf84c4ef)" style="fill: none; stroke-dasharray: 0.8,1.32; stroke-dashoffset: 0; stroke: #b0b0b0; stroke-opacity: 0.4; stroke-width: 0.8"/>
     </g>
     <g id="line2d_42">
      <g>
       <use xlink:href="#m9d8ac9bfbf" x="51.700781" y="44.519845" style="stroke: #000000; stroke-width: 0.6"/>
      </g>
     </g>
    </g>
    <g id="text_11">
     <!-- segundos -->
     <g transform="translate(14.798438 190.108085) rotate(-90) scale(0.1 -0.1)">
      <defs>
       <path id="DejaVuSans-4a" d="M 2906 1791 
Q 2906 2416 2648 2759 
Q 2391 3103 1925 3103 
Q 1463 3103 1205 2759 
Q 947 2416 947 1791 
Q 947 1169 1205 825 
Q 1463 481 1925 481 
Q 2391 481 2648 825 
Q 2906 1169 2906 1791 
z
M 3481 434 
Q 3481 -459 3084 -895 
Q 2688 -1331 1869 -1331 
Q 1566 -1331 1297 -1286 
Q 1028 -1241 775 -1147 
L 775 -588 
Q 1028 -725 1275 -790 
Q 1522 -856 1778 -856 
Q 2344 -856 2625 -561 
Q 2906 -266 2906 331 
L 2906 616 
Q 2728 306 2450 153 
Q 2172 0 1784 0 
Q 1141 0 747 490 
Q 353 981 353 1791 
Q 353 2603 747 3093 
Q 1141 3584 1784 3584 
Q 2172 3584 2450 3431 
Q 2728 3278 2906 2969 
L 2906 3500 
L 3481 3500 
L 3481 434 
z
" transform="scale(0.015625)"/>
      </defs>
      <use xlink:href="#DejaVuSans-56"/>
      <use xlink:href="#DejaVuSans-48" transform="translate(52.09375 0)"/>
      <use xlink:href="#DejaVuSans-4a" transform="translate(113.625 0)"/>
      <use xlink:href="#DejaVuSans-58" transform="translate(177.109375 0)"/>
      <use xlink:href="#DejaVuSans-51" transform="translate(240.484375 0)"/>
      <use xlink:href="#DejaVuSans-47" transform="translate(303.859375 0)"/>
      <use xlink:href="#DejaVuSans-52" transform="translate(367.34375 0)"/>
      <use xlink:href="#DejaVuSans-56" transform="translate(428.53125 0)"/>
     </g>
    </g>
   </g>
   <g id="patch_3">
    <path d="M 80.087947 169435.345333 
L 88.837416 169435.345333 
L 88.837416 263.179087 
L 80.087947 263.179087 
z
" clip-path="url(#pacdf84c4ef)" style="fill: #4c72b0"/>
   </g>
   <g id="patch_4">
    <path d="M 153.000189 169435.345333 
L 161.749658 169435.345333 
L 161.749658 296.330208 
L 153.000189 296.330208 
z
" clip-path="url(#pacdf84c4ef)" style="fill: #4c72b0"/>
   </g>
   <g id="patch_5">
    <path d="M 225.912431 169435.345333 
L 234.6619 169435.345333 
L 234.6619 283.116376 
L 225.912431 283.116376 
z
" clip-path="url(#pacdf84c4ef)" style="fill: #4c72b0"/>
   </g>
   <g id="patch_6">
    <path d="M 298.824673 169435.345333 
L 307.574142 169435.345333 
L 307.574142 290.910216 
L 298.824673 290.910216 
z
" clip-path="url(#pacdf84c4ef)" style="fill: #4c72b0"/>
   </g>
   <g id="patch_7">
    <path d="M 371.736915 169435.345333 
L 380.486384 169435.345333 
L 380.486384 292.815783 
L 371.736915 292.815783 
z
" clip-path="url(#pacdf84c4ef)" style="fill: #4c72b0"/>
   </g>
   <g id="patch_8">
    <path d="M 444.649157 169435.345333 
L 453.398626 169435.345333 
L 453.398626 289.370435 
L 444.649157 289.370435 
z
" clip-path="url(#pacdf84c4ef)" style="fill: #4c72b0"/>
   </g>
   <g id="patch_9">
    <path d="M 517.561399 169435.345333 
L 526.310868 169435.345333 
L 526.310868 295.509878 
L 517.561399 295.509878 
z
" clip-path="url(#pacdf84c4ef)" style="fill: #4c72b0"/>
   </g>
   <g id="patch_10">
    <path d="M 590.473641 169435.345333 
L 599.22311 169435.345333 
L 599.22311 292.791954 
L 590.473641 292.791954 
z
" clip-path="url(#pacdf84c4ef)" style="fill: #4c72b0"/>
   </g>
   <g id="patch_11">
    <path d="M 89.80958 169435.345333 
L 98.559049 169435.345333 
L 98.559049 88.912957 
L 89.80958 88.912957 
z
" clip-path="url(#pacdf84c4ef)" style="fill: #55a868"/>
   </g>
   <g id="patch_12">
    <path d="M 162.721822 169435.345333 
L 171.471291 169435.345333 
L 171.471291 119.79546 
L 162.721822 119.79546 
z
" clip-path="url(#pacdf84c4ef)" style="fill: #55a868"/>
   </g>
   <g id="patch_13">
    <path d="M 235.634064 169435.345333 
L 244.383533 169435.345333 
L 244.383533 121.838398 
L 235.634064 121.838398 
z
" clip-path="url(#pacdf84c4ef)" style="fill: #55a868"/>
   </g>
   <g id="patch_14">
    <path d="M 308.546306 169435.345333 
L 317.295775 169435.345333 
L 317.295775 121.572338 
L 308.546306 121.572338 
z
" clip-path="url(#pacdf84c4ef)" style="fill: #55a868"/>
   </g>
   <g id="patch_15">
    <path d="M 381.458547 169435.345333 
L 390.208016 169435.345333 
L 390.208016 117.566787 
L 381.458547 117.566787 
z
" clip-path="url(#pacdf84c4ef)" style="fill: #55a868"/>
   </g>
   <g id="patch_16">
    <path d="M 454.370789 169435.345333 
L 463.120258 169435.345333 
L 463.120258 119.152428 
L 454.370789 119.152428 
z
" clip-path="url(#pacdf84c4ef)" style="fill: #55a868"/>
   </g>
   <g id="patch_17">
    <path d="M 527.283031 169435.345333 
L 536.0325 169435.345333 
L 536.0325 123.002563 
L 527.283031 123.002563 
z
" clip-path="url(#pacdf84c4ef)" style="fill: #55a868"/>
   </g>
   <g id="patch_18">
    <path d="M 600.195273 169435.345333 
L 608.944742 169435.345333 
L 608.944742 120.830599 
L 600.195273 120.830599 
z
" clip-path="url(#pacdf84c4ef)" style="fill: #55a868"/>
   </g>
   <g id="patch_19">
    <path d="M 99.531212 169435.345333 
L 108.280681 169435.345333 
L 108.280681 82.489648 
L 99.531212 82.489648 
z
" clip-path="url(#pacdf84c4ef)" style="fill: #c44e52"/>
   </g>
   <g id="patch_20">
    <path d="M 172.443454 169435.345333 
L 181.192923 169435.345333 
L 181.192923 81.874234 
L 172.443454 81.874234 
z
" clip-path="url(#pacdf84c4ef)" style="fill: #c44e52"/>
   </g>
   <g id="patch_21">
    <path d="M 245.355696 169435.345333 
L 254.105165 169435.345333 
L 254.105165 80.216196 
L 245.355696 80.216196 
z
" clip-path="url(#pacdf84c4ef)" style="fill: #c44e52"/>
   </g>
   <g id="patch_22">
    <path d="M 318.267938 169435.345333 
L 327.017407 169435.345333 
L 327.017407 81.067425 
L 318.267938 81.067425 
z
" clip-path="url(#pacdf84c4ef)" style="fill: #c44e52"/>
   </g>
   <g id="patch_23">
    <path d="M 391.18018 169435.345333 
L 399.929649 169435.345333 
L 399.929649 82.504723 
L 391.18018 82.504723 
z
" clip-path="url(#pacdf84c4ef)" style="fill: #c44e52"/>
   </g>
   <g id="patch_24">
    <path d="M 464.092422 169435.345333 
L 472.841891 169435.345333 
L 472.841891 81.70186 
L 464.092422 81.70186 
z
" clip-path="url(#pacdf84c4ef)" style="fill: #c44e52"/>
   </g>
   <g id="patch_25">
    <path d="M 537.004664 169435.345333 
L 545.754133 169435.345333 
L 545.754133 82.126055 
L 537.004664 82.126055 
z
" clip-path="url(#pacdf84c4ef)" style="fill: #c44e52"/>
   </g>
   <g id="patch_26">
    <path d="M 609.916906 169435.345333 
L 618.666375 169435.345333 
L 618.666375 84.173636 
L 609.916906 84.173636 
z
" clip-path="url(#pacdf84c4ef)" style="fill: #c44e52"/>
   </g>
   <g id="patch_27">
    <path d="M 109.252844 169435.345333 
L 118.002313 169435.345333 
L 118.002313 35.823462 
L 109.252844 35.823462 
z
" clip-path="url(#pacdf84c4ef)" style="fill: #8172b2"/>
   </g>
   <g id="patch_28">
    <path d="M 182.165086 169435.345333 
L 190.914555 169435.345333 
L 190.914555 55.783979 
L 182.165086 55.783979 
z
" clip-path="url(#pacdf84c4ef)" style="fill: #8172b2"/>
   </g>
   <g id="patch_29">
    <path d="M 255.077328 169435.345333 
L 263.826797 169435.345333 
L 263.826797 70.19369 
L 255.077328 70.19369 
z
" clip-path="url(#pacdf84c4ef)" style="fill: #8172b2"/>
   </g>
   <g id="patch_30">
    <path d="M 327.98957 169435.345333 
L 336.739039 169435.345333 
L 336.739039 71.042725 
L 327.98957 71.042725 
z
" clip-path="url(#pacdf84c4ef)" style="fill: #8172b2"/>
   </g>
   <g id="patch_31">
    <path d="M 400.901812 169435.345333 
L 409.651281 169435.345333 
L 409.651281 68.410031 
L 400.901812 68.410031 
z
" clip-path="url(#pacdf84c4ef)" style="fill: #8172b2"/>
   </g>
   <g id="patch_32">
    <path d="M 473.814054 169435.345333 
L 482.563523 169435.345333 
L 482.563523 73.754781 
L 473.814054 73.754781 
z
" clip-path="url(#pacdf84c4ef)" style="fill: #8172b2"/>
   </g>
   <g id="patch_33">
    <path d="M 546.726296 169435.345333 
L 555.475765 169435.345333 
L 555.475765 76.242523 
L 546.726296 76.242523 
z
" clip-path="url(#pacdf84c4ef)" style="fill: #8172b2"/>
   </g>
   <g id="patch_34">
    <path d="M 619.638538 169435.345333 
L 628.388007 169435.345333 
L 628.388007 76.461884 
L 619.638538 76.461884 
z
" clip-path="url(#pacdf84c4ef)" style="fill: #8172b2"/>
   </g>
   <g id="patch_35">
    <path d="M 118.974476 169435.345333 
L 127.723946 169435.345333 
L 127.723946 58.348171 
L 118.974476 58.348171 
z
" clip-path="url(#pacdf84c4ef)" style="fill: #ccb974"/>
   </g>
   <g id="patch_36">
    <path d="M 191.886718 169435.345333 
L 200.636187 169435.345333 
L 200.636187 55.60399 
L 191.886718 55.60399 
z
" clip-path="url(#pacdf84c4ef)" style="fill: #ccb974"/>
   </g>
   <g id="patch_37">
    <path d="M 264.79896 169435.345333 
L 273.548429 169435.345333 
L 273.548429 58.680644 
L 264.79896 58.680644 
z
" clip-path="url(#pacdf84c4ef)" style="fill: #ccb974"/>
   </g>
   <g id="patch_38">
    <path d="M 337.711202 169435.345333 
L 346.460671 169435.345333 
L 346.460671 58.823593 
L 337.711202 58.823593 
z
" clip-path="url(#pacdf84c4ef)" style="fill: #ccb974"/>
   </g>
   <g id="patch_39">
    <path d="M 410.623444 169435.345333 
L 419.372913 169435.345333 
L 419.372913 57.121396 
L 410.623444 57.121396 
z
" clip-path="url(#pacdf84c4ef)" style="fill: #ccb974"/>
   </g>
   <g id="patch_40">
    <path d="M 483.535686 169435.345333 
L 492.285155 169435.345333 
L 492.285155 60.257408 
L 483.535686 60.257408 
z
" clip-path="url(#pacdf84c4ef)" style="fill: #ccb974"/>
   </g>
   <g id="patch_41">
    <path d="M 556.447928 169435.345333 
L 565.197397 169435.345333 
L 565.197397 60.808621 
L 556.447928 60.808621 
z
" clip-path="url(#pacdf84c4ef)" style="fill: #ccb974"/>
   </g>
   <g id="patch_42">
    <path d="M 629.36017 169435.345333 
L 638.109639 169435.345333 
L 638.109639 62.522972 
L 629.36017 62.522972 
z
" clip-path="url(#pacdf84c4ef)" style="fill: #ccb974"/>
   </g>
   <g id="patch_43">
    <path d="M 128.696109 169435.345333 
L 137.445578 169435.345333 
L 137.445578 51.03567 
L 128.696109 51.03567 
z
" clip-path="url(#pacdf84c4ef)" style="fill: #64b5cd"/>
   </g>
   <g id="patch_44">
    <path d="M 201.608351 169435.345333 
L 210.35782 169435.345333 
L 210.35782 41.882944 
L 201.608351 41.882944 
z
" clip-path="url(#pacdf84c4ef)" style="fill: #64b5cd"/>
   </g>
   <g id="patch_45">
    <path d="M 274.520593 169435.345333 
L 283.270062 169435.345333 
L 283.270062 50.972227 
L 274.520593 50.972227 
z
" clip-path="url(#pacdf84c4ef)" style="fill: #64b5cd"/>
   </g>
   <g id="patch_46">
    <path d="M 347.432835 169435.345333 
L 356.182304 169435.345333 
L 356.182304 54.428282 
L 347.432835 54.428282 
z
" clip-path="url(#pacdf84c4ef)" style="fill: #64b5cd"/>
   </g>
   <g id="patch_47">
    <path d="M 420.345076 169435.345333 
L 429.094546 169435.345333 
L 429.094546 51.735368 
L 420.345076 51.735368 
z
" clip-path="url(#pacdf84c4ef)" style="fill: #64b5cd"/>
   </g>
   <g id="patch_48">
    <path d="M 493.257318 169435.345333 
L 502.006787 169435.345333 
L 502.006787 51.425567 
L 493.257318 51.425567 
z
" clip-path="url(#pacdf84c4ef)" style="fill: #64b5cd"/>
   </g>
   <g id="patch_49">
    <path d="M 566.16956 169435.345333 
L 574.919029 169435.345333 
L 574.919029 55.771585 
L 566.16956 55.771585 
z
" clip-path="url(#pacdf84c4ef)" style="fill: #64b5cd"/>
   </g>
   <g id="patch_50">
    <path d="M 639.081802 169435.345333 
L 647.831271 169435.345333 
L 647.831271 52.67724 
L 639.081802 52.67724 
z
" clip-path="url(#pacdf84c4ef)" style="fill: #64b5cd"/>
   </g>
   <g id="patch_51">
    <path d="M 51.700781 309.355545 
L 51.700781 22.798125 
" style="fill: none; stroke: #000000; stroke-width: 0.8; stroke-linejoin: miter; stroke-linecap: square"/>
   </g>
   <g id="patch_52">
    <path d="M 676.218437 309.355545 
L 676.218437 22.798125 
" style="fill: none; stroke: #000000; stroke-width: 0.8; stroke-linejoin: miter; stroke-linecap: square"/>
   </g>
   <g id="patch_53">
    <path d="M 51.700781 309.355545 
L 676.218437 309.355545 
" style="fill: none; stroke: #000000; stroke-width: 0.8; stroke-linejoin: miter; stroke-linecap: square"/>
   </g>
   <g id="patch_54">
    <path d="M 51.700781 22.798125 
L 676.218437 22.798125 
" style="fill: none; stroke: #000000; stroke-width: 0.8; stroke-linejoin: miter; stroke-linecap: square"/>
   </g>
   <g id="text_12">
    <!-- Tiempo de compilación (mediana) -->
    <g transform="translate(261.650234 16.798125) scale(0.12 -0.12)">
     <defs>
      <path id="DejaVuSans-37" d="M -19 4666 
L 3928 4666 
L 3928 4134 
L 2272 4134 
L 2272 0 
L 1638 0 
L 1638 4134 
L -19 4134 
L -19 4666 
z
" transform="scale(0.015625)"/>
      <path id="DejaVuSans-3" transform="scale(0.015625)"/>
      <path id="DejaVuSans-b5" d="M 1959 3097 
Q 1497 3097 1228 2736 
Q 959 2375 959 1747 
Q 959 1119 1226 758 
Q 1494 397 1959 397 
Q 2419 397 2687 759 
Q 2956 1122 2956 1747 
Q 2956 2369 2687 2733 
Q 2419 3097 1959 3097 
z
M 1959 3584 
Q 2709 3584 3137 3096 
Q 3566 2609 3566 1747 
Q 3566 888 3137 398 
Q 2709 -91 1959 -91 
Q 1206 -91 779 398 
Q 353 888 353 1747 
Q 353 2609 779 3096 
Q 1206 3584 1959 3584 
z
M 2393 5119 
L 3015 5119 
L 1997 3944 
L 1518 3944 
L 2393 5119 
z
" transform="scale(0.015625)"/>
      <path id="DejaVuSans-b" d="M 1984 4856 
Q 1566 4138 1362 3434 
Q 1159 2731 1159 2009 
Q 1159 1288 1364 580 
Q 1569 -128 1984 -844 
L 1484 -844 
Q 1016 -109 783 600 
Q 550 1309 550 2009 
Q 550 2706 781 3412 
Q 1013 4119 1484 4856 
L 1984 4856 
z
" transform="scale(0.015625)"/>
      <path id="DejaVuSans-c" d="M 513 4856 
L 1013 4856 
Q 1481 4119 1714 3412 
Q 1947 2706 1947 2009 
Q 1947 1309 1714 600 
Q 1481 -109 1013 -844 
L 513 -844 
Q 928 -128 1133 580 
Q 1338 1288 1338 2009 
Q 1338 2731 1133 3434 
Q 928 4138 513 4856 
z
" transform="scale(0.015625)"/>
     </defs>
     <use xlink:href="#DejaVuSans-37"/>
     <use xlink:href="#DejaVuSans-4c" transform="translate(58 0)"/>
     <use xlink:href="#DejaVuSans-48" transform="translate(85.78125 0)"/>
     <use xlink:href="#DejaVuSans-50" transform="translate(147.3125 0)"/>
     <use xlink:href="#DejaVuSans-53" transform="translate(244.71875 0)"/>
     <use xlink:href="#DejaVuSans-52" transform="translate(308.203125 0)"/>
     <use xlink:href="#DejaVuSans-3" transform="translate(369.390625 0)"/>
     <use xlink:href="#DejaVuSans-47" transform="translate(401.171875 0)"/>
     <use xlink:href="#DejaVuSans-48" transform="translate(464.65625 0)"/>
     <use xlink:href="#DejaVuSans-3" transform="translate(526.1875 0)"/>
     <use xlink:href="#DejaVuSans-46" transform="translate(557.96875 0)"/>
     <use xlink:href="#DejaVuSans-52" transform="translate(612.953125 0)"/>
     <use xlink:href="#DejaVuSans-50" transform="translate(674.140625 0)"/>
     <use xlink:href="#DejaVuSans-53" transform="translate(771.546875 0)"/>
     <use xlink:href="#DejaVuSans-4c" transform="translate(835.03125 0)"/>
     <use xlink:href="#DejaVuSans-4f" transform="translate(862.8125 0)"/>
     <use xlink:href="#DejaVuSans-44" transform="translate(890.59375 0)"/>
     <use xlink:href="#DejaVuSans-46" transform="translate(951.875 0)"/>
     <use xlink:href="#DejaVuSans-4c" transform="translate(1006.859375 0)"/>
     <use xlink:href="#DejaVuSans-b5" transform="translate(1034.640625 0)"/>
     <use xlink:href="#DejaVuSans-51" transform="translate(1095.828125 0)"/>
     <use xlink:href="#DejaVuSans-3" transform="translate(1159.203125 0)"/>
     <use xlink:href="#DejaVuSans-b" transform="translate(1190.984375 0)"/>
     <use xlink:href="#DejaVuSans-50" transform="translate(1230 0)"/>
     <use xlink:href="#DejaVuSans-48" transform="translate(1327.40625 0)"/>
     <use xlink:href="#DejaVuSans-47" transform="translate(1388.9375 0)"/>
     <use xlink:href="#DejaVuSans-4c" transform="translate(1452.421875 0)"/>
     <use xlink:href="#DejaVuSans-44" transform="translate(1480.203125 0)"/>
     <use xlink:href="#DejaVuSans-51" transform="translate(1541.484375 0)"/>
     <use xlink:href="#DejaVuSans-44" transform="translate(1604.859375 0)"/>
     <use xlink:href="#DejaVuSans-c" transform="translate(1666.140625 0)"/>
    </g>
   </g>
   <g id="legend_1">
    <g id="patch_55">
     <path d="M 594.105937 101.201875 
L 670.618438 101.201875 
Q 672.218438 101.201875 672.218438 99.601875 
L 672.218438 28.398125 
Q 672.218438 26.798125 670.618438 26.798125 
L 594.105937 26.798125 
Q 592.505937 26.798125 592.505937 28.398125 
L 592.505937 99.601875 
Q 592.505937 101.201875 594.105937 101.201875 
z
" style="fill: #ffffff; opacity: 0.8; stroke: #cccccc; stroke-linejoin: miter"/>
    </g>
    <g id="patch_56">
     <path d="M 595.705938 36.076875 
L 611.705938 36.076875 
L 611.705938 30.476875 
L 595.705938 30.476875 
z
" style="fill: #4c72b0"/>
    </g>
    <g id="text_13">
     <!-- C- -_Codegen -->
     <g transform="translate(618.105937 36.076875) scale(0.08 -0.08)">
      <defs>
       <path id="DejaVuSans-26" d="M 4122 4306 
L 4122 3641 
Q 3803 3938 3442 4084 
Q 3081 4231 2675 4231 
Q 1875 4231 1450 3742 
Q 1025 3253 1025 2328 
Q 1025 1406 1450 917 
Q 1875 428 2675 428 
Q 3081 428 3442 575 
Q 3803 722 4122 1019 
L 4122 359 
Q 3791 134 3420 21 
Q 3050 -91 2638 -91 
Q 1578 -91 968 557 
Q 359 1206 359 2328 
Q 359 3453 968 4101 
Q 1578 4750 2638 4750 
Q 3056 4750 3426 4639 
Q 3797 4528 4122 4306 
z
" transform="scale(0.015625)"/>
       <path id="DejaVuSans-10" d="M 313 2009 
L 1997 2009 
L 1997 1497 
L 313 1497 
L 313 2009 
z
" transform="scale(0.015625)"/>
       <path id="DejaVuSans-42" d="M 3263 -1063 
L 3263 -1509 
L -63 -1509 
L -63 -1063 
L 3263 -1063 
z
" transform="scale(0.015625)"/>
      </defs>
      <use xlink:href="#DejaVuSans-26"/>
      <use xlink:href="#DejaVuSans-10" transform="translate(69.828125 0)"/>
      <use xlink:href="#DejaVuSans-10" transform="translate(105.90625 0)"/>
      <use xlink:href="#DejaVuSans-42" transform="translate(141.984375 0)"/>
      <use xlink:href="#DejaVuSans-26" transform="translate(191.984375 0)"/>
      <use xlink:href="#DejaVuSans-52" transform="translate(261.8125 0)"/>
      <use xlink:href="#DejaVuSans-47" transform="translate(323 0)"/>
      <use xlink:href="#DejaVuSans-48" transform="translate(386.484375 0)"/>
      <use xlink:href="#DejaVuSans-4a" transform="translate(448.015625 0)"/>
      <use xlink:href="#DejaVuSans-48" transform="translate(511.5 0)"/>
      <use xlink:href="#DejaVuSans-51" transform="translate(573.03125 0)"/>
     </g>
    </g>
    <g id="patch_57">
     <path d="M 595.705938 48.0775 
L 611.705938 48.0775 
L 611.705938 42.4775 
L 595.705938 42.4775 
z
" style="fill: #55a868"/>
    </g>
    <g id="text_14">
     <!-- C- -_Full -->
     <g transform="translate(618.105937 48.0775) scale(0.08 -0.08)">
      <defs>
       <path id="DejaVuSans-29" d="M 628 4666 
L 3309 4666 
L 3309 4134 
L 1259 4134 
L 1259 2759 
L 3109 2759 
L 3109 2228 
L 1259 2228 
L 1259 0 
L 628 0 
L 628 4666 
z
" transform="scale(0.015625)"/>
      </defs>
      <use xlink:href="#DejaVuSans-26"/>
      <use xlink:href="#DejaVuSans-10" transform="translate(69.828125 0)"/>
      <use xlink:href="#DejaVuSans-10" transform="translate(105.90625 0)"/>
      <use xlink:href="#DejaVuSans-42" transform="translate(141.984375 0)"/>
      <use xlink:href="#DejaVuSans-29" transform="translate(191.984375 0)"/>
      <use xlink:href="#DejaVuSans-58" transform="translate(244.03125 0)"/>
      <use xlink:href="#DejaVuSans-4f" transform="translate(307.40625 0)"/>
      <use xlink:href="#DejaVuSans-4f" transform="translate(335.1875 0)"/>
     </g>
    </g>
    <g id="patch_58">
     <path d="M 595.705938 60.078125 
L 611.705938 60.078125 
L 611.705938 54.478125 
L 595.705938 54.478125 
z
" style="fill: #c44e52"/>
    </g>
    <g id="text_15">
     <!-- GCC_O0 -->
     <g transform="translate(618.105937 60.078125) scale(0.08 -0.08)">
      <defs>
       <path id="DejaVuSans-2a" d="M 3809 666 
L 3809 1919 
L 2778 1919 
L 2778 2438 
L 4434 2438 
L 4434 434 
Q 4069 175 3628 42 
Q 3188 -91 2688 -91 
Q 1594 -91 976 548 
Q 359 1188 359 2328 
Q 359 3472 976 4111 
Q 1594 4750 2688 4750 
Q 3144 4750 3555 4637 
Q 3966 4525 4313 4306 
L 4313 3634 
Q 3963 3931 3569 4081 
Q 3175 4231 2741 4231 
Q 1884 4231 1454 3753 
Q 1025 3275 1025 2328 
Q 1025 1384 1454 906 
Q 1884 428 2741 428 
Q 3075 428 3337 486 
Q 3600 544 3809 666 
z
" transform="scale(0.015625)"/>
       <path id="DejaVuSans-32" d="M 2522 4238 
Q 1834 4238 1429 3725 
Q 1025 3213 1025 2328 
Q 1025 1447 1429 934 
Q 1834 422 2522 422 
Q 3209 422 3611 934 
Q 4013 1447 4013 2328 
Q 4013 3213 3611 3725 
Q 3209 4238 2522 4238 
z
M 2522 4750 
Q 3503 4750 4090 4092 
Q 4678 3434 4678 2328 
Q 4678 1225 4090 567 
Q 3503 -91 2522 -91 
Q 1538 -91 948 565 
Q 359 1222 359 2328 
Q 359 3434 948 4092 
Q 1538 4750 2522 4750 
z
" transform="scale(0.015625)"/>
      </defs>
      <use xlink:href="#DejaVuSans-2a"/>
      <use xlink:href="#DejaVuSans-26" transform="translate(77.484375 0)"/>
      <use xlink:href="#DejaVuSans-26" transform="translate(147.3125 0)"/>
      <use xlink:href="#DejaVuSans-42" transform="translate(217.140625 0)"/>
      <use xlink:href="#DejaVuSans-32" transform="translate(267.140625 0)"/>
      <use xlink:href="#DejaVuSans-13" transform="translate(345.859375 0)"/>
     </g>
    </g>
    <g id="patch_59">
     <path d="M 595.705938 72.07875 
L 611.705938 72.07875 
L 611.705938 66.47875 
L 595.705938 66.47875 
z
" style="fill: #8172b2"/>
    </g>
    <g id="text_16">
     <!-- GCC_O2 -->
     <g transform="translate(618.105937 72.07875) scale(0.08 -0.08)">
      <use xlink:href="#DejaVuSans-2a"/>
      <use xlink:href="#DejaVuSans-26" transform="translate(77.484375 0)"/>
      <use xlink:href="#DejaVuSans-26" transform="translate(147.3125 0)"/>
      <use xlink:href="#DejaVuSans-42" transform="translate(217.140625 0)"/>
      <use xlink:href="#DejaVuSans-32" transform="translate(267.140625 0)"/>
      <use xlink:href="#DejaVuSans-15" transform="translate(345.859375 0)"/>
     </g>
    </g>
    <g id="patch_60">
     <path d="M 595.705938 84.079375 
L 611.705938 84.079375 
L 611.705938 78.479375 
L 595.705938 78.479375 
z
" style="fill: #ccb974"/>
    </g>
    <g id="text_17">
     <!-- Clang_O0 -->
     <g transform="translate(618.105937 84.079375) scale(0.08 -0.08)">
      <use xlink:href="#DejaVuSans-26"/>
      <use xlink:href="#DejaVuSans-4f" transform="translate(69.828125 0)"/>
      <use xlink:href="#DejaVuSans-44" transform="translate(97.609375 0)"/>
      <use xlink:href="#DejaVuSans-51" transform="translate(158.890625 0)"/>
      <use xlink:href="#DejaVuSans-4a" transform="translate(222.265625 0)"/>
      <use xlink:href="#DejaVuSans-42" transform="translate(285.75 0)"/>
      <use xlink:href="#DejaVuSans-32" transform="translate(335.75 0)"/>
      <use xlink:href="#DejaVuSans-13" transform="translate(414.46875 0)"/>
     </g>
    </g>
    <g id="patch_61">
     <path d="M 595.705938 96.08 
L 611.705938 96.08 
L 611.705938 90.48 
L 595.705938 90.48 
z
" style="fill: #64b5cd"/>
    </g>
    <g id="text_18">
     <!-- Clang_O2 -->
     <g transform="translate(618.105937 96.08) scale(0.08 -0.08)">
      <use xlink:href="#DejaVuSans-26"/>
      <use xlink:href="#DejaVuSans-4f" transform="translate(69.828125 0)"/>
      <use xlink:href="#DejaVuSans-44" transform="translate(97.609375 0)"/>
      <use xlink:href="#DejaVuSans-51" transform="translate(158.890625 0)"/>
      <use xlink:href="#DejaVuSans-4a" transform="translate(222.265625 0)"/>
      <use xlink:href="#DejaVuSans-42" transform="translate(285.75 0)"/>
      <use xlink:href="#DejaVuSans-32" transform="translate(335.75 0)"/>
      <use xlink:href="#DejaVuSans-15" transform="translate(414.46875 0)"/>
     </g>
    </g>
   </g>
  </g>
 </g>
 <defs>
  <clipPath id="pacdf84c4ef">
   <rect x="51.700781" y="22.798125" width="624.517656" height="286.55742"/>
  </clipPath>
 </defs>
</svg>
