<?xml version="1.0" encoding="utf-8" standalone="no"?>
<!DOCTYPE svg PUBLIC "-//W3C//DTD SVG 1.1//EN"
  "http://www.w3.org/Graphics/SVG/1.1/DTD/svg11.dtd">
<svg xmlns:xlink="http://www.w3.org/1999/xlink" width="568.424062pt" height="350.518489pt" viewBox="0 0 568.424062 350.518489" xmlns="http://www.w3.org/2000/svg" version="1.1">
 <metadata>
  <rdf:RDF xmlns:dc="http://purl.org/dc/elements/1.1/" xmlns:cc="http://creativecommons.org/ns#" xmlns:rdf="http://www.w3.org/1999/02/22-rdf-syntax-ns#">
   <cc:Work>
    <dc:type rdf:resource="http://purl.org/dc/dcmitype/StillImage"/>
    <dc:date>2026-07-01T01:40:18.550349</dc:date>
    <dc:format>image/svg+xml</dc:format>
    <dc:creator>
     <cc:Agent>
      <dc:title>Matplotlib v3.11.0, https://matplotlib.org/</dc:title>
     </cc:Agent>
    </dc:creator>
   </cc:Work>
  </rdf:RDF>
 </metadata>
 <defs>
  <style type="text/css">*{stroke-linejoin: round; stroke-linecap: butt}</style>
 </defs>
 <g id="figure_1">
  <g id="patch_1">
   <path d="M 0 350.518489 
L 568.424062 350.518489 
L 568.424062 0 
L 0 0 
z
" style="fill: #ffffff"/>
  </g>
  <g id="axes_1">
   <g id="patch_2">
    <path d="M 50.466406 313.462088 
L 561.224062 313.462088 
L 561.224062 22.798125 
L 50.466406 22.798125 
z
" style="fill: #ffffff"/>
   </g>
   <g id="matplotlib.axis_1">
    <g id="xtick_1">
     <g id="line2d_1">
      <defs>
       <path id="mc9b0abfa3d" d="M 0 0 
L 0 3.5 
" style="stroke: #000000; stroke-width: 0.8"/>
      </defs>
      <g>
       <use xlink:href="#mc9b0abfa3d" x="105.151449" y="313.462088" style="stroke: #000000; stroke-width: 0.8"/>
      </g>
     </g>
     <g id="text_1">
      <!-- fib -->
      <g transform="translate(93.921937 331.470279) rotate(-25) scale(0.09 -0.09)">
       <defs>
        <path id="DejaVuSans-13af" d="M 3431 3500 
L 3431 0 
L 2853 0 
L 2853 3053 
L 1275 3053 
L 1275 0 
L 697 0 
L 697 3053 
L 147 3053 
L 147 3500 
L 697 3500 
L 697 3744 
Q 697 4316 967 4589 
Q 1238 4863 1797 4863 
L 2375 4863 
L 2375 4384 
L 1825 4384 
Q 1516 4384 1395 4259 
Q 1275 4134 1275 3809 
L 1275 3500 
L 3431 3500 
z
M 2853 4856 
L 3431 4856 
L 3431 4128 
L 2853 4128 
L 2853 4856 
z
" transform="scale(0.015625)"/>
        <path id="DejaVuSans-45" d="M 3116 1747 
Q 3116 2381 2855 2742 
Q 2594 3103 2138 3103 
Q 1681 3103 1420 2742 
Q 1159 2381 1159 1747 
Q 1159 1113 1420 752 
Q 1681 391 2138 391 
Q 2594 391 2855 752 
Q 3116 1113 3116 1747 
z
M 1159 2969 
Q 1341 3281 1617 3432 
Q 1894 3584 2278 3584 
Q 2916 3584 3314 3078 
Q 3713 2572 3713 1747 
Q 3713 922 3314 415 
Q 2916 -91 2278 -91 
Q 1894 -91 1617 61 
Q 1341 213 1159 525 
L 1159 0 
L 581 0 
L 581 4863 
L 1159 4863 
L 1159 2969 
z
" transform="scale(0.015625)"/>
       </defs>
       <use xlink:href="#DejaVuSans-13af"/>
       <use xlink:href="#DejaVuSans-45" transform="translate(62.984375 0)"/>
      </g>
     </g>
    </g>
    <g id="xtick_2">
     <g id="line2d_2">
      <g>
       <use xlink:href="#mc9b0abfa3d" x="185.428963" y="313.462088" style="stroke: #000000; stroke-width: 0.8"/>
      </g>
     </g>
     <g id="text_2">
      <!-- matmul -->
      <g transform="translate(152.993123 341.358952) rotate(-25) scale(0.09 -0.09)">
       <defs>
        <path id="DejaVuSans-50" d="M 3328 2828 
Q 3544 3216 3844 3400 
Q 4144 3584 4550 3584 
Q 5097 3584 5394 3201 
Q 5691 2819 5691 2113 
L 5691 0 
L 5113 0 
L 5113 2094 
Q 5113 2597 4934 2840 
Q 4756 3084 4391 3084 
Q 3944 3084 3684 2787 
Q 3425 2491 3425 1978 
L 3425 0 
L 2847 0 
L 2847 2094 
Q 2847 2600 2669 2842 
Q 2491 3084 2119 3084 
Q 1678 3084 1418 2786 
Q 1159 2488 1159 1978 
L 1159 0 
L 581 0 
L 581 3500 
L 1159 3500 
L 1159 2956 
Q 1356 3278 1631 3431 
Q 1906 3584 2284 3584 
Q 2666 3584 2933 3390 
Q 3200 3197 3328 2828 
z
" transform="scale(0.015625)"/>
        <path id="DejaVuSans-44" d="M 2194 1759 
Q 1497 1759 1228 1600 
Q 959 1441 959 1056 
Q 959 750 1161 570 
Q 1363 391 1709 391 
Q 2188 391 2477 730 
Q 2766 1069 2766 1631 
L 2766 1759 
L 2194 1759 
z
M 3341 1997 
L 3341 0 
L 2766 0 
L 2766 531 
Q 2569 213 2275 61 
Q 1981 -91 1556 -91 
Q 1019 -91 701 211 
Q 384 513 384 1019 
Q 384 1609 779 1909 
Q 1175 2209 1959 2209 
L 2766 2209 
L 2766 2266 
Q 2766 2663 2505 2880 
Q 2244 3097 1772 3097 
Q 1472 3097 1187 3025 
Q 903 2953 641 2809 
L 641 3341 
Q 956 3463 1253 3523 
Q 1550 3584 1831 3584 
Q 2591 3584 2966 3190 
Q 3341 2797 3341 1997 
z
" transform="scale(0.015625)"/>
        <path id="DejaVuSans-57" d="M 1172 4494 
L 1172 3500 
L 2356 3500 
L 2356 3053 
L 1172 3053 
L 1172 1153 
Q 1172 725 1289 603 
Q 1406 481 1766 481 
L 2356 481 
L 2356 0 
L 1766 0 
Q 1100 0 847 248 
Q 594 497 594 1153 
L 594 3053 
L 172 3053 
L 172 3500 
L 594 3500 
L 594 4494 
L 1172 4494 
z
" transform="scale(0.015625)"/>
        <path id="DejaVuSans-58" d="M 544 1381 
L 544 3500 
L 1119 3500 
L 1119 1403 
Q 1119 906 1312 657 
Q 1506 409 1894 409 
Q 2359 409 2629 706 
Q 2900 1003 2900 1516 
L 2900 3500 
L 3475 3500 
L 3475 0 
L 2900 0 
L 2900 538 
Q 2691 219 2414 64 
Q 2138 -91 1772 -91 
Q 1169 -91 856 284 
Q 544 659 544 1381 
z
M 1991 3584 
L 1991 3584 
z
" transform="scale(0.015625)"/>
        <path id="DejaVuSans-4f" d="M 603 4863 
L 1178 4863 
L 1178 0 
L 603 0 
L 603 4863 
z
" transform="scale(0.015625)"/>
       </defs>
       <use xlink:href="#DejaVuSans-50"/>
       <use xlink:href="#DejaVuSans-44" transform="translate(97.40625 0)"/>
       <use xlink:href="#DejaVuSans-57" transform="translate(158.6875 0)"/>
       <use xlink:href="#DejaVuSans-50" transform="translate(197.890625 0)"/>
       <use xlink:href="#DejaVuSans-58" transform="translate(295.296875 0)"/>
       <use xlink:href="#DejaVuSans-4f" transform="translate(358.671875 0)"/>
      </g>
     </g>
    </g>
    <g id="xtick_3">
     <g id="line2d_3">
      <g>
       <use xlink:href="#mc9b0abfa3d" x="265.706477" y="313.462088" style="stroke: #000000; stroke-width: 0.8"/>
      </g>
     </g>
     <g id="text_3">
      <!-- float -->
      <g transform="translate(246.468037 335.204904) rotate(-25) scale(0.09 -0.09)">
       <defs>
        <path id="DejaVuSans-13b0" d="M 1831 4863 
L 3431 4863 
L 3431 0 
L 2853 0 
L 2853 4384 
L 1825 4384 
Q 1516 4384 1395 4259 
Q 1275 4134 1275 3809 
L 1275 3500 
L 2222 3500 
L 2222 3053 
L 1275 3053 
L 1275 0 
L 697 0 
L 697 3053 
L 147 3053 
L 147 3500 
L 697 3500 
L 697 3744 
Q 697 4328 969 4595 
Q 1241 4863 1831 4863 
z
" transform="scale(0.015625)"/>
        <path id="DejaVuSans-52" d="M 1959 3097 
Q 1497 3097 1228 2736 
Q 959 2375 959 1747 
Q 959 1119 1226 758 
Q 1494 397 1959 397 
Q 2419 397 2687 759 
Q 2956 1122 2956 1747 
Q 2956 2369 2687 2733 
Q 2419 3097 1959 3097 
z
M 1959 3584 
Q 2709 3584 3137 3096 
Q 3566 2609 3566 1747 
Q 3566 888 3137 398 
Q 2709 -91 1959 -91 
Q 1206 -91 779 398 
Q 353 888 353 1747 
Q 353 2609 779 3096 
Q 1206 3584 1959 3584 
z
" transform="scale(0.015625)"/>
       </defs>
       <use xlink:href="#DejaVuSans-13b0"/>
       <use xlink:href="#DejaVuSans-52" transform="translate(62.984375 0)"/>
       <use xlink:href="#DejaVuSans-44" transform="translate(124.171875 0)"/>
       <use xlink:href="#DejaVuSans-57" transform="translate(185.453125 0)"/>
      </g>
     </g>
    </g>
    <g id="xtick_4">
     <g id="line2d_4">
      <g>
       <use xlink:href="#mc9b0abfa3d" x="345.983991" y="313.462088" style="stroke: #000000; stroke-width: 0.8"/>
      </g>
     </g>
     <g id="text_4">
      <!-- struct -->
      <g transform="translate(321.41816 337.68847) rotate(-25) scale(0.09 -0.09)">
       <defs>
        <path id="DejaVuSans-56" d="M 2834 3397 
L 2834 2853 
Q 2591 2978 2328 3040 
Q 2066 3103 1784 3103 
Q 1356 3103 1142 2972 
Q 928 2841 928 2578 
Q 928 2378 1081 2264 
Q 1234 2150 1697 2047 
L 1894 2003 
Q 2506 1872 2764 1633 
Q 3022 1394 3022 966 
Q 3022 478 2636 193 
Q 2250 -91 1575 -91 
Q 1294 -91 989 -36 
Q 684 19 347 128 
L 347 722 
Q 666 556 975 473 
Q 1284 391 1588 391 
Q 1994 391 2212 530 
Q 2431 669 2431 922 
Q 2431 1156 2273 1281 
Q 2116 1406 1581 1522 
L 1381 1569 
Q 847 1681 609 1914 
Q 372 2147 372 2553 
Q 372 3047 722 3315 
Q 1072 3584 1716 3584 
Q 2034 3584 2315 3537 
Q 2597 3491 2834 3397 
z
" transform="scale(0.015625)"/>
        <path id="DejaVuSans-55" d="M 2631 2963 
Q 2534 3019 2420 3045 
Q 2306 3072 2169 3072 
Q 1681 3072 1420 2755 
Q 1159 2438 1159 1844 
L 1159 0 
L 581 0 
L 581 3500 
L 1159 3500 
L 1159 2956 
Q 1341 3275 1631 3429 
Q 1922 3584 2338 3584 
Q 2397 3584 2469 3576 
Q 2541 3569 2628 3553 
L 2631 2963 
z
" transform="scale(0.015625)"/>
        <path id="DejaVuSans-46" d="M 3122 3366 
L 3122 2828 
Q 2878 2963 2633 3030 
Q 2388 3097 2138 3097 
Q 1578 3097 1268 2742 
Q 959 2388 959 1747 
Q 959 1106 1268 751 
Q 1578 397 2138 397 
Q 2388 397 2633 464 
Q 2878 531 3122 666 
L 3122 134 
Q 2881 22 2623 -34 
Q 2366 -91 2075 -91 
Q 1284 -91 818 406 
Q 353 903 353 1747 
Q 353 2603 823 3093 
Q 1294 3584 2113 3584 
Q 2378 3584 2631 3529 
Q 2884 3475 3122 3366 
z
" transform="scale(0.015625)"/>
       </defs>
       <use xlink:href="#DejaVuSans-56"/>
       <use xlink:href="#DejaVuSans-57" transform="translate(52.09375 0)"/>
       <use xlink:href="#DejaVuSans-55" transform="translate(91.296875 0)"/>
       <use xlink:href="#DejaVuSans-58" transform="translate(132.40625 0)"/>
       <use xlink:href="#DejaVuSans-46" transform="translate(195.78125 0)"/>
       <use xlink:href="#DejaVuSans-57" transform="translate(250.765625 0)"/>
      </g>
     </g>
    </g>
    <g id="xtick_5">
     <g id="line2d_5">
      <g>
       <use xlink:href="#mc9b0abfa3d" x="426.261506" y="313.462088" style="stroke: #000000; stroke-width: 0.8"/>
      </g>
     </g>
     <g id="text_5">
      <!-- prime -->
      <g transform="translate(401.586068 337.740217) rotate(-25) scale(0.09 -0.09)">
       <defs>
        <path id="DejaVuSans-53" d="M 1159 525 
L 1159 -1331 
L 581 -1331 
L 581 3500 
L 1159 3500 
L 1159 2969 
Q 1341 3281 1617 3432 
Q 1894 3584 2278 3584 
Q 2916 3584 3314 3078 
Q 3713 2572 3713 1747 
Q 3713 922 3314 415 
Q 2916 -91 2278 -91 
Q 1894 -91 1617 61 
Q 1341 213 1159 525 
z
M 3116 1747 
Q 3116 2381 2855 2742 
Q 2594 3103 2138 3103 
Q 1681 3103 1420 2742 
Q 1159 2381 1159 1747 
Q 1159 1113 1420 752 
Q 1681 391 2138 391 
Q 2594 391 2855 752 
Q 3116 1113 3116 1747 
z
" transform="scale(0.015625)"/>
        <path id="DejaVuSans-4c" d="M 603 3500 
L 1178 3500 
L 1178 0 
L 603 0 
L 603 3500 
z
M 603 4863 
L 1178 4863 
L 1178 4134 
L 603 4134 
L 603 4863 
z
" transform="scale(0.015625)"/>
        <path id="DejaVuSans-48" d="M 3597 1894 
L 3597 1613 
L 953 1613 
Q 991 1019 1311 708 
Q 1631 397 2203 397 
Q 2534 397 2845 478 
Q 3156 559 3463 722 
L 3463 178 
Q 3153 47 2828 -22 
Q 2503 -91 2169 -91 
Q 1331 -91 842 396 
Q 353 884 353 1716 
Q 353 2575 817 3079 
Q 1281 3584 2069 3584 
Q 2775 3584 3186 3129 
Q 3597 2675 3597 1894 
z
M 3022 2063 
Q 3016 2534 2758 2815 
Q 2500 3097 2075 3097 
Q 1594 3097 1305 2825 
Q 1016 2553 972 2059 
L 3022 2063 
z
" transform="scale(0.015625)"/>
       </defs>
       <use xlink:href="#DejaVuSans-53"/>
       <use xlink:href="#DejaVuSans-55" transform="translate(63.484375 0)"/>
       <use xlink:href="#DejaVuSans-4c" transform="translate(104.59375 0)"/>
       <use xlink:href="#DejaVuSans-50" transform="translate(132.375 0)"/>
       <use xlink:href="#DejaVuSans-48" transform="translate(229.78125 0)"/>
      </g>
     </g>
    </g>
    <g id="xtick_6">
     <g id="line2d_6">
      <g>
       <use xlink:href="#mc9b0abfa3d" x="506.53902" y="313.462088" style="stroke: #000000; stroke-width: 0.8"/>
      </g>
     </g>
     <g id="text_6">
      <!-- mixed -->
      <g transform="translate(480.640067 338.310752) rotate(-25) scale(0.09 -0.09)">
       <defs>
        <path id="DejaVuSans-5b" d="M 3513 3500 
L 2247 1797 
L 3578 0 
L 2900 0 
L 1881 1375 
L 863 0 
L 184 0 
L 1544 1831 
L 300 3500 
L 978 3500 
L 1906 2253 
L 2834 3500 
L 3513 3500 
z
" transform="scale(0.015625)"/>
        <path id="DejaVuSans-47" d="M 2906 2969 
L 2906 4863 
L 3481 4863 
L 3481 0 
L 2906 0 
L 2906 525 
Q 2725 213 2448 61 
Q 2172 -91 1784 -91 
Q 1150 -91 751 415 
Q 353 922 353 1747 
Q 353 2572 751 3078 
Q 1150 3584 1784 3584 
Q 2172 3584 2448 3432 
Q 2725 3281 2906 2969 
z
M 947 1747 
Q 947 1113 1208 752 
Q 1469 391 1925 391 
Q 2381 391 2643 752 
Q 2906 1113 2906 1747 
Q 2906 2381 2643 2742 
Q 2381 3103 1925 3103 
Q 1469 3103 1208 2742 
Q 947 2381 947 1747 
z
" transform="scale(0.015625)"/>
       </defs>
       <use xlink:href="#DejaVuSans-50"/>
       <use xlink:href="#DejaVuSans-4c" transform="translate(97.40625 0)"/>
       <use xlink:href="#DejaVuSans-5b" transform="translate(125.1875 0)"/>
       <use xlink:href="#DejaVuSans-48" transform="translate(181.296875 0)"/>
       <use xlink:href="#DejaVuSans-47" transform="translate(242.828125 0)"/>
      </g>
     </g>
    </g>
   </g>
   <g id="matplotlib.axis_2">
    <g id="ytick_1">
     <g id="line2d_7">
      <path d="M 50.466406 313.462088 
L 561.224062 313.462088 
" clip-path="url(#pdea4b7bd31)" style="fill: none; stroke-dasharray: 0.8,1.32; stroke-dashoffset: 0; stroke: #b0b0b0; stroke-opacity: 0.4; stroke-width: 0.8"/>
     </g>
     <g id="line2d_8">
      <defs>
       <path id="m38ac4bf835" d="M 0 0 
L -3.5 0 
" style="stroke: #000000; stroke-width: 0.8"/>
      </defs>
      <g>
       <use xlink:href="#m38ac4bf835" x="50.466406" y="313.462088" style="stroke: #000000; stroke-width: 0.8"/>
      </g>
     </g>
     <g id="text_7">
      <!-- 0.00 -->
      <g transform="translate(21.200781 317.260916) scale(0.1 -0.1)">
       <defs>
        <path id="DejaVuSans-13" d="M 2034 4250 
Q 1547 4250 1301 3770 
Q 1056 3291 1056 2328 
Q 1056 1369 1301 889 
Q 1547 409 2034 409 
Q 2525 409 2770 889 
Q 3016 1369 3016 2328 
Q 3016 3291 2770 3770 
Q 2525 4250 2034 4250 
z
M 2034 4750 
Q 2819 4750 3233 4129 
Q 3647 3509 3647 2328 
Q 3647 1150 3233 529 
Q 2819 -91 2034 -91 
Q 1250 -91 836 529 
Q 422 1150 422 2328 
Q 422 3509 836 4129 
Q 1250 4750 2034 4750 
z
" transform="scale(0.015625)"/>
        <path id="DejaVuSans-11" d="M 684 794 
L 1344 794 
L 1344 0 
L 684 0 
L 684 794 
z
" transform="scale(0.015625)"/>
       </defs>
       <use xlink:href="#DejaVuSans-13"/>
       <use xlink:href="#DejaVuSans-11" transform="translate(63.625 0)"/>
       <use xlink:href="#DejaVuSans-13" transform="translate(95.40625 0)"/>
       <use xlink:href="#DejaVuSans-13" transform="translate(159.03125 0)"/>
      </g>
     </g>
    </g>
    <g id="ytick_2">
     <g id="line2d_9">
      <path d="M 50.466406 268.763501 
L 561.224062 268.763501 
" clip-path="url(#pdea4b7bd31)" style="fill: none; stroke-dasharray: 0.8,1.32; stroke-dashoffset: 0; stroke: #b0b0b0; stroke-opacity: 0.4; stroke-width: 0.8"/>
     </g>
     <g id="line2d_10">
      <g>
       <use xlink:href="#m38ac4bf835" x="50.466406" y="268.763501" style="stroke: #000000; stroke-width: 0.8"/>
      </g>
     </g>
     <g id="text_8">
      <!-- 0.01 -->
      <g transform="translate(21.200781 272.562329) scale(0.1 -0.1)">
       <defs>
        <path id="DejaVuSans-14" d="M 794 531 
L 1825 531 
L 1825 4091 
L 703 3866 
L 703 4441 
L 1819 4666 
L 2450 4666 
L 2450 531 
L 3481 531 
L 3481 0 
L 794 0 
L 794 531 
z
" transform="scale(0.015625)"/>
       </defs>
       <use xlink:href="#DejaVuSans-13"/>
       <use xlink:href="#DejaVuSans-11" transform="translate(63.625 0)"/>
       <use xlink:href="#DejaVuSans-13" transform="translate(95.40625 0)"/>
       <use xlink:href="#DejaVuSans-14" transform="translate(159.03125 0)"/>
      </g>
     </g>
    </g>
    <g id="ytick_3">
     <g id="line2d_11">
      <path d="M 50.466406 224.064913 
L 561.224062 224.064913 
" clip-path="url(#pdea4b7bd31)" style="fill: none; stroke-dasharray: 0.8,1.32; stroke-dashoffset: 0; stroke: #b0b0b0; stroke-opacity: 0.4; stroke-width: 0.8"/>
     </g>
     <g id="line2d_12">
      <g>
       <use xlink:href="#m38ac4bf835" x="50.466406" y="224.064913" style="stroke: #000000; stroke-width: 0.8"/>
      </g>
     </g>
     <g id="text_9">
      <!-- 0.02 -->
      <g transform="translate(21.200781 227.863741) scale(0.1 -0.1)">
       <defs>
        <path id="DejaVuSans-15" d="M 1228 531 
L 3431 531 
L 3431 0 
L 469 0 
L 469 531 
Q 828 903 1448 1529 
Q 2069 2156 2228 2338 
Q 2531 2678 2651 2914 
Q 2772 3150 2772 3378 
Q 2772 3750 2511 3984 
Q 2250 4219 1831 4219 
Q 1534 4219 1204 4116 
Q 875 4013 500 3803 
L 500 4441 
Q 881 4594 1212 4672 
Q 1544 4750 1819 4750 
Q 2544 4750 2975 4387 
Q 3406 4025 3406 3419 
Q 3406 3131 3298 2873 
Q 3191 2616 2906 2266 
Q 2828 2175 2409 1742 
Q 1991 1309 1228 531 
z
" transform="scale(0.015625)"/>
       </defs>
       <use xlink:href="#DejaVuSans-13"/>
       <use xlink:href="#DejaVuSans-11" transform="translate(63.625 0)"/>
       <use xlink:href="#DejaVuSans-13" transform="translate(95.40625 0)"/>
       <use xlink:href="#DejaVuSans-15" transform="translate(159.03125 0)"/>
      </g>
     </g>
    </g>
    <g id="ytick_4">
     <g id="line2d_13">
      <path d="M 50.466406 179.366326 
L 561.224062 179.366326 
" clip-path="url(#pdea4b7bd31)" style="fill: none; stroke-dasharray: 0.8,1.32; stroke-dashoffset: 0; stroke: #b0b0b0; stroke-opacity: 0.4; stroke-width: 0.8"/>
     </g>
     <g id="line2d_14">
      <g>
       <use xlink:href="#m38ac4bf835" x="50.466406" y="179.366326" style="stroke: #000000; stroke-width: 0.8"/>
      </g>
     </g>
     <g id="text_10">
      <!-- 0.03 -->
      <g transform="translate(21.200781 183.165154) scale(0.1 -0.1)">
       <defs>
        <path id="DejaVuSans-16" d="M 2597 2516 
Q 3050 2419 3304 2112 
Q 3559 1806 3559 1356 
Q 3559 666 3084 287 
Q 2609 -91 1734 -91 
Q 1441 -91 1130 -33 
Q 819 25 488 141 
L 488 750 
Q 750 597 1062 519 
Q 1375 441 1716 441 
Q 2309 441 2620 675 
Q 2931 909 2931 1356 
Q 2931 1769 2642 2001 
Q 2353 2234 1838 2234 
L 1294 2234 
L 1294 2753 
L 1863 2753 
Q 2328 2753 2575 2939 
Q 2822 3125 2822 3475 
Q 2822 3834 2567 4026 
Q 2313 4219 1838 4219 
Q 1578 4219 1281 4162 
Q 984 4106 628 3988 
L 628 4550 
Q 988 4650 1302 4700 
Q 1616 4750 1894 4750 
Q 2613 4750 3031 4423 
Q 3450 4097 3450 3541 
Q 3450 3153 3228 2886 
Q 3006 2619 2597 2516 
z
" transform="scale(0.015625)"/>
       </defs>
       <use xlink:href="#DejaVuSans-13"/>
       <use xlink:href="#DejaVuSans-11" transform="translate(63.625 0)"/>
       <use xlink:href="#DejaVuSans-13" transform="translate(95.40625 0)"/>
       <use xlink:href="#DejaVuSans-16" transform="translate(159.03125 0)"/>
      </g>
     </g>
    </g>
    <g id="ytick_5">
     <g id="line2d_15">
      <path d="M 50.466406 134.667738 
L 561.224062 134.667738 
" clip-path="url(#pdea4b7bd31)" style="fill: none; stroke-dasharray: 0.8,1.32; stroke-dashoffset: 0; stroke: #b0b0b0; stroke-opacity: 0.4; stroke-width: 0.8"/>
     </g>
     <g id="line2d_16">
      <g>
       <use xlink:href="#m38ac4bf835" x="50.466406" y="134.667738" style="stroke: #000000; stroke-width: 0.8"/>
      </g>
     </g>
     <g id="text_11">
      <!-- 0.04 -->
      <g transform="translate(21.200781 138.466566) scale(0.1 -0.1)">
       <defs>
        <path id="DejaVuSans-17" d="M 2419 4116 
L 825 1625 
L 2419 1625 
L 2419 4116 
z
M 2253 4666 
L 3047 4666 
L 3047 1625 
L 3713 1625 
L 3713 1100 
L 3047 1100 
L 3047 0 
L 2419 0 
L 2419 1100 
L 313 1100 
L 313 1709 
L 2253 4666 
z
" transform="scale(0.015625)"/>
       </defs>
       <use xlink:href="#DejaVuSans-13"/>
       <use xlink:href="#DejaVuSans-11" transform="translate(63.625 0)"/>
       <use xlink:href="#DejaVuSans-13" transform="translate(95.40625 0)"/>
       <use xlink:href="#DejaVuSans-17" transform="translate(159.03125 0)"/>
      </g>
     </g>
    </g>
    <g id="ytick_6">
     <g id="line2d_17">
      <path d="M 50.466406 89.969151 
L 561.224062 89.969151 
" clip-path="url(#pdea4b7bd31)" style="fill: none; stroke-dasharray: 0.8,1.32; stroke-dashoffset: 0; stroke: #b0b0b0; stroke-opacity: 0.4; stroke-width: 0.8"/>
     </g>
     <g id="line2d_18">
      <g>
       <use xlink:href="#m38ac4bf835" x="50.466406" y="89.969151" style="stroke: #000000; stroke-width: 0.8"/>
      </g>
     </g>
     <g id="text_12">
      <!-- 0.05 -->
      <g transform="translate(21.200781 93.767979) scale(0.1 -0.1)">
       <defs>
        <path id="DejaVuSans-18" d="M 691 4666 
L 3169 4666 
L 3169 4134 
L 1269 4134 
L 1269 2991 
Q 1406 3038 1543 3061 
Q 1681 3084 1819 3084 
Q 2600 3084 3056 2656 
Q 3513 2228 3513 1497 
Q 3513 744 3044 326 
Q 2575 -91 1722 -91 
Q 1428 -91 1123 -41 
Q 819 9 494 109 
L 494 744 
Q 775 591 1075 516 
Q 1375 441 1709 441 
Q 2250 441 2565 725 
Q 2881 1009 2881 1497 
Q 2881 1984 2565 2268 
Q 2250 2553 1709 2553 
Q 1456 2553 1204 2497 
Q 953 2441 691 2322 
L 691 4666 
z
" transform="scale(0.015625)"/>
       </defs>
       <use xlink:href="#DejaVuSans-13"/>
       <use xlink:href="#DejaVuSans-11" transform="translate(63.625 0)"/>
       <use xlink:href="#DejaVuSans-13" transform="translate(95.40625 0)"/>
       <use xlink:href="#DejaVuSans-18" transform="translate(159.03125 0)"/>
      </g>
     </g>
    </g>
    <g id="ytick_7">
     <g id="line2d_19">
      <path d="M 50.466406 45.270563 
L 561.224062 45.270563 
" clip-path="url(#pdea4b7bd31)" style="fill: none; stroke-dasharray: 0.8,1.32; stroke-dashoffset: 0; stroke: #b0b0b0; stroke-opacity: 0.4; stroke-width: 0.8"/>
     </g>
     <g id="line2d_20">
      <g>
       <use xlink:href="#m38ac4bf835" x="50.466406" y="45.270563" style="stroke: #000000; stroke-width: 0.8"/>
      </g>
     </g>
     <g id="text_13">
      <!-- 0.06 -->
      <g transform="translate(21.200781 49.069391) scale(0.1 -0.1)">
       <defs>
        <path id="DejaVuSans-19" d="M 2113 2584 
Q 1688 2584 1439 2293 
Q 1191 2003 1191 1497 
Q 1191 994 1439 701 
Q 1688 409 2113 409 
Q 2538 409 2786 701 
Q 3034 994 3034 1497 
Q 3034 2003 2786 2293 
Q 2538 2584 2113 2584 
z
M 3366 4563 
L 3366 3988 
Q 3128 4100 2886 4159 
Q 2644 4219 2406 4219 
Q 1781 4219 1451 3797 
Q 1122 3375 1075 2522 
Q 1259 2794 1537 2939 
Q 1816 3084 2150 3084 
Q 2853 3084 3261 2657 
Q 3669 2231 3669 1497 
Q 3669 778 3244 343 
Q 2819 -91 2113 -91 
Q 1303 -91 875 529 
Q 447 1150 447 2328 
Q 447 3434 972 4092 
Q 1497 4750 2381 4750 
Q 2619 4750 2861 4703 
Q 3103 4656 3366 4563 
z
" transform="scale(0.015625)"/>
       </defs>
       <use xlink:href="#DejaVuSans-13"/>
       <use xlink:href="#DejaVuSans-11" transform="translate(63.625 0)"/>
       <use xlink:href="#DejaVuSans-13" transform="translate(95.40625 0)"/>
       <use xlink:href="#DejaVuSans-19" transform="translate(159.03125 0)"/>
      </g>
     </g>
    </g>
    <g id="text_14">
     <!-- segundos -->
     <g transform="translate(14.798438 192.161357) rotate(-90) scale(0.1 -0.1)">
      <defs>
       <path id="DejaVuSans-4a" d="M 2906 1791 
Q 2906 2416 2648 2759 
Q 2391 3103 1925 3103 
Q 1463 3103 1205 2759 
Q 947 2416 947 1791 
Q 947 1169 1205 825 
Q 1463 481 1925 481 
Q 2391 481 2648 825 
Q 2906 1169 2906 1791 
z
M 3481 434 
Q 3481 -459 3084 -895 
Q 2688 -1331 1869 -1331 
Q 1566 -1331 1297 -1286 
Q 1028 -1241 775 -1147 
L 775 -588 
Q 1028 -725 1275 -790 
Q 1522 -856 1778 -856 
Q 2344 -856 2625 -561 
Q 2906 -266 2906 331 
L 2906 616 
Q 2728 306 2450 153 
Q 2172 0 1784 0 
Q 1141 0 747 490 
Q 353 981 353 1791 
Q 353 2603 747 3093 
Q 1141 3584 1784 3584 
Q 2172 3584 2450 3431 
Q 2728 3278 2906 2969 
L 2906 3500 
L 3481 3500 
L 3481 434 
z
" transform="scale(0.015625)"/>
       <path id="DejaVuSans-51" d="M 3513 2113 
L 3513 0 
L 2938 0 
L 2938 2094 
Q 2938 2591 2744 2837 
Q 2550 3084 2163 3084 
Q 1697 3084 1428 2787 
Q 1159 2491 1159 1978 
L 1159 0 
L 581 0 
L 581 3500 
L 1159 3500 
L 1159 2956 
Q 1366 3272 1645 3428 
Q 1925 3584 2291 3584 
Q 2894 3584 3203 3211 
Q 3513 2838 3513 2113 
z
" transform="scale(0.015625)"/>
      </defs>
      <use xlink:href="#DejaVuSans-56"/>
      <use xlink:href="#DejaVuSans-48" transform="translate(52.09375 0)"/>
      <use xlink:href="#DejaVuSans-4a" transform="translate(113.625 0)"/>
      <use xlink:href="#DejaVuSans-58" transform="translate(177.109375 0)"/>
      <use xlink:href="#DejaVuSans-51" transform="translate(240.484375 0)"/>
      <use xlink:href="#DejaVuSans-47" transform="translate(303.859375 0)"/>
      <use xlink:href="#DejaVuSans-52" transform="translate(367.34375 0)"/>
      <use xlink:href="#DejaVuSans-56" transform="translate(428.53125 0)"/>
     </g>
    </g>
   </g>
   <g id="patch_3">
    <path d="M 73.682663 313.462088 
L 85.242625 313.462088 
L 85.242625 36.639266 
L 73.682663 36.639266 
z
" clip-path="url(#pdea4b7bd31)" style="fill: #4c72b0"/>
   </g>
   <g id="patch_4">
    <path d="M 153.960178 313.462088 
L 165.52014 313.462088 
L 165.52014 298.890349 
L 153.960178 298.890349 
z
" clip-path="url(#pdea4b7bd31)" style="fill: #4c72b0"/>
   </g>
   <g id="patch_5">
    <path d="M 234.237692 313.462088 
L 245.797654 313.462088 
L 245.797654 284.399067 
L 234.237692 284.399067 
z
" clip-path="url(#pdea4b7bd31)" style="fill: #4c72b0"/>
   </g>
   <g id="patch_6">
    <path d="M 314.515206 313.462088 
L 326.075168 313.462088 
L 326.075168 302.063948 
L 314.515206 302.063948 
z
" clip-path="url(#pdea4b7bd31)" style="fill: #4c72b0"/>
   </g>
   <g id="patch_7">
    <path d="M 394.79272 313.462088 
L 406.352682 313.462088 
L 406.352682 296.93702 
L 394.79272 296.93702 
z
" clip-path="url(#pdea4b7bd31)" style="fill: #4c72b0"/>
   </g>
   <g id="patch_8">
    <path d="M 475.070234 313.462088 
L 486.630196 313.462088 
L 486.630196 303.5837 
L 475.070234 303.5837 
z
" clip-path="url(#pdea4b7bd31)" style="fill: #4c72b0"/>
   </g>
   <g id="patch_9">
    <path d="M 86.527066 313.462088 
L 98.087028 313.462088 
L 98.087028 84.417586 
L 86.527066 84.417586 
z
" clip-path="url(#pdea4b7bd31)" style="fill: #55a868"/>
   </g>
   <g id="patch_10">
    <path d="M 166.80458 313.462088 
L 178.364542 313.462088 
L 178.364542 303.436195 
L 166.80458 303.436195 
z
" clip-path="url(#pdea4b7bd31)" style="fill: #55a868"/>
   </g>
   <g id="patch_11">
    <path d="M 247.082094 313.462088 
L 258.642056 313.462088 
L 258.642056 302.443886 
L 247.082094 302.443886 
z
" clip-path="url(#pdea4b7bd31)" style="fill: #55a868"/>
   </g>
   <g id="patch_12">
    <path d="M 327.359608 313.462088 
L 338.91957 313.462088 
L 338.91957 305.277777 
L 327.359608 305.277777 
z
" clip-path="url(#pdea4b7bd31)" style="fill: #55a868"/>
   </g>
   <g id="patch_13">
    <path d="M 407.637122 313.462088 
L 419.197084 313.462088 
L 419.197084 300.995652 
L 407.637122 300.995652 
z
" clip-path="url(#pdea4b7bd31)" style="fill: #55a868"/>
   </g>
   <g id="patch_14">
    <path d="M 487.914637 313.462088 
L 499.474599 313.462088 
L 499.474599 306.636614 
L 487.914637 306.636614 
z
" clip-path="url(#pdea4b7bd31)" style="fill: #55a868"/>
   </g>
   <g id="patch_15">
    <path d="M 99.371468 313.462088 
L 110.93143 313.462088 
L 110.93143 259.484074 
L 99.371468 259.484074 
z
" clip-path="url(#pdea4b7bd31)" style="fill: #c44e52"/>
   </g>
   <g id="patch_16">
    <path d="M 179.648982 313.462088 
L 191.208944 313.462088 
L 191.208944 309.93537 
L 179.648982 309.93537 
z
" clip-path="url(#pdea4b7bd31)" style="fill: #c44e52"/>
   </g>
   <g id="patch_17">
    <path d="M 259.926496 313.462088 
L 271.486458 313.462088 
L 271.486458 308.393268 
L 259.926496 308.393268 
z
" clip-path="url(#pdea4b7bd31)" style="fill: #c44e52"/>
   </g>
   <g id="patch_18">
    <path d="M 340.20401 313.462088 
L 351.763972 313.462088 
L 351.763972 309.260421 
L 340.20401 309.260421 
z
" clip-path="url(#pdea4b7bd31)" style="fill: #c44e52"/>
   </g>
   <g id="patch_19">
    <path d="M 420.481525 313.462088 
L 432.041487 313.462088 
L 432.041487 302.211454 
L 420.481525 302.211454 
z
" clip-path="url(#pdea4b7bd31)" style="fill: #c44e52"/>
   </g>
   <g id="patch_20">
    <path d="M 500.759039 313.462088 
L 512.319001 313.462088 
L 512.319001 310.601379 
L 500.759039 310.601379 
z
" clip-path="url(#pdea4b7bd31)" style="fill: #c44e52"/>
   </g>
   <g id="patch_21">
    <path d="M 112.21587 313.462088 
L 123.775832 313.462088 
L 123.775832 118.071153 
L 112.21587 118.071153 
z
" clip-path="url(#pdea4b7bd31)" style="fill: #8172b2"/>
   </g>
   <g id="patch_22">
    <path d="M 192.493384 313.462088 
L 204.053346 313.462088 
L 204.053346 304.714575 
L 192.493384 304.714575 
z
" clip-path="url(#pdea4b7bd31)" style="fill: #8172b2"/>
   </g>
   <g id="patch_23">
    <path d="M 272.770899 313.462088 
L 284.330861 313.462088 
L 284.330861 295.399389 
L 272.770899 295.399389 
z
" clip-path="url(#pdea4b7bd31)" style="fill: #8172b2"/>
   </g>
   <g id="patch_24">
    <path d="M 353.048413 313.462088 
L 364.608375 313.462088 
L 364.608375 305.81416 
L 353.048413 305.81416 
z
" clip-path="url(#pdea4b7bd31)" style="fill: #8172b2"/>
   </g>
   <g id="patch_25">
    <path d="M 433.325927 313.462088 
L 444.885889 313.462088 
L 444.885889 301.482867 
L 433.325927 301.482867 
z
" clip-path="url(#pdea4b7bd31)" style="fill: #8172b2"/>
   </g>
   <g id="patch_26">
    <path d="M 513.603441 313.462088 
L 525.163403 313.462088 
L 525.163403 306.194098 
L 513.603441 306.194098 
z
" clip-path="url(#pdea4b7bd31)" style="fill: #8172b2"/>
   </g>
   <g id="patch_27">
    <path d="M 125.060272 313.462088 
L 136.620234 313.462088 
L 136.620234 207.866145 
L 125.060272 207.866145 
z
" clip-path="url(#pdea4b7bd31)" style="fill: #ccb974"/>
   </g>
   <g id="patch_28">
    <path d="M 205.337787 313.462088 
L 216.897749 313.462088 
L 216.897749 309.792334 
L 205.337787 309.792334 
z
" clip-path="url(#pdea4b7bd31)" style="fill: #ccb974"/>
   </g>
   <g id="patch_29">
    <path d="M 285.615301 313.462088 
L 297.175263 313.462088 
L 297.175263 308.858134 
L 285.615301 308.858134 
z
" clip-path="url(#pdea4b7bd31)" style="fill: #ccb974"/>
   </g>
   <g id="patch_30">
    <path d="M 365.892815 313.462088 
L 377.452777 313.462088 
L 377.452777 311.003666 
L 365.892815 311.003666 
z
" clip-path="url(#pdea4b7bd31)" style="fill: #ccb974"/>
   </g>
   <g id="patch_31">
    <path d="M 446.170329 313.462088 
L 457.730291 313.462088 
L 457.730291 301.809166 
L 446.170329 301.809166 
z
" clip-path="url(#pdea4b7bd31)" style="fill: #ccb974"/>
   </g>
   <g id="patch_32">
    <path d="M 526.447843 313.462088 
L 538.007805 313.462088 
L 538.007805 310.976847 
L 526.447843 310.976847 
z
" clip-path="url(#pdea4b7bd31)" style="fill: #ccb974"/>
   </g>
   <g id="patch_33">
    <path d="M 50.466406 313.462088 
L 50.466406 22.798125 
" style="fill: none; stroke: #000000; stroke-width: 0.8; stroke-linejoin: miter; stroke-linecap: square"/>
   </g>
   <g id="patch_34">
    <path d="M 561.224062 313.462088 
L 561.224062 22.798125 
" style="fill: none; stroke: #000000; stroke-width: 0.8; stroke-linejoin: miter; stroke-linecap: square"/>
   </g>
   <g id="patch_35">
    <path d="M 50.466406 313.462088 
L 561.224062 313.462088 
" style="fill: none; stroke: #000000; stroke-width: 0.8; stroke-linejoin: miter; stroke-linecap: square"/>
   </g>
   <g id="patch_36">
    <path d="M 50.466406 22.798125 
L 561.224062 22.798125 
" style="fill: none; stroke: #000000; stroke-width: 0.8; stroke-linejoin: miter; stroke-linecap: square"/>
   </g>
   <g id="text_15">
    <!-- Tiempo de ejecución (mediana) -->
    <g transform="translate(211.018047 16.798125) scale(0.12 -0.12)">
     <defs>
      <path id="DejaVuSans-37" d="M -19 4666 
L 3928 4666 
L 3928 4134 
L 2272 4134 
L 2272 0 
L 1638 0 
L 1638 4134 
L -19 4134 
L -19 4666 
z
" transform="scale(0.015625)"/>
      <path id="DejaVuSans-3" transform="scale(0.015625)"/>
      <path id="DejaVuSans-4d" d="M 603 3500 
L 1178 3500 
L 1178 -63 
Q 1178 -731 923 -1031 
Q 669 -1331 103 -1331 
L -116 -1331 
L -116 -844 
L 38 -844 
Q 366 -844 484 -692 
Q 603 -541 603 -63 
L 603 3500 
z
M 603 4863 
L 1178 4863 
L 1178 4134 
L 603 4134 
L 603 4863 
z
" transform="scale(0.015625)"/>
      <path id="DejaVuSans-b5" d="M 1959 3097 
Q 1497 3097 1228 2736 
Q 959 2375 959 1747 
Q 959 1119 1226 758 
Q 1494 397 1959 397 
Q 2419 397 2687 759 
Q 2956 1122 2956 1747 
Q 2956 2369 2687 2733 
Q 2419 3097 1959 3097 
z
M 1959 3584 
Q 2709 3584 3137 3096 
Q 3566 2609 3566 1747 
Q 3566 888 3137 398 
Q 2709 -91 1959 -91 
Q 1206 -91 779 398 
Q 353 888 353 1747 
Q 353 2609 779 3096 
Q 1206 3584 1959 3584 
z
M 2393 5119 
L 3015 5119 
L 1997 3944 
L 1518 3944 
L 2393 5119 
z
" transform="scale(0.015625)"/>
      <path id="DejaVuSans-b" d="M 1984 4856 
Q 1566 4138 1362 3434 
Q 1159 2731 1159 2009 
Q 1159 1288 1364 580 
Q 1569 -128 1984 -844 
L 1484 -844 
Q 1016 -109 783 600 
Q 550 1309 550 2009 
Q 550 2706 781 3412 
Q 1013 4119 1484 4856 
L 1984 4856 
z
" transform="scale(0.015625)"/>
      <path id="DejaVuSans-c" d="M 513 4856 
L 1013 4856 
Q 1481 4119 1714 3412 
Q 1947 2706 1947 2009 
Q 1947 1309 1714 600 
Q 1481 -109 1013 -844 
L 513 -844 
Q 928 -128 1133 580 
Q 1338 1288 1338 2009 
Q 1338 2731 1133 3434 
Q 928 4138 513 4856 
z
" transform="scale(0.015625)"/>
     </defs>
     <use xlink:href="#DejaVuSans-37"/>
     <use xlink:href="#DejaVuSans-4c" transform="translate(58 0)"/>
     <use xlink:href="#DejaVuSans-48" transform="translate(85.78125 0)"/>
     <use xlink:href="#DejaVuSans-50" transform="translate(147.3125 0)"/>
     <use xlink:href="#DejaVuSans-53" transform="translate(244.71875 0)"/>
     <use xlink:href="#DejaVuSans-52" transform="translate(308.203125 0)"/>
     <use xlink:href="#DejaVuSans-3" transform="translate(369.390625 0)"/>
     <use xlink:href="#DejaVuSans-47" transform="translate(401.171875 0)"/>
     <use xlink:href="#DejaVuSans-48" transform="translate(464.65625 0)"/>
     <use xlink:href="#DejaVuSans-3" transform="translate(526.1875 0)"/>
     <use xlink:href="#DejaVuSans-48" transform="translate(557.96875 0)"/>
     <use xlink:href="#DejaVuSans-4d" transform="translate(619.5 0)"/>
     <use xlink:href="#DejaVuSans-48" transform="translate(647.28125 0)"/>
     <use xlink:href="#DejaVuSans-46" transform="translate(708.8125 0)"/>
     <use xlink:href="#DejaVuSans-58" transform="translate(763.796875 0)"/>
     <use xlink:href="#DejaVuSans-46" transform="translate(827.171875 0)"/>
     <use xlink:href="#DejaVuSans-4c" transform="translate(882.15625 0)"/>
     <use xlink:href="#DejaVuSans-b5" transform="translate(909.9375 0)"/>
     <use xlink:href="#DejaVuSans-51" transform="translate(971.125 0)"/>
     <use xlink:href="#DejaVuSans-3" transform="translate(1034.5 0)"/>
     <use xlink:href="#DejaVuSans-b" transform="translate(1066.28125 0)"/>
     <use xlink:href="#DejaVuSans-50" transform="translate(1105.296875 0)"/>
     <use xlink:href="#DejaVuSans-48" transform="translate(1202.703125 0)"/>
     <use xlink:href="#DejaVuSans-47" transform="translate(1264.234375 0)"/>
     <use xlink:href="#DejaVuSans-4c" transform="translate(1327.71875 0)"/>
     <use xlink:href="#DejaVuSans-44" transform="translate(1355.5 0)"/>
     <use xlink:href="#DejaVuSans-51" transform="translate(1416.78125 0)"/>
     <use xlink:href="#DejaVuSans-44" transform="translate(1480.15625 0)"/>
     <use xlink:href="#DejaVuSans-c" transform="translate(1541.4375 0)"/>
    </g>
   </g>
   <g id="legend_1">
    <g id="patch_37">
     <path d="M 478.656562 89.20125 
L 555.624062 89.20125 
Q 557.224062 89.20125 557.224062 87.60125 
L 557.224062 28.398125 
Q 557.224062 26.798125 555.624062 26.798125 
L 478.656562 26.798125 
Q 477.056562 26.798125 477.056562 28.398125 
L 477.056562 87.60125 
Q 477.056562 89.20125 478.656562 89.20125 
z
" style="fill: #ffffff; opacity: 0.8; stroke: #cccccc; stroke-linejoin: miter"/>
    </g>
    <g id="patch_38">
     <path d="M 480.256562 36.076875 
L 496.256562 36.076875 
L 496.256562 30.476875 
L 480.256562 30.476875 
z
" style="fill: #4c72b0"/>
    </g>
    <g id="text_16">
     <!-- C- -_Compiler -->
     <g transform="translate(502.656562 36.076875) scale(0.08 -0.08)">
      <defs>
       <path id="DejaVuSans-26" d="M 4122 4306 
L 4122 3641 
Q 3803 3938 3442 4084 
Q 3081 4231 2675 4231 
Q 1875 4231 1450 3742 
Q 1025 3253 1025 2328 
Q 1025 1406 1450 917 
Q 1875 428 2675 428 
Q 3081 428 3442 575 
Q 3803 722 4122 1019 
L 4122 359 
Q 3791 134 3420 21 
Q 3050 -91 2638 -91 
Q 1578 -91 968 557 
Q 359 1206 359 2328 
Q 359 3453 968 4101 
Q 1578 4750 2638 4750 
Q 3056 4750 3426 4639 
Q 3797 4528 4122 4306 
z
" transform="scale(0.015625)"/>
       <path id="DejaVuSans-10" d="M 313 2009 
L 1997 2009 
L 1997 1497 
L 313 1497 
L 313 2009 
z
" transform="scale(0.015625)"/>
       <path id="DejaVuSans-42" d="M 3263 -1063 
L 3263 -1509 
L -63 -1509 
L -63 -1063 
L 3263 -1063 
z
" transform="scale(0.015625)"/>
      </defs>
      <use xlink:href="#DejaVuSans-26"/>
      <use xlink:href="#DejaVuSans-10" transform="translate(69.828125 0)"/>
      <use xlink:href="#DejaVuSans-10" transform="translate(105.90625 0)"/>
      <use xlink:href="#DejaVuSans-42" transform="translate(141.984375 0)"/>
      <use xlink:href="#DejaVuSans-26" transform="translate(191.984375 0)"/>
      <use xlink:href="#DejaVuSans-52" transform="translate(261.8125 0)"/>
      <use xlink:href="#DejaVuSans-50" transform="translate(323 0)"/>
      <use xlink:href="#DejaVuSans-53" transform="translate(420.40625 0)"/>
      <use xlink:href="#DejaVuSans-4c" transform="translate(483.890625 0)"/>
      <use xlink:href="#DejaVuSans-4f" transform="translate(511.671875 0)"/>
      <use xlink:href="#DejaVuSans-48" transform="translate(539.453125 0)"/>
      <use xlink:href="#DejaVuSans-55" transform="translate(600.984375 0)"/>
     </g>
    </g>
    <g id="patch_39">
     <path d="M 480.256562 48.0775 
L 496.256562 48.0775 
L 496.256562 42.4775 
L 480.256562 42.4775 
z
" style="fill: #55a868"/>
    </g>
    <g id="text_17">
     <!-- GCC_O0 -->
     <g transform="translate(502.656562 48.0775) scale(0.08 -0.08)">
      <defs>
       <path id="DejaVuSans-2a" d="M 3809 666 
L 3809 1919 
L 2778 1919 
L 2778 2438 
L 4434 2438 
L 4434 434 
Q 4069 175 3628 42 
Q 3188 -91 2688 -91 
Q 1594 -91 976 548 
Q 359 1188 359 2328 
Q 359 3472 976 4111 
Q 1594 4750 2688 4750 
Q 3144 4750 3555 4637 
Q 3966 4525 4313 4306 
L 4313 3634 
Q 3963 3931 3569 4081 
Q 3175 4231 2741 4231 
Q 1884 4231 1454 3753 
Q 1025 3275 1025 2328 
Q 1025 1384 1454 906 
Q 1884 428 2741 428 
Q 3075 428 3337 486 
Q 3600 544 3809 666 
z
" transform="scale(0.015625)"/>
       <path id="DejaVuSans-32" d="M 2522 4238 
Q 1834 4238 1429 3725 
Q 1025 3213 1025 2328 
Q 1025 1447 1429 934 
Q 1834 422 2522 422 
Q 3209 422 3611 934 
Q 4013 1447 4013 2328 
Q 4013 3213 3611 3725 
Q 3209 4238 2522 4238 
z
M 2522 4750 
Q 3503 4750 4090 4092 
Q 4678 3434 4678 2328 
Q 4678 1225 4090 567 
Q 3503 -91 2522 -91 
Q 1538 -91 948 565 
Q 359 1222 359 2328 
Q 359 3434 948 4092 
Q 1538 4750 2522 4750 
z
" transform="scale(0.015625)"/>
      </defs>
      <use xlink:href="#DejaVuSans-2a"/>
      <use xlink:href="#DejaVuSans-26" transform="translate(77.484375 0)"/>
      <use xlink:href="#DejaVuSans-26" transform="translate(147.3125 0)"/>
      <use xlink:href="#DejaVuSans-42" transform="translate(217.140625 0)"/>
      <use xlink:href="#DejaVuSans-32" transform="translate(267.140625 0)"/>
      <use xlink:href="#DejaVuSans-13" transform="translate(345.859375 0)"/>
     </g>
    </g>
    <g id="patch_40">
     <path d="M 480.256562 60.078125 
L 496.256562 60.078125 
L 496.256562 54.478125 
L 480.256562 54.478125 
z
" style="fill: #c44e52"/>
    </g>
    <g id="text_18">
     <!-- GCC_O2 -->
     <g transform="translate(502.656562 60.078125) scale(0.08 -0.08)">
      <use xlink:href="#DejaVuSans-2a"/>
      <use xlink:href="#DejaVuSans-26" transform="translate(77.484375 0)"/>
      <use xlink:href="#DejaVuSans-26" transform="translate(147.3125 0)"/>
      <use xlink:href="#DejaVuSans-42" transform="translate(217.140625 0)"/>
      <use xlink:href="#DejaVuSans-32" transform="translate(267.140625 0)"/>
      <use xlink:href="#DejaVuSans-15" transform="translate(345.859375 0)"/>
     </g>
    </g>
    <g id="patch_41">
     <path d="M 480.256562 72.07875 
L 496.256562 72.07875 
L 496.256562 66.47875 
L 480.256562 66.47875 
z
" style="fill: #8172b2"/>
    </g>
    <g id="text_19">
     <!-- Clang_O0 -->
     <g transform="translate(502.656562 72.07875) scale(0.08 -0.08)">
      <use xlink:href="#DejaVuSans-26"/>
      <use xlink:href="#DejaVuSans-4f" transform="translate(69.828125 0)"/>
      <use xlink:href="#DejaVuSans-44" transform="translate(97.609375 0)"/>
      <use xlink:href="#DejaVuSans-51" transform="translate(158.890625 0)"/>
      <use xlink:href="#DejaVuSans-4a" transform="translate(222.265625 0)"/>
      <use xlink:href="#DejaVuSans-42" transform="translate(285.75 0)"/>
      <use xlink:href="#DejaVuSans-32" transform="translate(335.75 0)"/>
      <use xlink:href="#DejaVuSans-13" transform="translate(414.46875 0)"/>
     </g>
    </g>
    <g id="patch_42">
     <path d="M 480.256562 84.079375 
L 496.256562 84.079375 
L 496.256562 78.479375 
L 480.256562 78.479375 
z
" style="fill: #ccb974"/>
    </g>
    <g id="text_20">
     <!-- Clang_O2 -->
     <g transform="translate(502.656562 84.079375) scale(0.08 -0.08)">
      <use xlink:href="#DejaVuSans-26"/>
      <use xlink:href="#DejaVuSans-4f" transform="translate(69.828125 0)"/>
      <use xlink:href="#DejaVuSans-44" transform="translate(97.609375 0)"/>
      <use xlink:href="#DejaVuSans-51" transform="translate(158.890625 0)"/>
      <use xlink:href="#DejaVuSans-4a" transform="translate(222.265625 0)"/>
      <use xlink:href="#DejaVuSans-42" transform="translate(285.75 0)"/>
      <use xlink:href="#DejaVuSans-32" transform="translate(335.75 0)"/>
      <use xlink:href="#DejaVuSans-15" transform="translate(414.46875 0)"/>
     </g>
    </g>
   </g>
  </g>
 </g>
 <defs>
  <clipPath id="pdea4b7bd31">
   <rect x="50.466406" y="22.798125" width="510.757656" height="290.663963"/>
  </clipPath>
 </defs>
</svg>
