<?xml version="1.0" encoding="utf-8" standalone="no"?>
<!DOCTYPE svg PUBLIC "-//W3C//DTD SVG 1.1//EN"
  "http://www.w3.org/Graphics/SVG/1.1/DTD/svg11.dtd">
<svg xmlns:xlink="http://www.w3.org/1999/xlink" width="683.624062pt" height="351.634078pt" viewBox="0 0 683.624062 351.634078" xmlns="http://www.w3.org/2000/svg" version="1.1">
 <metadata>
  <rdf:RDF xmlns:dc="http://purl.org/dc/elements/1.1/" xmlns:cc="http://creativecommons.org/ns#" xmlns:rdf="http://www.w3.org/1999/02/22-rdf-syntax-ns#">
   <cc:Work>
    <dc:type rdf:resource="http://purl.org/dc/dcmitype/StillImage"/>
    <dc:date>2026-07-03T22:49:04.748736</dc:date>
    <dc:format>image/svg+xml</dc:format>
    <dc:creator>
     <cc:Agent>
      <dc:title>Matplotlib v3.11.0, https://matplotlib.org/</dc:title>
     </cc:Agent>
    </dc:creator>
   </cc:Work>
  </rdf:RDF>
 </metadata>
 <defs>
  <style type="text/css">*{stroke-linejoin: round; stroke-linecap: butt}</style>
 </defs>
 <g id="figure_1">
  <g id="patch_1">
   <path d="M 0 351.634078 
L 683.624062 351.634078 
L 683.624062 0 
L 0 0 
z
" style="fill: #ffffff"/>
  </g>
  <g id="axes_1">
   <g id="patch_2">
    <path d="M 50.466406 309.355545 
L 676.424062 309.355545 
L 676.424062 22.798125 
L 50.466406 22.798125 
z
" style="fill: #ffffff"/>
   </g>
   <g id="matplotlib.axis_1">
    <g id="xtick_1">
     <g id="line2d_1">
      <defs>
       <path id="m3857cd3b7c" d="M 0 0 
L 0 3.5 
" style="stroke: #000000; stroke-width: 0.8"/>
      </defs>
      <g>
       <use xlink:href="#m3857cd3b7c" x="107.576343" y="309.355545" style="stroke: #000000; stroke-width: 0.8"/>
      </g>
     </g>
     <g id="text_1">
      <!-- fib -->
      <g transform="translate(96.346831 327.363736) rotate(-25) scale(0.09 -0.09)">
       <defs>
        <path id="DejaVuSans-13af" d="M 3431 3500 
L 3431 0 
L 2853 0 
L 2853 3053 
L 1275 3053 
L 1275 0 
L 697 0 
L 697 3053 
L 147 3053 
L 147 3500 
L 697 3500 
L 697 3744 
Q 697 4316 967 4589 
Q 1238 4863 1797 4863 
L 2375 4863 
L 2375 4384 
L 1825 4384 
Q 1516 4384 1395 4259 
Q 1275 4134 1275 3809 
L 1275 3500 
L 3431 3500 
z
M 2853 4856 
L 3431 4856 
L 3431 4128 
L 2853 4128 
L 2853 4856 
z
" transform="scale(0.015625)"/>
        <path id="DejaVuSans-45" d="M 3116 1747 
Q 3116 2381 2855 2742 
Q 2594 3103 2138 3103 
Q 1681 3103 1420 2742 
Q 1159 2381 1159 1747 
Q 1159 1113 1420 752 
Q 1681 391 2138 391 
Q 2594 391 2855 752 
Q 3116 1113 3116 1747 
z
M 1159 2969 
Q 1341 3281 1617 3432 
Q 1894 3584 2278 3584 
Q 2916 3584 3314 3078 
Q 3713 2572 3713 1747 
Q 3713 922 3314 415 
Q 2916 -91 2278 -91 
Q 1894 -91 1617 61 
Q 1341 213 1159 525 
L 1159 0 
L 581 0 
L 581 4863 
L 1159 4863 
L 1159 2969 
z
" transform="scale(0.015625)"/>
       </defs>
       <use xlink:href="#DejaVuSans-13af"/>
       <use xlink:href="#DejaVuSans-45" transform="translate(62.984375 0)"/>
      </g>
     </g>
    </g>
    <g id="xtick_2">
     <g id="line2d_2">
      <g>
       <use xlink:href="#m3857cd3b7c" x="180.68174" y="309.355545" style="stroke: #000000; stroke-width: 0.8"/>
      </g>
     </g>
     <g id="text_2">
      <!-- matmul -->
      <g transform="translate(148.245901 337.252409) rotate(-25) scale(0.09 -0.09)">
       <defs>
        <path id="DejaVuSans-50" d="M 3328 2828 
Q 3544 3216 3844 3400 
Q 4144 3584 4550 3584 
Q 5097 3584 5394 3201 
Q 5691 2819 5691 2113 
L 5691 0 
L 5113 0 
L 5113 2094 
Q 5113 2597 4934 2840 
Q 4756 3084 4391 3084 
Q 3944 3084 3684 2787 
Q 3425 2491 3425 1978 
L 3425 0 
L 2847 0 
L 2847 2094 
Q 2847 2600 2669 2842 
Q 2491 3084 2119 3084 
Q 1678 3084 1418 2786 
Q 1159 2488 1159 1978 
L 1159 0 
L 581 0 
L 581 3500 
L 1159 3500 
L 1159 2956 
Q 1356 3278 1631 3431 
Q 1906 3584 2284 3584 
Q 2666 3584 2933 3390 
Q 3200 3197 3328 2828 
z
" transform="scale(0.015625)"/>
        <path id="DejaVuSans-44" d="M 2194 1759 
Q 1497 1759 1228 1600 
Q 959 1441 959 1056 
Q 959 750 1161 570 
Q 1363 391 1709 391 
Q 2188 391 2477 730 
Q 2766 1069 2766 1631 
L 2766 1759 
L 2194 1759 
z
M 3341 1997 
L 3341 0 
L 2766 0 
L 2766 531 
Q 2569 213 2275 61 
Q 1981 -91 1556 -91 
Q 1019 -91 701 211 
Q 384 513 384 1019 
Q 384 1609 779 1909 
Q 1175 2209 1959 2209 
L 2766 2209 
L 2766 2266 
Q 2766 2663 2505 2880 
Q 2244 3097 1772 3097 
Q 1472 3097 1187 3025 
Q 903 2953 641 2809 
L 641 3341 
Q 956 3463 1253 3523 
Q 1550 3584 1831 3584 
Q 2591 3584 2966 3190 
Q 3341 2797 3341 1997 
z
" transform="scale(0.015625)"/>
        <path id="DejaVuSans-57" d="M 1172 4494 
L 1172 3500 
L 2356 3500 
L 2356 3053 
L 1172 3053 
L 1172 1153 
Q 1172 725 1289 603 
Q 1406 481 1766 481 
L 2356 481 
L 2356 0 
L 1766 0 
Q 1100 0 847 248 
Q 594 497 594 1153 
L 594 3053 
L 172 3053 
L 172 3500 
L 594 3500 
L 594 4494 
L 1172 4494 
z
" transform="scale(0.015625)"/>
        <path id="DejaVuSans-58" d="M 544 1381 
L 544 3500 
L 1119 3500 
L 1119 1403 
Q 1119 906 1312 657 
Q 1506 409 1894 409 
Q 2359 409 2629 706 
Q 2900 1003 2900 1516 
L 2900 3500 
L 3475 3500 
L 3475 0 
L 2900 0 
L 2900 538 
Q 2691 219 2414 64 
Q 2138 -91 1772 -91 
Q 1169 -91 856 284 
Q 544 659 544 1381 
z
M 1991 3584 
L 1991 3584 
z
" transform="scale(0.015625)"/>
        <path id="DejaVuSans-4f" d="M 603 4863 
L 1178 4863 
L 1178 0 
L 603 0 
L 603 4863 
z
" transform="scale(0.015625)"/>
       </defs>
       <use xlink:href="#DejaVuSans-50"/>
       <use xlink:href="#DejaVuSans-44" transform="translate(97.40625 0)"/>
       <use xlink:href="#DejaVuSans-57" transform="translate(158.6875 0)"/>
       <use xlink:href="#DejaVuSans-50" transform="translate(197.890625 0)"/>
       <use xlink:href="#DejaVuSans-58" transform="translate(295.296875 0)"/>
       <use xlink:href="#DejaVuSans-4f" transform="translate(358.671875 0)"/>
      </g>
     </g>
    </g>
    <g id="xtick_3">
     <g id="line2d_3">
      <g>
       <use xlink:href="#m3857cd3b7c" x="253.787138" y="309.355545" style="stroke: #000000; stroke-width: 0.8"/>
      </g>
     </g>
     <g id="text_3">
      <!-- float -->
      <g transform="translate(234.548697 331.098361) rotate(-25) scale(0.09 -0.09)">
       <defs>
        <path id="DejaVuSans-13b0" d="M 1831 4863 
L 3431 4863 
L 3431 0 
L 2853 0 
L 2853 4384 
L 1825 4384 
Q 1516 4384 1395 4259 
Q 1275 4134 1275 3809 
L 1275 3500 
L 2222 3500 
L 2222 3053 
L 1275 3053 
L 1275 0 
L 697 0 
L 697 3053 
L 147 3053 
L 147 3500 
L 697 3500 
L 697 3744 
Q 697 4328 969 4595 
Q 1241 4863 1831 4863 
z
" transform="scale(0.015625)"/>
        <path id="DejaVuSans-52" d="M 1959 3097 
Q 1497 3097 1228 2736 
Q 959 2375 959 1747 
Q 959 1119 1226 758 
Q 1494 397 1959 397 
Q 2419 397 2687 759 
Q 2956 1122 2956 1747 
Q 2956 2369 2687 2733 
Q 2419 3097 1959 3097 
z
M 1959 3584 
Q 2709 3584 3137 3096 
Q 3566 2609 3566 1747 
Q 3566 888 3137 398 
Q 2709 -91 1959 -91 
Q 1206 -91 779 398 
Q 353 888 353 1747 
Q 353 2609 779 3096 
Q 1206 3584 1959 3584 
z
" transform="scale(0.015625)"/>
       </defs>
       <use xlink:href="#DejaVuSans-13b0"/>
       <use xlink:href="#DejaVuSans-52" transform="translate(62.984375 0)"/>
       <use xlink:href="#DejaVuSans-44" transform="translate(124.171875 0)"/>
       <use xlink:href="#DejaVuSans-57" transform="translate(185.453125 0)"/>
      </g>
     </g>
    </g>
    <g id="xtick_4">
     <g id="line2d_4">
      <g>
       <use xlink:href="#m3857cd3b7c" x="326.892536" y="309.355545" style="stroke: #000000; stroke-width: 0.8"/>
      </g>
     </g>
     <g id="text_4">
      <!-- struct -->
      <g transform="translate(302.326704 333.581927) rotate(-25) scale(0.09 -0.09)">
       <defs>
        <path id="DejaVuSans-56" d="M 2834 3397 
L 2834 2853 
Q 2591 2978 2328 3040 
Q 2066 3103 1784 3103 
Q 1356 3103 1142 2972 
Q 928 2841 928 2578 
Q 928 2378 1081 2264 
Q 1234 2150 1697 2047 
L 1894 2003 
Q 2506 1872 2764 1633 
Q 3022 1394 3022 966 
Q 3022 478 2636 193 
Q 2250 -91 1575 -91 
Q 1294 -91 989 -36 
Q 684 19 347 128 
L 347 722 
Q 666 556 975 473 
Q 1284 391 1588 391 
Q 1994 391 2212 530 
Q 2431 669 2431 922 
Q 2431 1156 2273 1281 
Q 2116 1406 1581 1522 
L 1381 1569 
Q 847 1681 609 1914 
Q 372 2147 372 2553 
Q 372 3047 722 3315 
Q 1072 3584 1716 3584 
Q 2034 3584 2315 3537 
Q 2597 3491 2834 3397 
z
" transform="scale(0.015625)"/>
        <path id="DejaVuSans-55" d="M 2631 2963 
Q 2534 3019 2420 3045 
Q 2306 3072 2169 3072 
Q 1681 3072 1420 2755 
Q 1159 2438 1159 1844 
L 1159 0 
L 581 0 
L 581 3500 
L 1159 3500 
L 1159 2956 
Q 1341 3275 1631 3429 
Q 1922 3584 2338 3584 
Q 2397 3584 2469 3576 
Q 2541 3569 2628 3553 
L 2631 2963 
z
" transform="scale(0.015625)"/>
        <path id="DejaVuSans-46" d="M 3122 3366 
L 3122 2828 
Q 2878 2963 2633 3030 
Q 2388 3097 2138 3097 
Q 1578 3097 1268 2742 
Q 959 2388 959 1747 
Q 959 1106 1268 751 
Q 1578 397 2138 397 
Q 2388 397 2633 464 
Q 2878 531 3122 666 
L 3122 134 
Q 2881 22 2623 -34 
Q 2366 -91 2075 -91 
Q 1284 -91 818 406 
Q 353 903 353 1747 
Q 353 2603 823 3093 
Q 1294 3584 2113 3584 
Q 2378 3584 2631 3529 
Q 2884 3475 3122 3366 
z
" transform="scale(0.015625)"/>
       </defs>
       <use xlink:href="#DejaVuSans-56"/>
       <use xlink:href="#DejaVuSans-57" transform="translate(52.09375 0)"/>
       <use xlink:href="#DejaVuSans-55" transform="translate(91.296875 0)"/>
       <use xlink:href="#DejaVuSans-58" transform="translate(132.40625 0)"/>
       <use xlink:href="#DejaVuSans-46" transform="translate(195.78125 0)"/>
       <use xlink:href="#DejaVuSans-57" transform="translate(250.765625 0)"/>
      </g>
     </g>
    </g>
    <g id="xtick_5">
     <g id="line2d_5">
      <g>
       <use xlink:href="#m3857cd3b7c" x="399.997933" y="309.355545" style="stroke: #000000; stroke-width: 0.8"/>
      </g>
     </g>
     <g id="text_5">
      <!-- prime -->
      <g transform="translate(375.322495 333.633674) rotate(-25) scale(0.09 -0.09)">
       <defs>
        <path id="DejaVuSans-53" d="M 1159 525 
L 1159 -1331 
L 581 -1331 
L 581 3500 
L 1159 3500 
L 1159 2969 
Q 1341 3281 1617 3432 
Q 1894 3584 2278 3584 
Q 2916 3584 3314 3078 
Q 3713 2572 3713 1747 
Q 3713 922 3314 415 
Q 2916 -91 2278 -91 
Q 1894 -91 1617 61 
Q 1341 213 1159 525 
z
M 3116 1747 
Q 3116 2381 2855 2742 
Q 2594 3103 2138 3103 
Q 1681 3103 1420 2742 
Q 1159 2381 1159 1747 
Q 1159 1113 1420 752 
Q 1681 391 2138 391 
Q 2594 391 2855 752 
Q 3116 1113 3116 1747 
z
" transform="scale(0.015625)"/>
        <path id="DejaVuSans-4c" d="M 603 3500 
L 1178 3500 
L 1178 0 
L 603 0 
L 603 3500 
z
M 603 4863 
L 1178 4863 
L 1178 4134 
L 603 4134 
L 603 4863 
z
" transform="scale(0.015625)"/>
        <path id="DejaVuSans-48" d="M 3597 1894 
L 3597 1613 
L 953 1613 
Q 991 1019 1311 708 
Q 1631 397 2203 397 
Q 2534 397 2845 478 
Q 3156 559 3463 722 
L 3463 178 
Q 3153 47 2828 -22 
Q 2503 -91 2169 -91 
Q 1331 -91 842 396 
Q 353 884 353 1716 
Q 353 2575 817 3079 
Q 1281 3584 2069 3584 
Q 2775 3584 3186 3129 
Q 3597 2675 3597 1894 
z
M 3022 2063 
Q 3016 2534 2758 2815 
Q 2500 3097 2075 3097 
Q 1594 3097 1305 2825 
Q 1016 2553 972 2059 
L 3022 2063 
z
" transform="scale(0.015625)"/>
       </defs>
       <use xlink:href="#DejaVuSans-53"/>
       <use xlink:href="#DejaVuSans-55" transform="translate(63.484375 0)"/>
       <use xlink:href="#DejaVuSans-4c" transform="translate(104.59375 0)"/>
       <use xlink:href="#DejaVuSans-50" transform="translate(132.375 0)"/>
       <use xlink:href="#DejaVuSans-48" transform="translate(229.78125 0)"/>
      </g>
     </g>
    </g>
    <g id="xtick_6">
     <g id="line2d_6">
      <g>
       <use xlink:href="#m3857cd3b7c" x="473.103331" y="309.355545" style="stroke: #000000; stroke-width: 0.8"/>
      </g>
     </g>
     <g id="text_6">
      <!-- mixed -->
      <g transform="translate(447.204377 334.204209) rotate(-25) scale(0.09 -0.09)">
       <defs>
        <path id="DejaVuSans-5b" d="M 3513 3500 
L 2247 1797 
L 3578 0 
L 2900 0 
L 1881 1375 
L 863 0 
L 184 0 
L 1544 1831 
L 300 3500 
L 978 3500 
L 1906 2253 
L 2834 3500 
L 3513 3500 
z
" transform="scale(0.015625)"/>
        <path id="DejaVuSans-47" d="M 2906 2969 
L 2906 4863 
L 3481 4863 
L 3481 0 
L 2906 0 
L 2906 525 
Q 2725 213 2448 61 
Q 2172 -91 1784 -91 
Q 1150 -91 751 415 
Q 353 922 353 1747 
Q 353 2572 751 3078 
Q 1150 3584 1784 3584 
Q 2172 3584 2448 3432 
Q 2725 3281 2906 2969 
z
M 947 1747 
Q 947 1113 1208 752 
Q 1469 391 1925 391 
Q 2381 391 2643 752 
Q 2906 1113 2906 1747 
Q 2906 2381 2643 2742 
Q 2381 3103 1925 3103 
Q 1469 3103 1208 2742 
Q 947 2381 947 1747 
z
" transform="scale(0.015625)"/>
       </defs>
       <use xlink:href="#DejaVuSans-50"/>
       <use xlink:href="#DejaVuSans-4c" transform="translate(97.40625 0)"/>
       <use xlink:href="#DejaVuSans-5b" transform="translate(125.1875 0)"/>
       <use xlink:href="#DejaVuSans-48" transform="translate(181.296875 0)"/>
       <use xlink:href="#DejaVuSans-47" transform="translate(242.828125 0)"/>
      </g>
     </g>
    </g>
    <g id="xtick_7">
     <g id="line2d_7">
      <g>
       <use xlink:href="#m3857cd3b7c" x="546.208728" y="309.355545" style="stroke: #000000; stroke-width: 0.8"/>
      </g>
     </g>
     <g id="text_7">
      <!-- constfold -->
      <g transform="translate(507.896191 339.992758) rotate(-25) scale(0.09 -0.09)">
       <defs>
        <path id="DejaVuSans-51" d="M 3513 2113 
L 3513 0 
L 2938 0 
L 2938 2094 
Q 2938 2591 2744 2837 
Q 2550 3084 2163 3084 
Q 1697 3084 1428 2787 
Q 1159 2491 1159 1978 
L 1159 0 
L 581 0 
L 581 3500 
L 1159 3500 
L 1159 2956 
Q 1366 3272 1645 3428 
Q 1925 3584 2291 3584 
Q 2894 3584 3203 3211 
Q 3513 2838 3513 2113 
z
" transform="scale(0.015625)"/>
        <path id="DejaVuSans-49" d="M 2375 4863 
L 2375 4384 
L 1825 4384 
Q 1516 4384 1395 4259 
Q 1275 4134 1275 3809 
L 1275 3500 
L 2222 3500 
L 2222 3053 
L 1275 3053 
L 1275 0 
L 697 0 
L 697 3053 
L 147 3053 
L 147 3500 
L 697 3500 
L 697 3744 
Q 697 4328 969 4595 
Q 1241 4863 1831 4863 
L 2375 4863 
z
" transform="scale(0.015625)"/>
       </defs>
       <use xlink:href="#DejaVuSans-46"/>
       <use xlink:href="#DejaVuSans-52" transform="translate(54.984375 0)"/>
       <use xlink:href="#DejaVuSans-51" transform="translate(116.171875 0)"/>
       <use xlink:href="#DejaVuSans-56" transform="translate(179.546875 0)"/>
       <use xlink:href="#DejaVuSans-57" transform="translate(231.640625 0)"/>
       <use xlink:href="#DejaVuSans-49" transform="translate(270.84375 0)"/>
       <use xlink:href="#DejaVuSans-52" transform="translate(306.046875 0)"/>
       <use xlink:href="#DejaVuSans-4f" transform="translate(367.234375 0)"/>
       <use xlink:href="#DejaVuSans-47" transform="translate(395.015625 0)"/>
      </g>
     </g>
    </g>
    <g id="xtick_8">
     <g id="line2d_8">
      <g>
       <use xlink:href="#m3857cd3b7c" x="619.314126" y="309.355545" style="stroke: #000000; stroke-width: 0.8"/>
      </g>
     </g>
     <g id="text_8">
      <!-- conststore -->
      <g transform="translate(575.678021 342.474541) rotate(-25) scale(0.09 -0.09)">
       <use xlink:href="#DejaVuSans-46"/>
       <use xlink:href="#DejaVuSans-52" transform="translate(54.984375 0)"/>
       <use xlink:href="#DejaVuSans-51" transform="translate(116.171875 0)"/>
       <use xlink:href="#DejaVuSans-56" transform="translate(179.546875 0)"/>
       <use xlink:href="#DejaVuSans-57" transform="translate(231.640625 0)"/>
       <use xlink:href="#DejaVuSans-56" transform="translate(270.84375 0)"/>
       <use xlink:href="#DejaVuSans-57" transform="translate(322.9375 0)"/>
       <use xlink:href="#DejaVuSans-52" transform="translate(362.140625 0)"/>
       <use xlink:href="#DejaVuSans-55" transform="translate(423.328125 0)"/>
       <use xlink:href="#DejaVuSans-48" transform="translate(462.234375 0)"/>
      </g>
     </g>
    </g>
   </g>
   <g id="matplotlib.axis_2">
    <g id="ytick_1">
     <g id="line2d_9">
      <path d="M 50.466406 309.355545 
L 676.424062 309.355545 
" clip-path="url(#p9bc8a3b58a)" style="fill: none; stroke-dasharray: 0.8,1.32; stroke-dashoffset: 0; stroke: #b0b0b0; stroke-opacity: 0.4; stroke-width: 0.8"/>
     </g>
     <g id="line2d_10">
      <defs>
       <path id="mc0d49fb3b0" d="M 0 0 
L -3.5 0 
" style="stroke: #000000; stroke-width: 0.8"/>
      </defs>
      <g>
       <use xlink:href="#mc0d49fb3b0" x="50.466406" y="309.355545" style="stroke: #000000; stroke-width: 0.8"/>
      </g>
     </g>
     <g id="text_9">
      <!-- 0.00 -->
      <g transform="translate(21.200781 313.154373) scale(0.1 -0.1)">
       <defs>
        <path id="DejaVuSans-13" d="M 2034 4250 
Q 1547 4250 1301 3770 
Q 1056 3291 1056 2328 
Q 1056 1369 1301 889 
Q 1547 409 2034 409 
Q 2525 409 2770 889 
Q 3016 1369 3016 2328 
Q 3016 3291 2770 3770 
Q 2525 4250 2034 4250 
z
M 2034 4750 
Q 2819 4750 3233 4129 
Q 3647 3509 3647 2328 
Q 3647 1150 3233 529 
Q 2819 -91 2034 -91 
Q 1250 -91 836 529 
Q 422 1150 422 2328 
Q 422 3509 836 4129 
Q 1250 4750 2034 4750 
z
" transform="scale(0.015625)"/>
        <path id="DejaVuSans-11" d="M 684 794 
L 1344 794 
L 1344 0 
L 684 0 
L 684 794 
z
" transform="scale(0.015625)"/>
       </defs>
       <use xlink:href="#DejaVuSans-13"/>
       <use xlink:href="#DejaVuSans-11" transform="translate(63.625 0)"/>
       <use xlink:href="#DejaVuSans-13" transform="translate(95.40625 0)"/>
       <use xlink:href="#DejaVuSans-13" transform="translate(159.03125 0)"/>
      </g>
     </g>
    </g>
    <g id="ytick_2">
     <g id="line2d_11">
      <path d="M 50.466406 266.656028 
L 676.424062 266.656028 
" clip-path="url(#p9bc8a3b58a)" style="fill: none; stroke-dasharray: 0.8,1.32; stroke-dashoffset: 0; stroke: #b0b0b0; stroke-opacity: 0.4; stroke-width: 0.8"/>
     </g>
     <g id="line2d_12">
      <g>
       <use xlink:href="#mc0d49fb3b0" x="50.466406" y="266.656028" style="stroke: #000000; stroke-width: 0.8"/>
      </g>
     </g>
     <g id="text_10">
      <!-- 0.02 -->
      <g transform="translate(21.200781 270.454856) scale(0.1 -0.1)">
       <defs>
        <path id="DejaVuSans-15" d="M 1228 531 
L 3431 531 
L 3431 0 
L 469 0 
L 469 531 
Q 828 903 1448 1529 
Q 2069 2156 2228 2338 
Q 2531 2678 2651 2914 
Q 2772 3150 2772 3378 
Q 2772 3750 2511 3984 
Q 2250 4219 1831 4219 
Q 1534 4219 1204 4116 
Q 875 4013 500 3803 
L 500 4441 
Q 881 4594 1212 4672 
Q 1544 4750 1819 4750 
Q 2544 4750 2975 4387 
Q 3406 4025 3406 3419 
Q 3406 3131 3298 2873 
Q 3191 2616 2906 2266 
Q 2828 2175 2409 1742 
Q 1991 1309 1228 531 
z
" transform="scale(0.015625)"/>
       </defs>
       <use xlink:href="#DejaVuSans-13"/>
       <use xlink:href="#DejaVuSans-11" transform="translate(63.625 0)"/>
       <use xlink:href="#DejaVuSans-13" transform="translate(95.40625 0)"/>
       <use xlink:href="#DejaVuSans-15" transform="translate(159.03125 0)"/>
      </g>
     </g>
    </g>
    <g id="ytick_3">
     <g id="line2d_13">
      <path d="M 50.466406 223.956511 
L 676.424062 223.956511 
" clip-path="url(#p9bc8a3b58a)" style="fill: none; stroke-dasharray: 0.8,1.32; stroke-dashoffset: 0; stroke: #b0b0b0; stroke-opacity: 0.4; stroke-width: 0.8"/>
     </g>
     <g id="line2d_14">
      <g>
       <use xlink:href="#mc0d49fb3b0" x="50.466406" y="223.956511" style="stroke: #000000; stroke-width: 0.8"/>
      </g>
     </g>
     <g id="text_11">
      <!-- 0.04 -->
      <g transform="translate(21.200781 227.755339) scale(0.1 -0.1)">
       <defs>
        <path id="DejaVuSans-17" d="M 2419 4116 
L 825 1625 
L 2419 1625 
L 2419 4116 
z
M 2253 4666 
L 3047 4666 
L 3047 1625 
L 3713 1625 
L 3713 1100 
L 3047 1100 
L 3047 0 
L 2419 0 
L 2419 1100 
L 313 1100 
L 313 1709 
L 2253 4666 
z
" transform="scale(0.015625)"/>
       </defs>
       <use xlink:href="#DejaVuSans-13"/>
       <use xlink:href="#DejaVuSans-11" transform="translate(63.625 0)"/>
       <use xlink:href="#DejaVuSans-13" transform="translate(95.40625 0)"/>
       <use xlink:href="#DejaVuSans-17" transform="translate(159.03125 0)"/>
      </g>
     </g>
    </g>
    <g id="ytick_4">
     <g id="line2d_15">
      <path d="M 50.466406 181.256994 
L 676.424062 181.256994 
" clip-path="url(#p9bc8a3b58a)" style="fill: none; stroke-dasharray: 0.8,1.32; stroke-dashoffset: 0; stroke: #b0b0b0; stroke-opacity: 0.4; stroke-width: 0.8"/>
     </g>
     <g id="line2d_16">
      <g>
       <use xlink:href="#mc0d49fb3b0" x="50.466406" y="181.256994" style="stroke: #000000; stroke-width: 0.8"/>
      </g>
     </g>
     <g id="text_12">
      <!-- 0.06 -->
      <g transform="translate(21.200781 185.055822) scale(0.1 -0.1)">
       <defs>
        <path id="DejaVuSans-19" d="M 2113 2584 
Q 1688 2584 1439 2293 
Q 1191 2003 1191 1497 
Q 1191 994 1439 701 
Q 1688 409 2113 409 
Q 2538 409 2786 701 
Q 3034 994 3034 1497 
Q 3034 2003 2786 2293 
Q 2538 2584 2113 2584 
z
M 3366 4563 
L 3366 3988 
Q 3128 4100 2886 4159 
Q 2644 4219 2406 4219 
Q 1781 4219 1451 3797 
Q 1122 3375 1075 2522 
Q 1259 2794 1537 2939 
Q 1816 3084 2150 3084 
Q 2853 3084 3261 2657 
Q 3669 2231 3669 1497 
Q 3669 778 3244 343 
Q 2819 -91 2113 -91 
Q 1303 -91 875 529 
Q 447 1150 447 2328 
Q 447 3434 972 4092 
Q 1497 4750 2381 4750 
Q 2619 4750 2861 4703 
Q 3103 4656 3366 4563 
z
" transform="scale(0.015625)"/>
       </defs>
       <use xlink:href="#DejaVuSans-13"/>
       <use xlink:href="#DejaVuSans-11" transform="translate(63.625 0)"/>
       <use xlink:href="#DejaVuSans-13" transform="translate(95.40625 0)"/>
       <use xlink:href="#DejaVuSans-19" transform="translate(159.03125 0)"/>
      </g>
     </g>
    </g>
    <g id="ytick_5">
     <g id="line2d_17">
      <path d="M 50.466406 138.557477 
L 676.424062 138.557477 
" clip-path="url(#p9bc8a3b58a)" style="fill: none; stroke-dasharray: 0.8,1.32; stroke-dashoffset: 0; stroke: #b0b0b0; stroke-opacity: 0.4; stroke-width: 0.8"/>
     </g>
     <g id="line2d_18">
      <g>
       <use xlink:href="#mc0d49fb3b0" x="50.466406" y="138.557477" style="stroke: #000000; stroke-width: 0.8"/>
      </g>
     </g>
     <g id="text_13">
      <!-- 0.08 -->
      <g transform="translate(21.200781 142.356305) scale(0.1 -0.1)">
       <defs>
        <path id="DejaVuSans-1b" d="M 2034 2216 
Q 1584 2216 1326 1975 
Q 1069 1734 1069 1313 
Q 1069 891 1326 650 
Q 1584 409 2034 409 
Q 2484 409 2743 651 
Q 3003 894 3003 1313 
Q 3003 1734 2745 1975 
Q 2488 2216 2034 2216 
z
M 1403 2484 
Q 997 2584 770 2862 
Q 544 3141 544 3541 
Q 544 4100 942 4425 
Q 1341 4750 2034 4750 
Q 2731 4750 3128 4425 
Q 3525 4100 3525 3541 
Q 3525 3141 3298 2862 
Q 3072 2584 2669 2484 
Q 3125 2378 3379 2068 
Q 3634 1759 3634 1313 
Q 3634 634 3220 271 
Q 2806 -91 2034 -91 
Q 1263 -91 848 271 
Q 434 634 434 1313 
Q 434 1759 690 2068 
Q 947 2378 1403 2484 
z
M 1172 3481 
Q 1172 3119 1398 2916 
Q 1625 2713 2034 2713 
Q 2441 2713 2670 2916 
Q 2900 3119 2900 3481 
Q 2900 3844 2670 4047 
Q 2441 4250 2034 4250 
Q 1625 4250 1398 4047 
Q 1172 3844 1172 3481 
z
" transform="scale(0.015625)"/>
       </defs>
       <use xlink:href="#DejaVuSans-13"/>
       <use xlink:href="#DejaVuSans-11" transform="translate(63.625 0)"/>
       <use xlink:href="#DejaVuSans-13" transform="translate(95.40625 0)"/>
       <use xlink:href="#DejaVuSans-1b" transform="translate(159.03125 0)"/>
      </g>
     </g>
    </g>
    <g id="ytick_6">
     <g id="line2d_19">
      <path d="M 50.466406 95.85796 
L 676.424062 95.85796 
" clip-path="url(#p9bc8a3b58a)" style="fill: none; stroke-dasharray: 0.8,1.32; stroke-dashoffset: 0; stroke: #b0b0b0; stroke-opacity: 0.4; stroke-width: 0.8"/>
     </g>
     <g id="line2d_20">
      <g>
       <use xlink:href="#mc0d49fb3b0" x="50.466406" y="95.85796" style="stroke: #000000; stroke-width: 0.8"/>
      </g>
     </g>
     <g id="text_14">
      <!-- 0.10 -->
      <g transform="translate(21.200781 99.656788) scale(0.1 -0.1)">
       <defs>
        <path id="DejaVuSans-14" d="M 794 531 
L 1825 531 
L 1825 4091 
L 703 3866 
L 703 4441 
L 1819 4666 
L 2450 4666 
L 2450 531 
L 3481 531 
L 3481 0 
L 794 0 
L 794 531 
z
" transform="scale(0.015625)"/>
       </defs>
       <use xlink:href="#DejaVuSans-13"/>
       <use xlink:href="#DejaVuSans-11" transform="translate(63.625 0)"/>
       <use xlink:href="#DejaVuSans-14" transform="translate(95.40625 0)"/>
       <use xlink:href="#DejaVuSans-13" transform="translate(159.03125 0)"/>
      </g>
     </g>
    </g>
    <g id="ytick_7">
     <g id="line2d_21">
      <path d="M 50.466406 53.158442 
L 676.424062 53.158442 
" clip-path="url(#p9bc8a3b58a)" style="fill: none; stroke-dasharray: 0.8,1.32; stroke-dashoffset: 0; stroke: #b0b0b0; stroke-opacity: 0.4; stroke-width: 0.8"/>
     </g>
     <g id="line2d_22">
      <g>
       <use xlink:href="#mc0d49fb3b0" x="50.466406" y="53.158442" style="stroke: #000000; stroke-width: 0.8"/>
      </g>
     </g>
     <g id="text_15">
      <!-- 0.12 -->
      <g transform="translate(21.200781 56.957271) scale(0.1 -0.1)">
       <use xlink:href="#DejaVuSans-13"/>
       <use xlink:href="#DejaVuSans-11" transform="translate(63.625 0)"/>
       <use xlink:href="#DejaVuSans-14" transform="translate(95.40625 0)"/>
       <use xlink:href="#DejaVuSans-15" transform="translate(159.03125 0)"/>
      </g>
     </g>
    </g>
    <g id="text_16">
     <!-- segundos -->
     <g transform="translate(14.798438 190.108085) rotate(-90) scale(0.1 -0.1)">
      <defs>
       <path id="DejaVuSans-4a" d="M 2906 1791 
Q 2906 2416 2648 2759 
Q 2391 3103 1925 3103 
Q 1463 3103 1205 2759 
Q 947 2416 947 1791 
Q 947 1169 1205 825 
Q 1463 481 1925 481 
Q 2391 481 2648 825 
Q 2906 1169 2906 1791 
z
M 3481 434 
Q 3481 -459 3084 -895 
Q 2688 -1331 1869 -1331 
Q 1566 -1331 1297 -1286 
Q 1028 -1241 775 -1147 
L 775 -588 
Q 1028 -725 1275 -790 
Q 1522 -856 1778 -856 
Q 2344 -856 2625 -561 
Q 2906 -266 2906 331 
L 2906 616 
Q 2728 306 2450 153 
Q 2172 0 1784 0 
Q 1141 0 747 490 
Q 353 981 353 1791 
Q 353 2603 747 3093 
Q 1141 3584 1784 3584 
Q 2172 3584 2450 3431 
Q 2728 3278 2906 2969 
L 2906 3500 
L 3481 3500 
L 3481 434 
z
" transform="scale(0.015625)"/>
      </defs>
      <use xlink:href="#DejaVuSans-56"/>
      <use xlink:href="#DejaVuSans-48" transform="translate(52.09375 0)"/>
      <use xlink:href="#DejaVuSans-4a" transform="translate(113.625 0)"/>
      <use xlink:href="#DejaVuSans-58" transform="translate(177.109375 0)"/>
      <use xlink:href="#DejaVuSans-51" transform="translate(240.484375 0)"/>
      <use xlink:href="#DejaVuSans-47" transform="translate(303.859375 0)"/>
      <use xlink:href="#DejaVuSans-52" transform="translate(367.34375 0)"/>
      <use xlink:href="#DejaVuSans-56" transform="translate(428.53125 0)"/>
     </g>
    </g>
   </g>
   <g id="patch_3">
    <path d="M 78.919027 309.355545 
L 89.446204 309.355545 
L 89.446204 36.443716 
L 78.919027 36.443716 
z
" clip-path="url(#p9bc8a3b58a)" style="fill: #4c72b0"/>
   </g>
   <g id="patch_4">
    <path d="M 152.024425 309.355545 
L 162.551602 309.355545 
L 162.551602 293.772356 
L 152.024425 293.772356 
z
" clip-path="url(#p9bc8a3b58a)" style="fill: #4c72b0"/>
   </g>
   <g id="patch_5">
    <path d="M 225.129822 309.355545 
L 235.656999 309.355545 
L 235.656999 278.89371 
L 225.129822 278.89371 
z
" clip-path="url(#p9bc8a3b58a)" style="fill: #4c72b0"/>
   </g>
   <g id="patch_6">
    <path d="M 298.23522 309.355545 
L 308.762397 309.355545 
L 308.762397 297.865105 
L 298.23522 297.865105 
z
" clip-path="url(#p9bc8a3b58a)" style="fill: #4c72b0"/>
   </g>
   <g id="patch_7">
    <path d="M 371.340617 309.355545 
L 381.867795 309.355545 
L 381.867795 293.471325 
L 371.340617 293.471325 
z
" clip-path="url(#p9bc8a3b58a)" style="fill: #4c72b0"/>
   </g>
   <g id="patch_8">
    <path d="M 444.446015 309.355545 
L 454.973192 309.355545 
L 454.973192 299.871982 
L 444.446015 299.871982 
z
" clip-path="url(#p9bc8a3b58a)" style="fill: #4c72b0"/>
   </g>
   <g id="patch_9">
    <path d="M 517.551412 309.355545 
L 528.07859 309.355545 
L 528.07859 213.37984 
L 517.551412 213.37984 
z
" clip-path="url(#p9bc8a3b58a)" style="fill: #4c72b0"/>
   </g>
   <g id="patch_10">
    <path d="M 590.65681 309.355545 
L 601.183987 309.355545 
L 601.183987 108.116991 
L 590.65681 108.116991 
z
" clip-path="url(#p9bc8a3b58a)" style="fill: #4c72b0"/>
   </g>
   <g id="patch_11">
    <path d="M 90.615891 309.355545 
L 101.143068 309.355545 
L 101.143068 79.094129 
L 90.615891 79.094129 
z
" clip-path="url(#p9bc8a3b58a)" style="fill: #55a868"/>
   </g>
   <g id="patch_12">
    <path d="M 163.721288 309.355545 
L 174.248465 309.355545 
L 174.248465 301.071839 
L 163.721288 301.071839 
z
" clip-path="url(#p9bc8a3b58a)" style="fill: #55a868"/>
   </g>
   <g id="patch_13">
    <path d="M 236.826686 309.355545 
L 247.353863 309.355545 
L 247.353863 300.335272 
L 236.826686 300.335272 
z
" clip-path="url(#p9bc8a3b58a)" style="fill: #55a868"/>
   </g>
   <g id="patch_14">
    <path d="M 309.932083 309.355545 
L 320.459261 309.355545 
L 320.459261 301.767841 
L 309.932083 301.767841 
z
" clip-path="url(#p9bc8a3b58a)" style="fill: #55a868"/>
   </g>
   <g id="patch_15">
    <path d="M 383.037481 309.355545 
L 393.564658 309.355545 
L 393.564658 298.870679 
L 383.037481 298.870679 
z
" clip-path="url(#p9bc8a3b58a)" style="fill: #55a868"/>
   </g>
   <g id="patch_16">
    <path d="M 456.142879 309.355545 
L 466.670056 309.355545 
L 466.670056 303.58257 
L 456.142879 303.58257 
z
" clip-path="url(#p9bc8a3b58a)" style="fill: #55a868"/>
   </g>
   <g id="patch_17">
    <path d="M 529.248276 309.355545 
L 539.775453 309.355545 
L 539.775453 271.643332 
L 529.248276 271.643332 
z
" clip-path="url(#p9bc8a3b58a)" style="fill: #55a868"/>
   </g>
   <g id="patch_18">
    <path d="M 602.353674 309.355545 
L 612.880851 309.355545 
L 612.880851 201.710062 
L 602.353674 201.710062 
z
" clip-path="url(#p9bc8a3b58a)" style="fill: #55a868"/>
   </g>
   <g id="patch_19">
    <path d="M 102.312754 309.355545 
L 112.839931 309.355545 
L 112.839931 257.413717 
L 102.312754 257.413717 
z
" clip-path="url(#p9bc8a3b58a)" style="fill: #c44e52"/>
   </g>
   <g id="patch_20">
    <path d="M 175.418152 309.355545 
L 185.945329 309.355545 
L 185.945329 306.451978 
L 175.418152 306.451978 
z
" clip-path="url(#p9bc8a3b58a)" style="fill: #c44e52"/>
   </g>
   <g id="patch_21">
    <path d="M 248.523549 309.355545 
L 259.050727 309.355545 
L 259.050727 305.568098 
L 248.523549 305.568098 
z
" clip-path="url(#p9bc8a3b58a)" style="fill: #c44e52"/>
   </g>
   <g id="patch_22">
    <path d="M 321.628947 309.355545 
L 332.156124 309.355545 
L 332.156124 305.884074 
L 321.628947 305.884074 
z
" clip-path="url(#p9bc8a3b58a)" style="fill: #c44e52"/>
   </g>
   <g id="patch_23">
    <path d="M 394.734345 309.355545 
L 405.261522 309.355545 
L 405.261522 299.506901 
L 394.734345 299.506901 
z
" clip-path="url(#p9bc8a3b58a)" style="fill: #c44e52"/>
   </g>
   <g id="patch_24">
    <path d="M 467.839742 309.355545 
L 478.366919 309.355545 
L 478.366919 307.203489 
L 467.839742 307.203489 
z
" clip-path="url(#p9bc8a3b58a)" style="fill: #c44e52"/>
   </g>
   <g id="patch_25">
    <path d="M 540.94514 309.355545 
L 551.472317 309.355545 
L 551.472317 307.194949 
L 540.94514 307.194949 
z
" clip-path="url(#p9bc8a3b58a)" style="fill: #c44e52"/>
   </g>
   <g id="patch_26">
    <path d="M 614.050537 309.355545 
L 624.577715 309.355545 
L 624.577715 306.904593 
L 614.050537 306.904593 
z
" clip-path="url(#p9bc8a3b58a)" style="fill: #c44e52"/>
   </g>
   <g id="patch_27">
    <path d="M 114.009618 309.355545 
L 124.536795 309.355545 
L 124.536795 110.787846 
L 114.009618 110.787846 
z
" clip-path="url(#p9bc8a3b58a)" style="fill: #8172b2"/>
   </g>
   <g id="patch_28">
    <path d="M 187.115015 309.355545 
L 197.642193 309.355545 
L 197.642193 302.211916 
L 187.115015 302.211916 
z
" clip-path="url(#p9bc8a3b58a)" style="fill: #8172b2"/>
   </g>
   <g id="patch_29">
    <path d="M 260.220413 309.355545 
L 270.74759 309.355545 
L 270.74759 292.818022 
L 260.220413 292.818022 
z
" clip-path="url(#p9bc8a3b58a)" style="fill: #8172b2"/>
   </g>
   <g id="patch_30">
    <path d="M 333.325811 309.355545 
L 343.852988 309.355545 
L 343.852988 302.412604 
L 333.325811 302.412604 
z
" clip-path="url(#p9bc8a3b58a)" style="fill: #8172b2"/>
   </g>
   <g id="patch_31">
    <path d="M 406.431208 309.355545 
L 416.958385 309.355545 
L 416.958385 299.342508 
L 406.431208 299.342508 
z
" clip-path="url(#p9bc8a3b58a)" style="fill: #8172b2"/>
   </g>
   <g id="patch_32">
    <path d="M 479.536606 309.355545 
L 490.063783 309.355545 
L 490.063783 302.950617 
L 479.536606 302.950617 
z
" clip-path="url(#p9bc8a3b58a)" style="fill: #8172b2"/>
   </g>
   <g id="patch_33">
    <path d="M 552.642003 309.355545 
L 563.169181 309.355545 
L 563.169181 271.540853 
L 552.642003 271.540853 
z
" clip-path="url(#p9bc8a3b58a)" style="fill: #8172b2"/>
   </g>
   <g id="patch_34">
    <path d="M 625.747401 309.355545 
L 636.274578 309.355545 
L 636.274578 201.06957 
L 625.747401 201.06957 
z
" clip-path="url(#p9bc8a3b58a)" style="fill: #8172b2"/>
   </g>
   <g id="patch_35">
    <path d="M 125.706481 309.355545 
L 136.233659 309.355545 
L 136.233659 206.436899 
L 125.706481 206.436899 
z
" clip-path="url(#p9bc8a3b58a)" style="fill: #ccb974"/>
   </g>
   <g id="patch_36">
    <path d="M 198.811879 309.355545 
L 209.339056 309.355545 
L 209.339056 305.145373 
L 198.811879 305.145373 
z
" clip-path="url(#p9bc8a3b58a)" style="fill: #ccb974"/>
   </g>
   <g id="patch_37">
    <path d="M 271.917277 309.355545 
L 282.444454 309.355545 
L 282.444454 305.542478 
L 271.917277 305.542478 
z
" clip-path="url(#p9bc8a3b58a)" style="fill: #ccb974"/>
   </g>
   <g id="patch_38">
    <path d="M 345.022674 309.355545 
L 355.549851 309.355545 
L 355.549851 307.256864 
L 345.022674 307.256864 
z
" clip-path="url(#p9bc8a3b58a)" style="fill: #ccb974"/>
   </g>
   <g id="patch_39">
    <path d="M 418.128072 309.355545 
L 428.655249 309.355545 
L 428.655249 299.827148 
L 418.128072 299.827148 
z
" clip-path="url(#p9bc8a3b58a)" style="fill: #ccb974"/>
   </g>
   <g id="patch_40">
    <path d="M 491.233469 309.355545 
L 501.760647 309.355545 
L 501.760647 307.220569 
L 491.233469 307.220569 
z
" clip-path="url(#p9bc8a3b58a)" style="fill: #ccb974"/>
   </g>
   <g id="patch_41">
    <path d="M 564.338867 309.355545 
L 574.866044 309.355545 
L 574.866044 307.346533 
L 564.338867 307.346533 
z
" clip-path="url(#p9bc8a3b58a)" style="fill: #ccb974"/>
   </g>
   <g id="patch_42">
    <path d="M 637.444265 309.355545 
L 647.971442 309.355545 
L 647.971442 306.994262 
L 637.444265 306.994262 
z
" clip-path="url(#p9bc8a3b58a)" style="fill: #ccb974"/>
   </g>
   <g id="patch_43">
    <path d="M 50.466406 309.355545 
L 50.466406 22.798125 
" style="fill: none; stroke: #000000; stroke-width: 0.8; stroke-linejoin: miter; stroke-linecap: square"/>
   </g>
   <g id="patch_44">
    <path d="M 676.424062 309.355545 
L 676.424062 22.798125 
" style="fill: none; stroke: #000000; stroke-width: 0.8; stroke-linejoin: miter; stroke-linecap: square"/>
   </g>
   <g id="patch_45">
    <path d="M 50.466406 309.355545 
L 676.424062 309.355545 
" style="fill: none; stroke: #000000; stroke-width: 0.8; stroke-linejoin: miter; stroke-linecap: square"/>
   </g>
   <g id="patch_46">
    <path d="M 50.466406 22.798125 
L 676.424062 22.798125 
" style="fill: none; stroke: #000000; stroke-width: 0.8; stroke-linejoin: miter; stroke-linecap: square"/>
   </g>
   <g id="text_17">
    <!-- Tiempo de ejecución (mediana) -->
    <g transform="translate(268.618047 16.798125) scale(0.12 -0.12)">
     <defs>
      <path id="DejaVuSans-37" d="M -19 4666 
L 3928 4666 
L 3928 4134 
L 2272 4134 
L 2272 0 
L 1638 0 
L 1638 4134 
L -19 4134 
L -19 4666 
z
" transform="scale(0.015625)"/>
      <path id="DejaVuSans-3" transform="scale(0.015625)"/>
      <path id="DejaVuSans-4d" d="M 603 3500 
L 1178 3500 
L 1178 -63 
Q 1178 -731 923 -1031 
Q 669 -1331 103 -1331 
L -116 -1331 
L -116 -844 
L 38 -844 
Q 366 -844 484 -692 
Q 603 -541 603 -63 
L 603 3500 
z
M 603 4863 
L 1178 4863 
L 1178 4134 
L 603 4134 
L 603 4863 
z
" transform="scale(0.015625)"/>
      <path id="DejaVuSans-b5" d="M 1959 3097 
Q 1497 3097 1228 2736 
Q 959 2375 959 1747 
Q 959 1119 1226 758 
Q 1494 397 1959 397 
Q 2419 397 2687 759 
Q 2956 1122 2956 1747 
Q 2956 2369 2687 2733 
Q 2419 3097 1959 3097 
z
M 1959 3584 
Q 2709 3584 3137 3096 
Q 3566 2609 3566 1747 
Q 3566 888 3137 398 
Q 2709 -91 1959 -91 
Q 1206 -91 779 398 
Q 353 888 353 1747 
Q 353 2609 779 3096 
Q 1206 3584 1959 3584 
z
M 2393 5119 
L 3015 5119 
L 1997 3944 
L 1518 3944 
L 2393 5119 
z
" transform="scale(0.015625)"/>
      <path id="DejaVuSans-b" d="M 1984 4856 
Q 1566 4138 1362 3434 
Q 1159 2731 1159 2009 
Q 1159 1288 1364 580 
Q 1569 -128 1984 -844 
L 1484 -844 
Q 1016 -109 783 600 
Q 550 1309 550 2009 
Q 550 2706 781 3412 
Q 1013 4119 1484 4856 
L 1984 4856 
z
" transform="scale(0.015625)"/>
      <path id="DejaVuSans-c" d="M 513 4856 
L 1013 4856 
Q 1481 4119 1714 3412 
Q 1947 2706 1947 2009 
Q 1947 1309 1714 600 
Q 1481 -109 1013 -844 
L 513 -844 
Q 928 -128 1133 580 
Q 1338 1288 1338 2009 
Q 1338 2731 1133 3434 
Q 928 4138 513 4856 
z
" transform="scale(0.015625)"/>
     </defs>
     <use xlink:href="#DejaVuSans-37"/>
     <use xlink:href="#DejaVuSans-4c" transform="translate(58 0)"/>
     <use xlink:href="#DejaVuSans-48" transform="translate(85.78125 0)"/>
     <use xlink:href="#DejaVuSans-50" transform="translate(147.3125 0)"/>
     <use xlink:href="#DejaVuSans-53" transform="translate(244.71875 0)"/>
     <use xlink:href="#DejaVuSans-52" transform="translate(308.203125 0)"/>
     <use xlink:href="#DejaVuSans-3" transform="translate(369.390625 0)"/>
     <use xlink:href="#DejaVuSans-47" transform="translate(401.171875 0)"/>
     <use xlink:href="#DejaVuSans-48" transform="translate(464.65625 0)"/>
     <use xlink:href="#DejaVuSans-3" transform="translate(526.1875 0)"/>
     <use xlink:href="#DejaVuSans-48" transform="translate(557.96875 0)"/>
     <use xlink:href="#DejaVuSans-4d" transform="translate(619.5 0)"/>
     <use xlink:href="#DejaVuSans-48" transform="translate(647.28125 0)"/>
     <use xlink:href="#DejaVuSans-46" transform="translate(708.8125 0)"/>
     <use xlink:href="#DejaVuSans-58" transform="translate(763.796875 0)"/>
     <use xlink:href="#DejaVuSans-46" transform="translate(827.171875 0)"/>
     <use xlink:href="#DejaVuSans-4c" transform="translate(882.15625 0)"/>
     <use xlink:href="#DejaVuSans-b5" transform="translate(909.9375 0)"/>
     <use xlink:href="#DejaVuSans-51" transform="translate(971.125 0)"/>
     <use xlink:href="#DejaVuSans-3" transform="translate(1034.5 0)"/>
     <use xlink:href="#DejaVuSans-b" transform="translate(1066.28125 0)"/>
     <use xlink:href="#DejaVuSans-50" transform="translate(1105.296875 0)"/>
     <use xlink:href="#DejaVuSans-48" transform="translate(1202.703125 0)"/>
     <use xlink:href="#DejaVuSans-47" transform="translate(1264.234375 0)"/>
     <use xlink:href="#DejaVuSans-4c" transform="translate(1327.71875 0)"/>
     <use xlink:href="#DejaVuSans-44" transform="translate(1355.5 0)"/>
     <use xlink:href="#DejaVuSans-51" transform="translate(1416.78125 0)"/>
     <use xlink:href="#DejaVuSans-44" transform="translate(1480.15625 0)"/>
     <use xlink:href="#DejaVuSans-c" transform="translate(1541.4375 0)"/>
    </g>
   </g>
   <g id="legend_1">
    <g id="patch_47">
     <path d="M 593.856562 89.20125 
L 670.824062 89.20125 
Q 672.424062 89.20125 672.424062 87.60125 
L 672.424062 28.398125 
Q 672.424062 26.798125 670.824062 26.798125 
L 593.856562 26.798125 
Q 592.256562 26.798125 592.256562 28.398125 
L 592.256562 87.60125 
Q 592.256562 89.20125 593.856562 89.20125 
z
" style="fill: #ffffff; opacity: 0.8; stroke: #cccccc; stroke-linejoin: miter"/>
    </g>
    <g id="patch_48">
     <path d="M 595.456563 36.076875 
L 611.456563 36.076875 
L 611.456563 30.476875 
L 595.456563 30.476875 
z
" style="fill: #4c72b0"/>
    </g>
    <g id="text_18">
     <!-- C- -_Compiler -->
     <g transform="translate(617.856562 36.076875) scale(0.08 -0.08)">
      <defs>
       <path id="DejaVuSans-26" d="M 4122 4306 
L 4122 3641 
Q 3803 3938 3442 4084 
Q 3081 4231 2675 4231 
Q 1875 4231 1450 3742 
Q 1025 3253 1025 2328 
Q 1025 1406 1450 917 
Q 1875 428 2675 428 
Q 3081 428 3442 575 
Q 3803 722 4122 1019 
L 4122 359 
Q 3791 134 3420 21 
Q 3050 -91 2638 -91 
Q 1578 -91 968 557 
Q 359 1206 359 2328 
Q 359 3453 968 4101 
Q 1578 4750 2638 4750 
Q 3056 4750 3426 4639 
Q 3797 4528 4122 4306 
z
" transform="scale(0.015625)"/>
       <path id="DejaVuSans-10" d="M 313 2009 
L 1997 2009 
L 1997 1497 
L 313 1497 
L 313 2009 
z
" transform="scale(0.015625)"/>
       <path id="DejaVuSans-42" d="M 3263 -1063 
L 3263 -1509 
L -63 -1509 
L -63 -1063 
L 3263 -1063 
z
" transform="scale(0.015625)"/>
      </defs>
      <use xlink:href="#DejaVuSans-26"/>
      <use xlink:href="#DejaVuSans-10" transform="translate(69.828125 0)"/>
      <use xlink:href="#DejaVuSans-10" transform="translate(105.90625 0)"/>
      <use xlink:href="#DejaVuSans-42" transform="translate(141.984375 0)"/>
      <use xlink:href="#DejaVuSans-26" transform="translate(191.984375 0)"/>
      <use xlink:href="#DejaVuSans-52" transform="translate(261.8125 0)"/>
      <use xlink:href="#DejaVuSans-50" transform="translate(323 0)"/>
      <use xlink:href="#DejaVuSans-53" transform="translate(420.40625 0)"/>
      <use xlink:href="#DejaVuSans-4c" transform="translate(483.890625 0)"/>
      <use xlink:href="#DejaVuSans-4f" transform="translate(511.671875 0)"/>
      <use xlink:href="#DejaVuSans-48" transform="translate(539.453125 0)"/>
      <use xlink:href="#DejaVuSans-55" transform="translate(600.984375 0)"/>
     </g>
    </g>
    <g id="patch_49">
     <path d="M 595.456563 48.0775 
L 611.456563 48.0775 
L 611.456563 42.4775 
L 595.456563 42.4775 
z
" style="fill: #55a868"/>
    </g>
    <g id="text_19">
     <!-- GCC_O0 -->
     <g transform="translate(617.856562 48.0775) scale(0.08 -0.08)">
      <defs>
       <path id="DejaVuSans-2a" d="M 3809 666 
L 3809 1919 
L 2778 1919 
L 2778 2438 
L 4434 2438 
L 4434 434 
Q 4069 175 3628 42 
Q 3188 -91 2688 -91 
Q 1594 -91 976 548 
Q 359 1188 359 2328 
Q 359 3472 976 4111 
Q 1594 4750 2688 4750 
Q 3144 4750 3555 4637 
Q 3966 4525 4313 4306 
L 4313 3634 
Q 3963 3931 3569 4081 
Q 3175 4231 2741 4231 
Q 1884 4231 1454 3753 
Q 1025 3275 1025 2328 
Q 1025 1384 1454 906 
Q 1884 428 2741 428 
Q 3075 428 3337 486 
Q 3600 544 3809 666 
z
" transform="scale(0.015625)"/>
       <path id="DejaVuSans-32" d="M 2522 4238 
Q 1834 4238 1429 3725 
Q 1025 3213 1025 2328 
Q 1025 1447 1429 934 
Q 1834 422 2522 422 
Q 3209 422 3611 934 
Q 4013 1447 4013 2328 
Q 4013 3213 3611 3725 
Q 3209 4238 2522 4238 
z
M 2522 4750 
Q 3503 4750 4090 4092 
Q 4678 3434 4678 2328 
Q 4678 1225 4090 567 
Q 3503 -91 2522 -91 
Q 1538 -91 948 565 
Q 359 1222 359 2328 
Q 359 3434 948 4092 
Q 1538 4750 2522 4750 
z
" transform="scale(0.015625)"/>
      </defs>
      <use xlink:href="#DejaVuSans-2a"/>
      <use xlink:href="#DejaVuSans-26" transform="translate(77.484375 0)"/>
      <use xlink:href="#DejaVuSans-26" transform="translate(147.3125 0)"/>
      <use xlink:href="#DejaVuSans-42" transform="translate(217.140625 0)"/>
      <use xlink:href="#DejaVuSans-32" transform="translate(267.140625 0)"/>
      <use xlink:href="#DejaVuSans-13" transform="translate(345.859375 0)"/>
     </g>
    </g>
    <g id="patch_50">
     <path d="M 595.456563 60.078125 
L 611.456563 60.078125 
L 611.456563 54.478125 
L 595.456563 54.478125 
z
" style="fill: #c44e52"/>
    </g>
    <g id="text_20">
     <!-- GCC_O2 -->
     <g transform="translate(617.856562 60.078125) scale(0.08 -0.08)">
      <use xlink:href="#DejaVuSans-2a"/>
      <use xlink:href="#DejaVuSans-26" transform="translate(77.484375 0)"/>
      <use xlink:href="#DejaVuSans-26" transform="translate(147.3125 0)"/>
      <use xlink:href="#DejaVuSans-42" transform="translate(217.140625 0)"/>
      <use xlink:href="#DejaVuSans-32" transform="translate(267.140625 0)"/>
      <use xlink:href="#DejaVuSans-15" transform="translate(345.859375 0)"/>
     </g>
    </g>
    <g id="patch_51">
     <path d="M 595.456563 72.07875 
L 611.456563 72.07875 
L 611.456563 66.47875 
L 595.456563 66.47875 
z
" style="fill: #8172b2"/>
    </g>
    <g id="text_21">
     <!-- Clang_O0 -->
     <g transform="translate(617.856562 72.07875) scale(0.08 -0.08)">
      <use xlink:href="#DejaVuSans-26"/>
      <use xlink:href="#DejaVuSans-4f" transform="translate(69.828125 0)"/>
      <use xlink:href="#DejaVuSans-44" transform="translate(97.609375 0)"/>
      <use xlink:href="#DejaVuSans-51" transform="translate(158.890625 0)"/>
      <use xlink:href="#DejaVuSans-4a" transform="translate(222.265625 0)"/>
      <use xlink:href="#DejaVuSans-42" transform="translate(285.75 0)"/>
      <use xlink:href="#DejaVuSans-32" transform="translate(335.75 0)"/>
      <use xlink:href="#DejaVuSans-13" transform="translate(414.46875 0)"/>
     </g>
    </g>
    <g id="patch_52">
     <path d="M 595.456563 84.079375 
L 611.456563 84.079375 
L 611.456563 78.479375 
L 595.456563 78.479375 
z
" style="fill: #ccb974"/>
    </g>
    <g id="text_22">
     <!-- Clang_O2 -->
     <g transform="translate(617.856562 84.079375) scale(0.08 -0.08)">
      <use xlink:href="#DejaVuSans-26"/>
      <use xlink:href="#DejaVuSans-4f" transform="translate(69.828125 0)"/>
      <use xlink:href="#DejaVuSans-44" transform="translate(97.609375 0)"/>
      <use xlink:href="#DejaVuSans-51" transform="translate(158.890625 0)"/>
      <use xlink:href="#DejaVuSans-4a" transform="translate(222.265625 0)"/>
      <use xlink:href="#DejaVuSans-42" transform="translate(285.75 0)"/>
      <use xlink:href="#DejaVuSans-32" transform="translate(335.75 0)"/>
      <use xlink:href="#DejaVuSans-15" transform="translate(414.46875 0)"/>
     </g>
    </g>
   </g>
  </g>
 </g>
 <defs>
  <clipPath id="p9bc8a3b58a">
   <rect x="50.466406" y="22.798125" width="625.957656" height="286.55742"/>
  </clipPath>
 </defs>
</svg>
